<svg width="19" height="19" viewBox="0 0 19 19" fill="none" xmlns="http://www.w3.org/2000/svg">
<path d="M9.08697 7.15697C7.79673 7.15697 6.7438 8.2099 6.7438 9.50013C6.7438 10.7904 7.79673 11.8433 9.08697 11.8433C10.3772 11.8433 11.4301 10.7904 11.4301 9.50013C11.4301 8.2099 10.3772 7.15697 9.08697 7.15697ZM16.1147 9.50013C16.1147 8.52982 16.1235 7.5683 16.069 6.59974C16.0145 5.47474 15.7579 4.4763 14.9352 3.65365C14.1108 2.82923 13.1141 2.57435 11.9891 2.51986C11.0188 2.46537 10.0573 2.47416 9.08872 2.47416C8.11841 2.47416 7.15689 2.46537 6.18833 2.51986C5.06333 2.57435 4.0649 2.83099 3.24224 3.65365C2.41783 4.47806 2.16294 5.47474 2.10845 6.59974C2.05396 7.57005 2.06275 8.53158 2.06275 9.50013C2.06275 10.4687 2.05396 11.432 2.10845 12.4005C2.16294 13.5255 2.41958 14.524 3.24224 15.3466C4.06665 16.171 5.06333 16.4259 6.18833 16.4804C7.15865 16.5349 8.12017 16.5261 9.08872 16.5261C10.059 16.5261 11.0206 16.5349 11.9891 16.4804C13.1141 16.4259 14.1126 16.1693 14.9352 15.3466C15.7596 14.5222 16.0145 13.5255 16.069 12.4005C16.1252 11.432 16.1147 10.4704 16.1147 9.50013ZM9.08697 13.1054C7.09185 13.1054 5.48169 11.4952 5.48169 9.50013C5.48169 7.50501 7.09185 5.89486 9.08697 5.89486C11.0821 5.89486 12.6922 7.50501 12.6922 9.50013C12.6922 11.4952 11.0821 13.1054 9.08697 13.1054ZM12.8399 6.58919C12.3741 6.58919 11.9979 6.21302 11.9979 5.7472C11.9979 5.28138 12.3741 4.90521 12.8399 4.90521C13.3057 4.90521 13.6819 5.28138 13.6819 5.7472C13.682 5.85781 13.6603 5.96737 13.6181 6.06958C13.5758 6.1718 13.5138 6.26468 13.4356 6.34289C13.3574 6.4211 13.2645 6.48312 13.1623 6.52538C13.0601 6.56765 12.9505 6.58933 12.8399 6.58919Z" fill="white"/>
</svg>
