<svg width="15" height="15" viewBox="0 0 15 15" fill="none" xmlns="http://www.w3.org/2000/svg">
<g clip-path="url(#clip0_879_1014)">
<path d="M1.92189 3.99944C2.88839 3.99944 3.6719 3.21606 3.6719 2.24972C3.6719 1.28338 2.88839 0.5 1.92189 0.5C0.955382 0.5 0.171875 1.28338 0.171875 2.24972C0.171875 3.21606 0.955382 3.99944 1.92189 3.99944Z" fill="white"/>
<path d="M3.38023 5.16797H0.463544C0.302542 5.16797 0.171875 5.29861 0.171875 5.45959V14.2082C0.171875 14.3692 0.302542 14.4998 0.463544 14.4998H3.38023C3.54123 14.4998 3.6719 14.3692 3.6719 14.2082V5.45959C3.6719 5.29861 3.54123 5.16797 3.38023 5.16797Z" fill="white"/>
<path d="M12.0707 4.68338C10.8243 4.25644 9.26529 4.63147 8.33034 5.30394C8.29827 5.17855 8.18395 5.08523 8.04805 5.08523H5.13183C4.97086 5.08523 4.84021 5.21587 4.84021 5.37685V14.1254C4.84021 14.2864 4.97086 14.4171 5.13183 14.4171H8.04805C8.20903 14.4171 8.33968 14.2864 8.33968 14.1254V7.83812C8.81094 7.43218 9.4181 7.3027 9.91502 7.51384C10.3968 7.71739 10.6727 8.21431 10.6727 8.87628V14.1254C10.6727 14.2864 10.8033 14.4171 10.9643 14.4171H13.8805C14.0415 14.4171 14.1721 14.2864 14.1721 14.1254V8.28896C14.1389 5.89243 13.0115 5.00532 12.0707 4.68338Z" fill="white"/>
</g>
<defs>
<clipPath id="clip0_879_1014">
<rect width="14" height="14" fill="white" transform="translate(0.171875 0.5)"/>
</clipPath>
</defs>
</svg>
