<svg width="15" height="17" viewBox="0 0 15 17" fill="none" xmlns="http://www.w3.org/2000/svg">
<path d="M12.9363 3.84128C12.8272 3.78493 12.7211 3.72316 12.6183 3.6562C12.3192 3.45849 12.045 3.22553 11.8016 2.96233C11.1925 2.26543 10.965 1.55843 10.8812 1.06343H10.8846C10.8146 0.652558 10.8435 0.386719 10.8479 0.386719H8.07375V11.1138C8.07375 11.2579 8.07375 11.4002 8.0677 11.5409C8.0677 11.5584 8.06601 11.5745 8.065 11.5934C8.065 11.6011 8.06501 11.6092 8.06332 11.6172V11.6233C8.03408 12.0082 7.9107 12.38 7.70404 12.706C7.49738 13.032 7.21376 13.3022 6.87815 13.4929C6.52837 13.6919 6.13276 13.7963 5.73033 13.7958C4.43782 13.7958 3.39027 12.7418 3.39027 11.4402C3.39027 10.1386 4.43782 9.08471 5.73033 9.08471C5.975 9.08448 6.21816 9.12298 6.45079 9.19878L6.45415 6.37416C5.74795 6.28293 5.03051 6.33906 4.34708 6.53899C3.66366 6.73892 3.02908 7.07832 2.48339 7.53577C2.00524 7.95122 1.60326 8.44693 1.29553 9.00058C1.17843 9.20248 0.736595 10.0138 0.68309 11.3305C0.64944 12.0779 0.873889 12.8522 0.980897 13.1722V13.179C1.0482 13.3674 1.30899 14.0105 1.734 14.5526C2.07671 14.9874 2.48161 15.3694 2.93566 15.6863V15.6795L2.94239 15.6863C4.28538 16.5989 5.77441 16.539 5.77441 16.539C6.03218 16.5285 6.89565 16.539 7.87623 16.0743C8.96381 15.5591 9.58298 14.7915 9.58298 14.7915C9.97854 14.3329 10.2931 13.8102 10.5131 13.2459C10.7641 12.586 10.8479 11.7946 10.8479 11.4783V5.78729C10.8816 5.80748 11.3298 6.10394 11.3298 6.10394C11.3298 6.10394 11.9755 6.51784 12.983 6.78738C13.7058 6.97919 14.6797 7.01957 14.6797 7.01957V4.26561C14.3385 4.30263 13.6456 4.19495 12.9363 3.84128Z" fill="white"/>
</svg>
