<svg width="17" height="15" viewBox="0 0 17 15" fill="none" xmlns="http://www.w3.org/2000/svg">
<path d="M16.9035 2.22559C16.7911 2.10036 16.6101 2.06886 16.4615 2.1461C16.3691 2.1941 16.1954 2.25709 15.9892 2.31933C16.2494 1.96837 16.4585 1.57542 16.5509 1.22221C16.5908 1.06998 16.5324 0.909495 16.4053 0.818756C16.2782 0.728766 16.1089 0.728766 15.9818 0.818756C15.7815 0.960489 14.8147 1.38644 14.2035 1.52442C12.8221 0.296815 11.2145 0.16933 9.54332 1.15922C8.18482 1.96387 7.88917 3.60019 7.94682 4.59757C4.83734 4.29386 2.90454 2.62755 1.81655 1.24846C1.74042 1.15172 1.61773 1.10072 1.50242 1.10822C1.38121 1.11722 1.27182 1.18546 1.20973 1.2912C0.695303 2.17235 0.552652 3.14649 0.79878 4.10863C0.9333 4.63357 1.16834 5.09626 1.44108 5.47122C1.31025 5.40598 1.18386 5.32424 1.06486 5.22675C0.955473 5.13526 0.802475 5.11801 0.673129 5.17875C0.544522 5.241 0.46248 5.37298 0.46248 5.51772C0.46248 7.16978 1.48099 8.27215 2.43224 8.84808C2.2785 8.82934 2.11811 8.79484 1.95624 8.7446C1.81729 8.70185 1.66651 8.74459 1.57042 8.85558C1.47434 8.96582 1.45142 9.1233 1.51129 9.25754C2.04568 10.4566 3.05827 11.2816 4.31108 11.5808C3.21718 12.2324 1.75298 12.5519 0.412219 12.3952C0.238526 12.3704 0.0729628 12.4822 0.0182678 12.6516C-0.0364271 12.8211 0.0352676 13.0071 0.188266 13.0941C2.22233 14.2527 4.06126 14.6667 5.65037 14.6667C7.96308 14.6667 9.74806 13.7908 10.8346 13.0581C13.7637 11.0858 15.5893 7.54473 15.3351 4.37635C15.8044 4.02464 16.5066 3.37521 16.9419 2.67704C17.0321 2.53606 17.0158 2.35008 16.9035 2.22559Z" fill="white"/>
</svg>
