<svg width="1440" height="716" viewBox="0 0 1440 716" fill="none" xmlns="http://www.w3.org/2000/svg">
<path d="M815.969 12.6646C820.209 11.0191 823.588 7.63978 825.235 3.40082" stroke="#B1382C" stroke-opacity="0.8" stroke-width="3.58314" stroke-miterlimit="2.61313" stroke-linecap="round" stroke-linejoin="round"/>
<path d="M900.887 12.6646C896.644 11.0191 893.266 7.63978 891.622 3.40082" stroke="#B1382C" stroke-opacity="0.8" stroke-width="3.58314" stroke-miterlimit="2.61313" stroke-linecap="round" stroke-linejoin="round"/>
<path d="M888.55 41.795H906.754V-2.46877H810.099V19.6631V41.795H844.095" stroke="#B1382C" stroke-opacity="0.8" stroke-width="3.58331" stroke-miterlimit="2.61313" stroke-linecap="round" stroke-linejoin="round"/>
<path d="M815.969 26.658C820.209 28.3071 823.588 31.6828 825.235 35.9254" stroke="#B1382C" stroke-opacity="0.8" stroke-width="3.58314" stroke-miterlimit="2.61313" stroke-linecap="round" stroke-linejoin="round"/>
<path d="M900.887 26.658C896.644 28.3071 893.266 31.6828 891.622 35.9254" stroke="#B1382C" stroke-opacity="0.8" stroke-width="3.58314" stroke-miterlimit="2.61313" stroke-linecap="round" stroke-linejoin="round"/>
<path d="M861.418 13.1257C857.057 12.4174 854.059 13.7714 854.022 15.6307C853.931 19.7627 862.918 19.9472 862.839 23.6992C862.8 25.5549 859.803 26.9125 855.439 26.2004" stroke="#B1382C" stroke-opacity="0.8" stroke-width="3.58327" stroke-miterlimit="2.61313" stroke-linecap="round" stroke-linejoin="round"/>
<path d="M858.358 12.9597V10.997M858.358 28.3439V26.3812V28.3439Z" stroke="#B1382C" stroke-opacity="0.8" stroke-width="3.58318" stroke-miterlimit="2.61313" stroke-linecap="round" stroke-linejoin="round"/>
<path d="M858.426 34.9109C866.846 34.9109 873.673 28.082 873.673 19.6631C873.673 11.2442 866.846 4.41544 858.426 4.41544C850.007 4.41544 843.179 11.2442 843.179 19.6631C843.179 28.082 850.007 34.9109 858.426 34.9109Z" stroke="#B1382C" stroke-opacity="0.8" stroke-width="3.58322" stroke-miterlimit="2.61313" stroke-linecap="round" stroke-linejoin="round"/>
<path d="M858.425 39.8877L871.265 51.0956V45.2186H881.246V59.806L890.091 67.5202H878.866V93.4668H864.671V79.8276H852.182V93.4668H837.987V67.5202H826.761L858.425 39.8877Z" stroke="#B1382C" stroke-opacity="0.8" stroke-width="3.58465" stroke-miterlimit="2.61313" stroke-linecap="round" stroke-linejoin="round"/>
<path d="M1046.71 86.3686V93.998H1035.78V85.1696M1055.76 52.2577L1063.29 44.7279L1055.76 52.2577ZM1066.35 52.2577L1073.88 44.7279L1066.35 52.2577ZM1088.22 50.3024C1089.84 47.897 1096.38 45.997 1097.05 48.4172C1098.27 53.6633 1094.02 55.6186 1091.39 56.3048L1088.22 50.3024ZM1041.42 50.3024C1039.8 47.897 1033.26 45.997 1032.58 48.4172C1031.37 53.6633 1035.62 55.6186 1038.25 56.3048L1041.42 50.3024ZM1064.82 86.5383C1057.82 86.601 1045.71 86.601 1041.59 85.9738C1035.67 85.07 1031.4 83.0925 1031.4 79.7464C1031.4 76.4039 1031.32 73.5152 1031.42 70.2724C1031.42 64.7717 1035.93 58.19 1039.99 54.6077C1044.49 57.7916 1055.74 59.603 1064.82 59.7801C1073.89 59.603 1085.15 57.7916 1089.64 54.6077C1093.71 58.19 1098.21 64.7717 1098.21 70.2724C1098.32 73.5152 1098.24 76.4039 1098.24 79.7464C1098.24 83.0925 1093.06 85.2102 1088.04 85.9738C1083.03 86.7375 1071.82 86.601 1064.82 86.5383ZM1089.64 54.6077C1088.12 50.8078 1084.33 43.0198 1083.37 41.4777C1080.9 37.5006 1070.81 37.5523 1064.82 37.6224C1058.82 37.5523 1048.74 37.5006 1046.26 41.4777C1045.31 43.0198 1041.51 50.8078 1039.99 54.6077H1089.64ZM1093.84 71.903C1091.32 71.3348 1082.85 75.109 1085.59 77.78L1093.84 71.903ZM1080.12 74.6884C1079.83 80.3772 1072.58 80.9638 1064.82 81.27C1057.05 80.9638 1049.81 80.3772 1049.52 74.6884L1064.82 74.8397L1080.12 74.6884ZM1082.93 86.3686V93.998H1093.86V85.1696L1082.93 86.3686ZM1035.8 71.903C1038.32 71.3348 1046.79 75.109 1044.05 77.78L1035.8 71.903Z" stroke="#B1382C" stroke-opacity="0.8" stroke-width="3.5833" stroke-miterlimit="2.61313" stroke-linecap="round" stroke-linejoin="round"/>
<path d="M1024.26 11.4582C1028.31 9.88288 1031.54 6.65478 1033.11 2.60766" stroke="#B1382C" stroke-opacity="0.8" stroke-width="3.58315" stroke-miterlimit="2.61313" stroke-linecap="round" stroke-linejoin="round"/>
<path d="M1105.38 11.4582C1101.33 9.88288 1098.1 6.65478 1096.53 2.60766" stroke="#B1382C" stroke-opacity="0.8" stroke-width="3.58315" stroke-miterlimit="2.61313" stroke-linecap="round" stroke-linejoin="round"/>
<path d="M1091.27 39.2827H1110.99V-2.99997H1018.65V18.1432V39.2827H1038.21" stroke="#B1382C" stroke-opacity="0.8" stroke-width="3.58322" stroke-miterlimit="2.61313" stroke-linecap="round" stroke-linejoin="round"/>
<path d="M1024.26 24.8244C1028.31 26.3997 1031.54 29.6278 1033.11 33.6786" stroke="#B1382C" stroke-opacity="0.8" stroke-width="3.58315" stroke-miterlimit="2.61313" stroke-linecap="round" stroke-linejoin="round"/>
<path d="M1105.38 24.8244C1101.33 26.3997 1098.1 29.6278 1096.53 33.6786" stroke="#B1382C" stroke-opacity="0.8" stroke-width="3.58315" stroke-miterlimit="2.61313" stroke-linecap="round" stroke-linejoin="round"/>
<path d="M1067.67 11.8972C1063.51 11.2221 1060.64 12.5133 1060.61 14.2916C1060.52 18.2354 1069.1 18.4162 1069.03 21.9984C1068.99 23.773 1066.13 25.0679 1061.96 24.3891" stroke="#B1382C" stroke-opacity="0.8" stroke-width="3.58326" stroke-miterlimit="2.61313" stroke-linecap="round" stroke-linejoin="round"/>
<path d="M1064.76 11.7385V9.86439M1064.76 26.4365V24.5624V26.4365Z" stroke="#B1382C" stroke-opacity="0.8" stroke-width="3.58311" stroke-miterlimit="2.61313" stroke-linecap="round" stroke-linejoin="round"/>
<path d="M1064.82 32.7083C1072.86 32.7083 1079.38 26.182 1079.38 18.1431C1079.38 10.1005 1072.86 3.57792 1064.82 3.57792C1056.78 3.57792 1050.25 10.1005 1050.25 18.1431C1050.25 26.182 1056.78 32.7083 1064.82 32.7083Z" stroke="#B1382C" stroke-opacity="0.8" stroke-width="3.58317" stroke-miterlimit="2.61313" stroke-linecap="round" stroke-linejoin="round"/>
<path d="M1249.13 25.9311C1247.53 26.2595 1246.33 27.6725 1246.33 29.3696C1246.33 31.3064 1247.9 32.878 1249.84 32.878C1251.92 32.878 1255.57 32.9481 1257.66 32.9481C1259.59 32.9481 1261.17 31.3765 1261.17 29.4396C1261.21 27.1486 1259.41 26.0492 1257.56 26.0234" stroke="#B1382C" stroke-opacity="0.8" stroke-width="3.58321" stroke-miterlimit="2.61313" stroke-linecap="round" stroke-linejoin="round"/>
<path d="M1247.88 18.0509C1245.52 18.0509 1243.39 15.4426 1243.39 13.0814C1243.39 10.7166 1245.31 8.79452 1247.67 8.79452M1249.13 25.9311C1243.24 26.0381 1243.33 18.0509 1247.88 18.0509L1249.13 25.9311Z" stroke="#B1382C" stroke-opacity="0.8" stroke-width="3.58318" stroke-miterlimit="2.61313" stroke-linecap="round" stroke-linejoin="round"/>
<path d="M1254.78 8.6175C1256.01 11.8493 1257.01 14.465 1258.23 17.6931C1258.97 19.6447 1261.15 20.6223 1263.1 19.8845C1264.81 19.2352 1265.77 17.4828 1265.49 15.7488C1264.54 13.2623 1263.6 10.7794 1262.65 8.29284" stroke="#B1382C" stroke-opacity="0.8" stroke-width="3.5832" stroke-miterlimit="2.61313" stroke-linecap="round" stroke-linejoin="round"/>
<path d="M1248.19 8.79449C1245.82 8.79449 1243.9 6.87978 1243.9 4.51496C1243.9 2.14645 1245.82 0.228038 1248.19 0.228038C1248.63 0.228038 1249.08 0.228038 1249.53 0.228038C1253.36 0.228038 1257.2 0.228038 1261.03 0.228038" stroke="#B1382C" stroke-opacity="0.8" stroke-width="3.58318" stroke-miterlimit="2.61313" stroke-linecap="round" stroke-linejoin="round"/>
<path d="M1254.78 8.61755C1254.27 7.09389 1254.78 5.34885 1256.15 4.35644C1258.95 2.33841 1258.21 2.86966 1261.02 0.847947" stroke="#B1382C" stroke-opacity="0.8" stroke-width="3.5832" stroke-miterlimit="2.61313" stroke-linecap="round" stroke-linejoin="round"/>
<path d="M1261.02 0.847963C1263.88 -1.08521 1262.56 -0.0190013 1265.42 -1.95217C1267.15 -3.11798 1269.5 -2.6642 1270.67 -0.937627C1271.85 0.740987 1272.59 1.62641 1273.77 3.30502C1274.62 4.81024 1276.32 6.41874 1279.36 6.50728L1311.82 6.06089M1259.82 32.203C1266.83 32.203 1269.85 33.1917 1272.94 29.9452C1275.24 27.525 1275.33 26.7724 1279.36 26.7429L1311.71 27.5435L1259.82 32.203Z" stroke="#B1382C" stroke-opacity="0.8" stroke-width="3.5832" stroke-miterlimit="2.61313" stroke-linecap="round" stroke-linejoin="round"/>
<path d="M1268.33 38.3271C1271.16 44.3295 1288.03 56.6775 1288.94 67.7711C1290.08 81.794 1281.28 93.5959 1259.82 93.5959C1238.36 93.5959 1229.55 81.794 1230.7 67.7711C1231.61 56.6775 1248.48 44.3295 1251.31 38.3271" stroke="#B1382C" stroke-opacity="0.8" stroke-width="3.58322" stroke-miterlimit="2.61313" stroke-linecap="round" stroke-linejoin="round"/>
<path d="M1263.6 60.5622C1258.38 59.7137 1254.8 61.3333 1254.75 63.5579C1254.65 68.5015 1265.4 68.7266 1265.3 73.2127C1265.26 75.4374 1261.67 77.0606 1256.45 76.2084" stroke="#B1382C" stroke-opacity="0.8" stroke-width="3.58316" stroke-miterlimit="2.61313" stroke-linecap="round" stroke-linejoin="round"/>
<path d="M1259.95 60.363V58.013M1259.95 78.7724V76.426V78.7724Z" stroke="#B1382C" stroke-opacity="0.8" stroke-width="3.5832" stroke-miterlimit="2.61313" stroke-linecap="round" stroke-linejoin="round"/>
<path d="M1260.03 85.0258C1269.22 85.0258 1276.67 77.5735 1276.67 68.3835C1276.67 59.1972 1269.22 51.7449 1260.03 51.7449C1250.84 51.7449 1243.39 59.1972 1243.39 68.3835C1243.39 77.5735 1250.84 85.0258 1260.03 85.0258Z" stroke="#B1382C" stroke-opacity="0.8" stroke-width="3.58326" stroke-miterlimit="2.61313" stroke-linecap="round" stroke-linejoin="round"/>
<path d="M1460.97 63.0487L1436.31 54.7848L1478.43 40.6771L1520.55 54.7848L1478.43 68.8962L1468.72 65.646M1478.43 54.7848L1460.83 63.0008L1460.97 93.0572L1478.43 54.7848ZM1460.97 80.9601C1458.01 80.1374 1454.91 79.7537 1451.77 79.8422V59.9682L1460.97 80.9601ZM1505.08 59.9682V79.8422C1494.5 79.536 1484.42 84.6641 1478.43 93.3782C1475.68 89.3864 1472.08 86.1472 1467.96 83.8377L1505.08 59.9682Z" stroke="#B1382C" stroke-opacity="0.8" stroke-width="3.58323" stroke-miterlimit="2.61313" stroke-linecap="round" stroke-linejoin="round"/>
<path d="M1437.04 12.0743C1441.09 10.5027 1444.32 7.27462 1445.89 3.22381" stroke="#B1382C" stroke-opacity="0.8" stroke-width="3.58315" stroke-miterlimit="2.61313" stroke-linecap="round" stroke-linejoin="round"/>
<path d="M1496.01 39.9024H1523.77V-2.38391H1431.43V18.7593V39.9024H1462.64" stroke="#B1382C" stroke-opacity="0.8" stroke-width="3.58322" stroke-miterlimit="2.61313" stroke-linecap="round" stroke-linejoin="round"/>
<path d="M1437.04 25.4441C1441.09 27.0195 1444.32 30.2439 1445.89 34.2947" stroke="#B1382C" stroke-opacity="0.8" stroke-width="3.58315" stroke-miterlimit="2.61313" stroke-linecap="round" stroke-linejoin="round"/>
<path d="M811.396 273.639C815.454 271.728 819.29 269.673 822.784 266.689C826.758 263.365 828.308 254.772 841.919 251.57C850.145 249.637 856.151 247.748 862.466 245.977C866.447 244.863 870.071 244.21 871.865 247.766C873.52 251.042 871.259 253.514 868.169 255.211C862.007 258.273 858.456 260.166 851.113 262.892C861.047 265.165 866.393 266.087 881.813 259.502C884.746 258.251 895.677 250.282 898.783 248.091C900.815 246.649 903.69 246.265 905.296 248.453C906.774 250.456 906.387 253.175 904.511 254.846C900.627 258.303 892.302 265.884 888.965 268.216C884.306 271.477 871.661 278.649 864.872 279C854.193 279.553 845.686 277.052 833.568 284.641L810.655 299.316" stroke="#B1382C" stroke-opacity="0.8" stroke-width="3.58322" stroke-miterlimit="2.61313" stroke-linecap="round" stroke-linejoin="round"/>
<path d="M824.924 217.865C828.679 216.408 831.67 213.419 833.127 209.664" stroke="#B1382C" stroke-opacity="0.8" stroke-width="3.58319" stroke-miterlimit="2.61313" stroke-linecap="round" stroke-linejoin="round"/>
<path d="M900.11 217.865C896.356 216.408 893.366 213.419 891.91 209.664" stroke="#B1382C" stroke-opacity="0.8" stroke-width="3.58319" stroke-miterlimit="2.61313" stroke-linecap="round" stroke-linejoin="round"/>
<path d="M905.306 242.174V204.466H819.726V243.657H849.827" stroke="#B1382C" stroke-opacity="0.8" stroke-width="3.58314" stroke-miterlimit="2.61313" stroke-linecap="round" stroke-linejoin="round"/>
<path d="M824.924 230.257C828.679 231.715 831.67 234.707 833.127 238.458" stroke="#B1382C" stroke-opacity="0.8" stroke-width="3.58319" stroke-miterlimit="2.61313" stroke-linecap="round" stroke-linejoin="round"/>
<path d="M900.11 230.257C896.356 231.715 893.366 234.707 891.91 238.458" stroke="#B1382C" stroke-opacity="0.8" stroke-width="3.58319" stroke-miterlimit="2.61313" stroke-linecap="round" stroke-linejoin="round"/>
<path d="M865.162 218.274C861.299 217.647 858.647 218.846 858.611 220.492C858.533 224.148 866.488 224.314 866.42 227.634C866.384 229.28 863.731 230.482 859.867 229.855" stroke="#B1382C" stroke-opacity="0.8" stroke-width="3.58319" stroke-miterlimit="2.61313" stroke-linecap="round" stroke-linejoin="round"/>
<path d="M862.456 218.127V216.389M862.456 231.751V230.014V231.751Z" stroke="#B1382C" stroke-opacity="0.8" stroke-width="3.58318" stroke-miterlimit="2.61313" stroke-linecap="round" stroke-linejoin="round"/>
<path d="M862.515 237.562C869.969 237.562 876.014 231.515 876.014 224.063C876.014 216.607 869.969 210.564 862.515 210.564C855.06 210.564 849.015 216.607 849.015 224.063C849.015 231.515 855.06 237.562 862.515 237.562Z" stroke="#B1382C" stroke-opacity="0.8" stroke-width="3.58319" stroke-miterlimit="2.61313" stroke-linecap="round" stroke-linejoin="round"/>
<path d="M879.466 243.657H891.756" stroke="#B1382C" stroke-opacity="0.8" stroke-width="3.58322" stroke-miterlimit="2.61313" stroke-linecap="round" stroke-linejoin="round"/>
<path d="M1068.02 257.949C1063.35 257.189 1060.13 258.639 1060.09 260.635C1059.99 265.062 1069.63 265.268 1069.55 269.286C1069.51 271.278 1066.29 272.735 1061.61 271.972" stroke="#B1382C" stroke-opacity="0.8" stroke-width="3.58326" stroke-miterlimit="2.61313" stroke-linecap="round" stroke-linejoin="round"/>
<path d="M1064.75 257.772V255.665M1064.75 274.27V272.167V274.27Z" stroke="#B1382C" stroke-opacity="0.8" stroke-width="3.5831" stroke-miterlimit="2.61313" stroke-linecap="round" stroke-linejoin="round"/>
<path d="M1064.82 281.313C1073.85 281.313 1081.17 273.986 1081.17 264.958C1081.17 255.927 1073.85 248.604 1064.82 248.604C1055.79 248.604 1048.46 255.927 1048.46 264.958C1048.46 273.986 1055.79 281.313 1064.82 281.313Z" stroke="#B1382C" stroke-opacity="0.8" stroke-width="3.58322" stroke-miterlimit="2.61313" stroke-linecap="round" stroke-linejoin="round"/>
<path d="M1047.41 252.131H1029.24L1015.6 227.398L1047.41 252.131ZM1114.04 227.398L1100.41 252.131H1082.23L1114.04 227.398ZM1015.6 227.398H1114.04V292.554H1015.6V227.398V227.398Z" stroke="#B1382C" stroke-opacity="0.8" stroke-width="3.58329" stroke-miterlimit="2.61313" stroke-linecap="round" stroke-linejoin="round"/>
<path d="M1048.89 227.398H1056.25V218.765H1073.39V227.398H1080.75V211.232H1048.89V227.398V227.398Z" stroke="#B1382C" stroke-opacity="0.8" stroke-width="3.58322" stroke-miterlimit="2.61313" stroke-linecap="round" stroke-linejoin="round"/>
<path d="M1243.33 249.165H1253.57V255.377H1249.54V281.029H1253.57V287.242H1239.3V281.029H1243.33V255.377H1239.3V249.165H1243.33ZM1268.1 255.377H1264.07V249.165H1278.35V255.377H1274.31V281.029H1278.35V287.242H1264.07V281.029H1268.1V255.377ZM1292.88 255.377H1288.85V249.165H1303.12V255.377H1299.09V281.029H1303.12V287.242H1288.85V281.029H1292.88V255.377Z" stroke="#B1382C" stroke-opacity="0.8" stroke-width="3.58319" stroke-miterlimit="2.61313" stroke-linecap="round" stroke-linejoin="round"/>
<path d="M1234.54 287.242H1307.88" stroke="#B1382C" stroke-opacity="0.8" stroke-width="3.58326" stroke-miterlimit="2.61313" stroke-linecap="round" stroke-linejoin="round"/>
<path d="M1232.71 249.165H1309.72" stroke="#B1382C" stroke-opacity="0.8" stroke-width="3.58332" stroke-miterlimit="2.61313" stroke-linecap="round" stroke-linejoin="round"/>
<path d="M1271.21 204.163L1316.06 241.388H1226.36L1271.21 204.163V204.163Z" stroke="#B1382C" stroke-opacity="0.8" stroke-width="3.58311" stroke-miterlimit="2.61313" stroke-linecap="round" stroke-linejoin="round"/>
<path d="M1226.61 293.428H1315.81M1320.78 299.619H1221.65H1320.78Z" stroke="#B1382C" stroke-opacity="0.8" stroke-width="3.58326" stroke-miterlimit="2.61313" stroke-linecap="round" stroke-linejoin="round"/>
<path d="M852.993 462.803C852.421 473.822 846.037 478.117 841.032 478.117C835.307 478.117 830.53 472.062 829.425 462.803" stroke="#B1382C" stroke-opacity="0.8" stroke-width="3.58321" stroke-miterlimit="2.61313" stroke-linecap="round" stroke-linejoin="round"/>
<path d="M854.59 464.045C857.739 453.233 850.578 442.209 839.275 443.383C829.028 444.452 825.841 454.711 827.497 463.714C830.302 461.681 833.574 456.775 834.263 452.625C836.203 453.738 838.522 454.42 839.997 454.568C847.049 455.273 853.328 456.054 854.59 464.045Z" stroke="#B1382C" stroke-opacity="0.8" stroke-width="3.58321" stroke-miterlimit="2.61313" stroke-linecap="round" stroke-linejoin="round"/>
<path d="M834.62 480.478C834.381 481.746 833.918 482.758 833.059 483.038C829.653 484.159 817.733 484.691 814.519 488.992C810.751 493.633 810.035 498.433 809.736 503.643M847.798 480.478C848.04 481.746 848.501 482.758 849.361 483.038C852.765 484.159 864.688 484.691 867.9 488.992C871.668 493.633 872.383 498.433 872.685 503.643L847.798 480.478Z" stroke="#B1382C" stroke-opacity="0.8" stroke-width="3.58328" stroke-miterlimit="2.61313" stroke-linecap="round" stroke-linejoin="round"/>
<path d="M874.924 442.973C871.653 442.441 869.403 443.456 869.372 444.851C869.307 447.954 876.051 448.094 875.99 450.908C875.959 452.299 873.712 453.318 870.438 452.783" stroke="#B1382C" stroke-opacity="0.8" stroke-width="3.58321" stroke-miterlimit="2.61313" stroke-linecap="round" stroke-linejoin="round"/>
<path d="M872.632 442.848V441.379M872.632 454.394V452.919V454.394Z" stroke="#B1382C" stroke-opacity="0.8" stroke-width="3.58315" stroke-miterlimit="2.61313" stroke-linecap="round" stroke-linejoin="round"/>
<path d="M872.682 459.32C878.997 459.32 884.121 454.195 884.121 447.876C884.121 441.56 878.997 436.439 872.682 436.439C866.363 436.439 861.239 441.56 861.239 447.876C861.239 454.195 866.363 459.32 872.682 459.32Z" stroke="#B1382C" stroke-opacity="0.8" stroke-width="3.58319" stroke-miterlimit="2.61313" stroke-linecap="round" stroke-linejoin="round"/>
<path d="M838.243 436.705V420.542H907.118V466.126H860.894M860.498 437.844H847.783L838.243 420.542L860.498 437.844ZM907.118 420.542L897.578 437.844H884.865L907.118 420.542Z" stroke="#B1382C" stroke-opacity="0.8" stroke-width="3.58321" stroke-miterlimit="2.61313" stroke-linecap="round" stroke-linejoin="round"/>
<path d="M863.142 420.542V410.936H882.218V420.542" stroke="#B1382C" stroke-opacity="0.8" stroke-width="3.58327" stroke-miterlimit="2.61313" stroke-linecap="round" stroke-linejoin="round"/>
<path d="M836.036 505.632L838.587 494.774L836.019 488.572H846.398L843.566 494.733L846.199 505.623M830.885 483.539L836.019 488.572L830.149 497.641L824.752 485.156L830.885 483.539Z" stroke="#B1382C" stroke-opacity="0.8" stroke-width="3.58322" stroke-miterlimit="2.61313" stroke-linecap="round" stroke-linejoin="round"/>
<path d="M851.531 483.539L846.396 488.572L852.269 497.641L857.666 485.156" stroke="#B1382C" stroke-opacity="0.8" stroke-width="3.58322" stroke-miterlimit="2.61313" stroke-linecap="round" stroke-linejoin="round"/>
<path d="M1018.89 451.232H1031.74V499.495H1018.89V451.232Z" stroke="#B1382C" stroke-opacity="0.8" stroke-width="3.58315" stroke-miterlimit="2.61313" stroke-linecap="round" stroke-linejoin="round"/>
<path d="M1081.32 451.237H1031.74V499.495H1110.74" stroke="#B1382C" stroke-opacity="0.8" stroke-width="3.58315" stroke-miterlimit="2.61313" stroke-linecap="round" stroke-linejoin="round"/>
<path d="M1105.89 428.794L1095.75 473.745L1085.33 471.395L1095.47 426.448L1100.68 427.621L1105.89 428.794Z" stroke="#B1382C" stroke-opacity="0.8" stroke-width="3.5833" stroke-miterlimit="2.61313" stroke-linecap="round" stroke-linejoin="round"/>
<path d="M1087.51 486.027L1095.75 473.746L1085.33 471.395L1087.51 486.027Z" stroke="#B1382C" stroke-opacity="0.8" stroke-width="3.54953" stroke-miterlimit="2.61313" stroke-linecap="round" stroke-linejoin="round"/>
<path d="M1105.88 428.794C1114.6 433.838 1109.37 439.686 1107.29 448.879L1105.88 428.794ZM1103.02 417.199C1105.9 417.849 1107.71 420.708 1107.06 423.586L1105.88 428.794L1100.67 427.621L1095.46 426.448L1096.64 421.24C1097.28 418.357 1100.14 416.55 1103.02 417.199V417.199Z" stroke="#B1382C" stroke-opacity="0.8" stroke-width="3.5833" stroke-miterlimit="2.61313" stroke-linecap="round" stroke-linejoin="round"/>
<path d="M1075.64 468.816C1071.26 468.108 1068.26 469.465 1068.22 471.329C1068.13 475.468 1077.14 475.657 1077.06 479.412C1077.02 481.274 1074.02 482.633 1069.65 481.924" stroke="#B1382C" stroke-opacity="0.8" stroke-width="3.5832" stroke-miterlimit="2.61313" stroke-linecap="round" stroke-linejoin="round"/>
<path d="M1072.58 468.65V466.684M1072.58 484.071V482.104V484.071Z" stroke="#B1382C" stroke-opacity="0.8" stroke-width="3.58312" stroke-miterlimit="2.61313" stroke-linecap="round" stroke-linejoin="round"/>
<path d="M1080.36 462.983C1078.08 461.496 1075.42 460.607 1072.64 460.545C1064.92 460.372 1057.82 467.181 1057.82 475.364C1057.82 483.551 1064.46 490.192 1072.64 490.192C1075.84 490.192 1078.8 489.181 1081.22 487.458" stroke="#B1382C" stroke-opacity="0.8" stroke-width="3.58324" stroke-miterlimit="2.61313" stroke-linecap="round" stroke-linejoin="round"/>
<path d="M1230.65 426.464C1234.7 424.887 1237.93 421.663 1239.5 417.613" stroke="#B1382C" stroke-opacity="0.8" stroke-width="3.58315" stroke-miterlimit="2.61313" stroke-linecap="round" stroke-linejoin="round"/>
<path d="M1311.77 426.464C1307.72 424.887 1304.5 421.663 1302.92 417.613" stroke="#B1382C" stroke-opacity="0.8" stroke-width="3.58315" stroke-miterlimit="2.61313" stroke-linecap="round" stroke-linejoin="round"/>
<path d="M1290.67 454.292H1317.38V412.005H1225.04V433.145V454.292H1253.28" stroke="#B1382C" stroke-opacity="0.8" stroke-width="3.58322" stroke-miterlimit="2.61313" stroke-linecap="round" stroke-linejoin="round"/>
<path d="M1230.65 439.833C1234.7 441.401 1237.93 444.629 1239.5 448.68" stroke="#B1382C" stroke-opacity="0.8" stroke-width="3.58315" stroke-miterlimit="2.61313" stroke-linecap="round" stroke-linejoin="round"/>
<path d="M1311.77 439.833C1307.72 441.401 1304.5 444.629 1302.92 448.68" stroke="#B1382C" stroke-opacity="0.8" stroke-width="3.58315" stroke-miterlimit="2.61313" stroke-linecap="round" stroke-linejoin="round"/>
<path d="M1274.07 426.902C1269.9 426.223 1267.04 427.522 1267 429.293C1266.91 433.24 1275.5 433.422 1275.42 437C1275.38 438.774 1272.52 440.072 1268.35 439.394" stroke="#B1382C" stroke-opacity="0.8" stroke-width="3.58326" stroke-miterlimit="2.61313" stroke-linecap="round" stroke-linejoin="round"/>
<path d="M1271.15 426.748V424.87M1271.15 441.441V439.568V441.441Z" stroke="#B1382C" stroke-opacity="0.8" stroke-width="3.58311" stroke-miterlimit="2.61313" stroke-linecap="round" stroke-linejoin="round"/>
<path d="M1271.21 447.71C1279.25 447.71 1285.78 441.191 1285.78 433.145C1285.78 425.102 1279.25 418.58 1271.21 418.58C1263.17 418.58 1256.65 425.102 1256.65 433.145C1256.65 441.191 1263.17 447.71 1271.21 447.71Z" stroke="#B1382C" stroke-opacity="0.8" stroke-width="3.58317" stroke-miterlimit="2.61313" stroke-linecap="round" stroke-linejoin="round"/>
<path d="M1271.37 462.77C1273.04 462.77 1274.64 463.021 1276.16 463.473V474.638H1287.32C1287.78 476.153 1288.03 477.762 1288.03 479.426C1288.03 481.089 1287.78 482.699 1287.32 484.215H1276.16V495.378C1274.64 495.832 1273.04 496.08 1271.37 496.08C1269.7 496.08 1268.1 495.832 1266.58 495.378V484.215H1255.42C1254.96 482.699 1254.72 481.089 1254.72 479.426C1254.72 477.762 1254.96 476.153 1255.42 474.638H1266.58V463.473C1268.1 463.021 1269.7 462.77 1271.37 462.77Z" stroke="#B1382C" stroke-opacity="0.8" stroke-width="3.58324" stroke-miterlimit="2.61313" stroke-linecap="round" stroke-linejoin="round"/>
<path d="M1271.37 504.561C1285.25 504.561 1296.51 493.309 1296.51 479.426C1296.51 465.544 1285.25 454.292 1271.37 454.292C1257.49 454.292 1246.23 465.544 1246.23 479.426C1246.23 493.309 1257.49 504.561 1271.37 504.561V504.561Z" stroke="#B1382C" stroke-opacity="0.8" stroke-width="3.58322" stroke-miterlimit="2.61313" stroke-linecap="round" stroke-linejoin="round"/>
<path d="M1474.57 422.633C1478.43 419.428 1479 418.321 1484.75 417.69C1489.53 416.823 1499.42 417.911 1510.01 417.421C1516.19 417.133 1522.61 416.314 1528.4 414.252M1502.65 474.38C1478.4 472.715 1439.39 471.701 1434.31 490.892L1436.01 472.634L1502.65 474.38ZM1528.4 437.508C1525.63 440.781 1523.99 444.809 1518.27 447.289C1511.92 449.144 1506.31 453.429 1504.28 456.948L1528.4 437.508Z" stroke="#B1382C" stroke-opacity="0.8" stroke-width="3.58322" stroke-miterlimit="2.61313" stroke-linecap="round" stroke-linejoin="round"/>
<path d="M1430.45 434.122L1426.8 473.065C1431.53 455.288 1479.23 463.78 1503.48 465.445L1504.12 447.079M1499.07 426.393C1474.82 424.729 1435.54 414.935 1430.45 434.122L1499.07 426.393Z" stroke="#B1382C" stroke-opacity="0.8" stroke-width="3.58322" stroke-miterlimit="2.61313" stroke-linecap="round" stroke-linejoin="round"/>
<path d="M838.573 674.964C837.693 674.087 837.147 672.88 837.147 671.54C837.147 669.593 837.147 667.645 837.147 665.694C831.485 661.288 828.492 655.4 829.205 648.239C830.975 637.312 840.687 631.66 850.595 629.65M829.205 648.239C826.081 648.56 824.997 641.662 820.351 643.343C817.081 644.524 817.698 650.509 821.054 650.135C825.339 649.667 825.159 641.842 823.7 637.994L829.205 648.239ZM869.156 629.432C871.828 629.903 874.322 630.594 876.5 631.468C878.636 629.011 880.987 627.687 883.257 627.118C886.523 626.306 889.598 627.068 891.548 628.217C893.727 629.516 894.022 631.734 891.479 632.45C888.946 633.165 887.398 634.848 886.024 637.33C887.524 638.725 888.878 640.323 889.93 642.049C891.13 642.049 892.329 642.049 893.529 642.049C894.848 642.049 895.933 643.137 895.933 644.455C895.933 648.305 895.933 652.157 895.933 656.009C895.933 657.329 894.848 658.417 893.529 658.417C892.543 658.417 891.548 658.417 890.56 658.417C888.976 661.465 886.572 664.037 883.744 666.125C883.744 667.933 883.744 669.738 883.744 671.54C883.744 674.205 881.567 676.385 878.895 676.385L869.156 629.432Z" stroke="#B1382C" stroke-opacity="0.8" stroke-width="3.58322" stroke-miterlimit="2.61313" stroke-linecap="round" stroke-linejoin="round"/>
<path d="M859.786 615.354C855.833 615.354 852.628 618.559 852.628 622.511C852.628 626.458 855.833 629.667 859.786 629.667C863.738 629.667 866.941 626.458 866.941 622.511C866.941 618.559 863.738 615.354 859.786 615.354Z" stroke="#B1382C" stroke-opacity="0.8" stroke-width="3.58316" stroke-miterlimit="2.61313" stroke-linecap="round" stroke-linejoin="round"/>
<path d="M873.251 637.371C870.012 635.409 865.182 634.161 859.784 634.161C854.386 634.161 849.552 635.409 846.315 637.371M882.444 642.473H880.834H882.444Z" stroke="#B1382C" stroke-opacity="0.8" stroke-width="3.58284" stroke-miterlimit="2.61313" stroke-linecap="round" stroke-linejoin="round"/>
<path d="M809 712.876C815.975 707.836 822.779 704.308 828.037 698.06C831.417 694.127 831.539 685.398 844.443 680.011C852.239 676.754 857.855 673.912 863.794 671.131C867.54 669.376 871.007 668.144 873.361 671.353C875.528 674.314 873.702 677.126 870.932 679.307C865.355 683.336 862.163 685.786 855.362 689.674C865.535 690.289 870.961 690.327 885.092 681.307C887.781 679.59 897.263 669.943 899.965 667.269C901.736 665.512 904.51 664.668 906.451 666.56C908.238 668.298 908.303 671.039 906.722 672.999C903.458 677.038 896.489 685.885 893.579 688.729C889.514 692.71 878.213 701.856 871.573 703.317C861.128 705.607 852.327 704.533 841.615 714" stroke="#B1382C" stroke-opacity="0.8" stroke-width="3.58322" stroke-miterlimit="2.61313" stroke-linecap="round" stroke-linejoin="round"/>
<path d="M1078.94 622.577H1095.06V637.843H1018.05V622.577H1034.17M1030.91 691.957H1023.32V637.843L1030.91 691.957ZM1089.79 637.843V661.886V637.843ZM1042.14 622.577H1070.97H1042.14Z" stroke="#B1382C" stroke-opacity="0.8" stroke-width="3.58342" stroke-miterlimit="2.61313" stroke-linecap="round" stroke-linejoin="round"/>
<path d="M1070.97 617.847H1078.93V630.564H1070.97V617.847ZM1034.17 617.847H1042.14V630.564H1034.17V617.847Z" stroke="#B1382C" stroke-opacity="0.8" stroke-width="3.58324" stroke-miterlimit="2.61313" stroke-linecap="round" stroke-linejoin="round"/>
<path d="M1044.77 683.675C1048.82 682.104 1052.05 678.875 1053.62 674.828" stroke="#B1382C" stroke-opacity="0.8" stroke-width="3.58315" stroke-miterlimit="2.61313" stroke-linecap="round" stroke-linejoin="round"/>
<path d="M1111.59 669.22H1039.17V711.503H1111.46" stroke="#B1382C" stroke-opacity="0.8" stroke-width="3.58322" stroke-miterlimit="2.61313" stroke-linecap="round" stroke-linejoin="round"/>
<path d="M1044.77 697.045C1048.82 698.62 1052.05 701.848 1053.62 705.899" stroke="#B1382C" stroke-opacity="0.8" stroke-width="3.58315" stroke-miterlimit="2.61313" stroke-linecap="round" stroke-linejoin="round"/>
<path d="M1088.19 684.117C1084.02 683.443 1081.16 684.734 1081.12 686.512C1081.04 690.455 1089.62 690.637 1089.54 694.219C1089.51 695.993 1086.64 697.289 1082.48 696.61" stroke="#B1382C" stroke-opacity="0.8" stroke-width="3.58326" stroke-miterlimit="2.61313" stroke-linecap="round" stroke-linejoin="round"/>
<path d="M1085.27 683.958V682.088M1085.27 698.661V696.783V698.661Z" stroke="#B1382C" stroke-opacity="0.8" stroke-width="3.58311" stroke-miterlimit="2.61313" stroke-linecap="round" stroke-linejoin="round"/>
<path d="M1085.33 704.928C1093.37 704.928 1099.9 698.406 1099.9 690.363C1099.9 682.321 1093.37 675.799 1085.33 675.799C1077.29 675.799 1070.77 682.321 1070.77 690.363C1070.77 698.406 1077.29 704.928 1085.33 704.928V704.928Z" stroke="#B1382C" stroke-opacity="0.8" stroke-width="3.58317" stroke-miterlimit="2.61313" stroke-linecap="round" stroke-linejoin="round"/>
<path d="M1288.53 673.607L1288.34 687.404L1297.41 690.762L1288.53 673.607ZM1288.34 711.861C1301.84 711.861 1312.78 700.903 1312.78 687.404C1312.78 673.905 1301.84 662.953 1288.34 662.953C1274.83 662.953 1263.88 673.905 1263.88 687.404C1263.88 700.903 1274.83 711.861 1288.34 711.861V711.861Z" stroke="#B1382C" stroke-opacity="0.8" stroke-width="3.58316" stroke-miterlimit="2.61313" stroke-linecap="round" stroke-linejoin="round"/>
<path d="M1235.97 627.044C1240.23 626.004 1244.26 623.873 1247.05 621.198" stroke="#B1382C" stroke-opacity="0.8" stroke-width="3.58323" stroke-miterlimit="2.61313" stroke-linecap="round" stroke-linejoin="round"/>
<path d="M1310.84 627.044C1307.62 626.004 1305.7 623.873 1305.58 621.198" stroke="#B1382C" stroke-opacity="0.8" stroke-width="3.58323" stroke-miterlimit="2.61313" stroke-linecap="round" stroke-linejoin="round"/>
<path d="M1306.87 645.425L1313.82 631.462L1320.76 617.493H1235.54L1228.6 631.462L1221.66 645.425C1250.07 645.425 1278.47 645.425 1306.87 645.425V645.425Z" stroke="#B1382C" stroke-opacity="0.8" stroke-width="3.58325" stroke-miterlimit="2.61313" stroke-linecap="round" stroke-linejoin="round"/>
<path d="M1231.58 635.877C1234.8 636.913 1236.72 639.046 1236.84 641.721" stroke="#B1382C" stroke-opacity="0.8" stroke-width="3.58323" stroke-miterlimit="2.61313" stroke-linecap="round" stroke-linejoin="round"/>
<path d="M1306.45 635.877C1302.19 636.913 1298.16 639.046 1295.38 641.721" stroke="#B1382C" stroke-opacity="0.8" stroke-width="3.58323" stroke-miterlimit="2.61313" stroke-linecap="round" stroke-linejoin="round"/>
<path d="M1275.9 627.335C1272.27 626.89 1269.21 627.742 1268.59 628.915C1267.21 631.523 1275.08 631.642 1273.83 634.006C1273.21 635.18 1270.15 636.035 1266.52 635.589" stroke="#B1382C" stroke-opacity="0.8" stroke-width="3.58325" stroke-miterlimit="2.61313" stroke-linecap="round" stroke-linejoin="round"/>
<path d="M1273.25 627.229L1273.86 625.994M1268.43 636.939L1269.04 635.7L1268.43 636.939Z" stroke="#B1382C" stroke-opacity="0.8" stroke-width="3.58321" stroke-miterlimit="2.61313" stroke-linecap="round" stroke-linejoin="round"/>
<path d="M1266.43 641.078C1273.85 641.078 1282.01 636.773 1284.65 631.461C1287.29 626.148 1283.41 621.839 1275.99 621.839C1268.57 621.839 1260.41 626.148 1257.77 631.461C1255.13 636.773 1259.01 641.078 1266.43 641.078Z" stroke="#B1382C" stroke-opacity="0.8" stroke-width="3.58322" stroke-miterlimit="2.61313" stroke-linecap="round" stroke-linejoin="round"/>
<path d="M1221.66 654.725H1306.88" stroke="#B1382C" stroke-opacity="0.8" stroke-width="3.58313" stroke-miterlimit="2.61313" stroke-linecap="round" stroke-linejoin="round"/>
<path d="M1221.66 691.913H1257.86M1221.66 682.612H1257.9H1221.66ZM1221.66 673.319H1260.93H1221.66ZM1221.66 664.019H1268.29H1221.66Z" stroke="#B1382C" stroke-opacity="0.8" stroke-width="3.58322" stroke-miterlimit="2.61313" stroke-linecap="round" stroke-linejoin="round"/>
<path d="M1513.27 645.978L1520.21 632.013L1527.15 618.05H1441.94L1434.99 632.013L1428.05 645.978C1456.46 645.978 1484.86 645.978 1513.27 645.978Z" stroke="#B1382C" stroke-opacity="0.8" stroke-width="3.58325" stroke-miterlimit="2.61313" stroke-linecap="round" stroke-linejoin="round"/>
<path d="M1437.97 636.433C1441.2 637.471 1443.11 639.602 1443.23 642.277" stroke="#B1382C" stroke-opacity="0.8" stroke-width="3.58323" stroke-miterlimit="2.61313" stroke-linecap="round" stroke-linejoin="round"/>
<path d="M1428.05 655.279H1474.53" stroke="#B1382C" stroke-opacity="0.8" stroke-width="3.58313" stroke-miterlimit="2.61313" stroke-linecap="round" stroke-linejoin="round"/>
<path d="M1428.05 692.467H1467.29M1428.05 683.169H1467.33H1428.05ZM1428.05 673.872H1467.33H1428.05ZM1428.05 664.576H1466.85H1428.05Z" stroke="#B1382C" stroke-opacity="0.8" stroke-width="3.58322" stroke-miterlimit="2.61313" stroke-linecap="round" stroke-linejoin="round"/>
<path d="M1513.27 232.862L1520.21 218.894L1527.15 204.927L1484.54 204.93H1441.93L1434.99 218.894L1428.05 232.862C1456.46 232.862 1484.86 232.862 1513.27 232.862Z" stroke="#B1382C" stroke-opacity="0.8" stroke-width="3.58325" stroke-miterlimit="2.61313" stroke-linecap="round" stroke-linejoin="round"/>
<path d="M1437.97 223.31C1441.2 224.347 1443.11 226.483 1443.24 229.158" stroke="#B1382C" stroke-opacity="0.8" stroke-width="3.58323" stroke-miterlimit="2.61313" stroke-linecap="round" stroke-linejoin="round"/>
<path d="M1428.05 242.159H1513.27" stroke="#B1382C" stroke-opacity="0.8" stroke-width="3.58313" stroke-miterlimit="2.61313" stroke-linecap="round" stroke-linejoin="round"/>
<path d="M1428.05 251.456H1435.27" stroke="#B1382C" stroke-opacity="0.8" stroke-width="3.58321" stroke-miterlimit="2.61313" stroke-linecap="round" stroke-linejoin="round"/>
<path d="M1428.05 260.753H1435.27" stroke="#B1382C" stroke-opacity="0.8" stroke-width="3.58322" stroke-miterlimit="2.61313" stroke-linecap="round" stroke-linejoin="round"/>
<path d="M1428.05 270.05H1435.27" stroke="#B1382C" stroke-opacity="0.8" stroke-width="3.58321" stroke-miterlimit="2.61313" stroke-linecap="round" stroke-linejoin="round"/>
<path d="M1477.32 265.183C1475.51 267.489 1467.84 269.219 1458.67 269.219C1449.48 269.219 1441.82 267.489 1440.01 265.183H1477.32ZM1458.67 251.101C1469.19 251.101 1477.72 253.374 1477.72 256.182C1477.72 258.989 1469.19 261.265 1458.67 261.265C1448.14 261.265 1439.6 258.989 1439.6 256.182C1439.6 253.374 1448.14 251.101 1458.67 251.101ZM1522.88 294.347C1521.08 296.649 1513.41 298.383 1504.23 298.383C1495.05 298.383 1487.38 296.649 1485.57 294.347H1522.88ZM1504.23 266.574C1514.75 266.574 1523.29 268.851 1523.29 271.654C1523.29 274.466 1514.75 276.742 1504.23 276.742C1493.7 276.742 1485.17 274.466 1485.17 271.654C1485.17 268.851 1493.7 266.574 1504.23 266.574Z" stroke="#B1382C" stroke-opacity="0.8" stroke-width="3.58322" stroke-miterlimit="2.61313" stroke-linecap="round" stroke-linejoin="round"/>
<path d="M1477.32 272.592C1475.51 274.897 1467.85 276.628 1458.67 276.628C1449.48 276.628 1441.82 274.897 1440.01 272.592M1522.88 279.527C1521.08 281.833 1513.41 283.567 1504.23 283.567C1495.05 283.567 1487.38 281.833 1485.57 279.527H1522.88ZM1522.88 286.939C1521.08 289.245 1513.41 290.975 1504.23 290.975C1495.05 290.975 1487.38 289.245 1485.57 286.939H1522.88ZM1477.32 294.816C1475.51 297.121 1467.85 298.855 1458.67 298.855C1449.48 298.855 1441.82 297.121 1440.01 294.816H1477.32ZM1477.32 287.408C1475.51 289.713 1467.85 291.447 1458.67 291.447C1449.48 291.447 1441.82 289.713 1440.01 287.408H1477.32ZM1477.32 280C1475.51 282.305 1467.85 284.039 1458.67 284.039C1449.48 284.039 1441.82 282.305 1440.01 280H1477.32Z" stroke="#B1382C" stroke-opacity="0.8" stroke-width="3.58322" stroke-miterlimit="2.61313" stroke-linecap="round" stroke-linejoin="round"/>
<path d="M6.96875 14.6646C11.2085 13.0191 14.5879 9.63978 16.2351 5.40082" stroke="#B1382C" stroke-opacity="0.8" stroke-width="3.58314" stroke-miterlimit="2.61313" stroke-linecap="round" stroke-linejoin="round"/>
<path d="M91.8869 14.6646C87.6443 13.0191 84.2664 9.63978 82.6221 5.40082" stroke="#B1382C" stroke-opacity="0.8" stroke-width="3.58314" stroke-miterlimit="2.61313" stroke-linecap="round" stroke-linejoin="round"/>
<path d="M79.5501 43.795H97.7544V-0.468771H1.09863V21.6631V43.795H35.0946" stroke="#B1382C" stroke-opacity="0.8" stroke-width="3.58331" stroke-miterlimit="2.61313" stroke-linecap="round" stroke-linejoin="round"/>
<path d="M6.96875 28.658C11.2085 30.3071 14.5879 33.6828 16.2351 37.9254" stroke="#B1382C" stroke-opacity="0.8" stroke-width="3.58314" stroke-miterlimit="2.61313" stroke-linecap="round" stroke-linejoin="round"/>
<path d="M91.8869 28.658C87.6443 30.3071 84.2664 33.6828 82.6221 37.9254" stroke="#B1382C" stroke-opacity="0.8" stroke-width="3.58314" stroke-miterlimit="2.61313" stroke-linecap="round" stroke-linejoin="round"/>
<path d="M52.418 15.1257C48.057 14.4174 45.0594 15.7714 45.0222 17.6307C44.9314 21.7627 53.9181 21.9472 53.8388 25.6992C53.8 27.5549 50.8025 28.9125 46.4388 28.2004" stroke="#B1382C" stroke-opacity="0.8" stroke-width="3.58327" stroke-miterlimit="2.61313" stroke-linecap="round" stroke-linejoin="round"/>
<path d="M49.3584 14.9597V12.997M49.3584 30.3439V28.3812V30.3439Z" stroke="#B1382C" stroke-opacity="0.8" stroke-width="3.58318" stroke-miterlimit="2.61313" stroke-linecap="round" stroke-linejoin="round"/>
<path d="M49.4257 36.9109C57.8461 36.9109 64.6727 30.082 64.6727 21.6631C64.6727 13.2442 57.8461 6.41544 49.4257 6.41544C41.0068 6.41544 34.1787 13.2442 34.1787 21.6631C34.1787 30.082 41.0068 36.9109 49.4257 36.9109Z" stroke="#B1382C" stroke-opacity="0.8" stroke-width="3.58322" stroke-miterlimit="2.61313" stroke-linecap="round" stroke-linejoin="round"/>
<path d="M49.425 41.8877L62.2654 53.0956V47.2186H72.2464V61.806L81.0906 69.5202H69.8657V95.4668H55.6709V81.8276H43.182V95.4668H28.9871V69.5202H17.7607L49.425 41.8877Z" stroke="#B1382C" stroke-opacity="0.8" stroke-width="3.58465" stroke-miterlimit="2.61313" stroke-linecap="round" stroke-linejoin="round"/>
<path d="M237.708 88.3686V95.998H226.775V87.1696M246.761 54.2577L254.288 46.7279L246.761 54.2577ZM257.35 54.2577L264.878 46.7279L257.35 54.2577ZM279.218 52.3024C280.839 49.897 287.376 47.997 288.053 50.4172C289.267 55.6633 285.017 57.6186 282.392 58.3048L279.218 52.3024ZM232.421 52.3024C230.797 49.897 224.262 47.997 223.585 50.4172C222.373 55.6633 226.621 57.6186 229.245 58.3048L232.421 52.3024ZM255.819 88.5383C248.817 88.601 236.706 88.601 232.592 87.9738C226.674 87.07 222.396 85.0925 222.396 81.7464C222.396 78.4039 222.315 75.5152 222.425 72.2724C222.425 66.7717 226.931 60.19 230.991 56.6077C235.485 59.7916 246.742 61.603 255.819 61.7801C264.894 61.603 276.15 59.7916 280.644 56.6077C284.708 60.19 289.212 66.7717 289.212 72.2724C289.321 75.5152 289.242 78.4039 289.242 81.7464C289.242 85.0925 284.06 87.2102 279.044 87.9738C274.028 88.7375 262.819 88.601 255.819 88.5383ZM280.644 56.6077C279.124 52.8078 275.334 45.0198 274.374 43.4777C271.897 39.5006 261.812 39.5523 255.819 39.6224C249.824 39.5523 239.739 39.5006 237.264 43.4777C236.305 45.0198 232.513 52.8078 230.991 56.6077H280.644ZM284.837 73.903C282.316 73.3348 273.851 77.109 276.587 79.78L284.837 73.903ZM271.12 76.6884C270.829 82.3772 263.583 82.9638 255.819 83.27C248.055 82.9638 240.806 82.3772 240.516 76.6884L255.819 76.8397L271.12 76.6884ZM273.929 88.3686V95.998H284.864V87.1696L273.929 88.3686ZM226.803 73.903C229.32 73.3348 237.787 77.109 235.05 79.78L226.803 73.903Z" stroke="#B1382C" stroke-opacity="0.8" stroke-width="3.5833" stroke-miterlimit="2.61313" stroke-linecap="round" stroke-linejoin="round"/>
<path d="M215.262 13.4582C219.311 11.8829 222.54 8.65478 224.11 4.60766" stroke="#B1382C" stroke-opacity="0.8" stroke-width="3.58315" stroke-miterlimit="2.61313" stroke-linecap="round" stroke-linejoin="round"/>
<path d="M296.381 13.4582C292.327 11.8829 289.103 8.65478 287.528 4.60766" stroke="#B1382C" stroke-opacity="0.8" stroke-width="3.58315" stroke-miterlimit="2.61313" stroke-linecap="round" stroke-linejoin="round"/>
<path d="M282.268 41.2827H301.987V-0.999969H209.653V20.1432V41.2827H229.215" stroke="#B1382C" stroke-opacity="0.8" stroke-width="3.58322" stroke-miterlimit="2.61313" stroke-linecap="round" stroke-linejoin="round"/>
<path d="M215.262 26.8244C219.311 28.3997 222.54 31.6278 224.11 35.6786" stroke="#B1382C" stroke-opacity="0.8" stroke-width="3.58315" stroke-miterlimit="2.61313" stroke-linecap="round" stroke-linejoin="round"/>
<path d="M296.381 26.8244C292.327 28.3997 289.103 31.6278 287.528 35.6786" stroke="#B1382C" stroke-opacity="0.8" stroke-width="3.58315" stroke-miterlimit="2.61313" stroke-linecap="round" stroke-linejoin="round"/>
<path d="M258.673 13.8972C254.506 13.2221 251.641 14.5133 251.605 16.2916C251.522 20.2354 260.105 20.4162 260.028 23.9984C259.991 25.773 257.129 27.0679 252.96 26.3891" stroke="#B1382C" stroke-opacity="0.8" stroke-width="3.58326" stroke-miterlimit="2.61313" stroke-linecap="round" stroke-linejoin="round"/>
<path d="M255.756 13.7385V11.8644M255.756 28.4365V26.5624V28.4365Z" stroke="#B1382C" stroke-opacity="0.8" stroke-width="3.58311" stroke-miterlimit="2.61313" stroke-linecap="round" stroke-linejoin="round"/>
<path d="M255.821 34.7083C263.862 34.7083 270.385 28.182 270.385 20.1431C270.385 12.1005 263.862 5.57792 255.821 5.57792C247.775 5.57792 241.254 12.1005 241.254 20.1431C241.254 28.182 247.775 34.7083 255.821 34.7083Z" stroke="#B1382C" stroke-opacity="0.8" stroke-width="3.58317" stroke-miterlimit="2.61313" stroke-linecap="round" stroke-linejoin="round"/>
<path d="M440.13 27.9311C438.533 28.2595 437.326 29.6725 437.326 31.3696C437.326 33.3064 438.901 34.878 440.838 34.878C442.923 34.878 446.571 34.9481 448.66 34.9481C450.593 34.9481 452.168 33.3765 452.168 31.4396C452.212 29.1486 450.412 28.0492 448.564 28.0234" stroke="#B1382C" stroke-opacity="0.8" stroke-width="3.58321" stroke-miterlimit="2.61313" stroke-linecap="round" stroke-linejoin="round"/>
<path d="M438.885 20.0509C436.52 20.0509 434.388 17.4426 434.388 15.0814C434.388 12.7166 436.306 10.7945 438.675 10.7945M440.132 27.9311C434.24 28.0381 434.332 20.0509 438.885 20.0509L440.132 27.9311Z" stroke="#B1382C" stroke-opacity="0.8" stroke-width="3.58318" stroke-miterlimit="2.61313" stroke-linecap="round" stroke-linejoin="round"/>
<path d="M445.781 10.6175C447.01 13.8493 448.006 16.465 449.231 19.6931C449.972 21.6447 452.153 22.6223 454.101 21.8845C455.809 21.2352 456.772 19.4828 456.491 17.7488C455.543 15.2623 454.599 12.7794 453.654 10.2928" stroke="#B1382C" stroke-opacity="0.8" stroke-width="3.5832" stroke-miterlimit="2.61313" stroke-linecap="round" stroke-linejoin="round"/>
<path d="M439.188 10.7945C436.823 10.7945 434.904 8.87978 434.904 6.51496C434.904 4.14645 436.823 2.22804 439.188 2.22804C439.634 2.22804 440.077 2.22804 440.527 2.22804C444.36 2.22804 448.197 2.22804 452.03 2.22804" stroke="#B1382C" stroke-opacity="0.8" stroke-width="3.58318" stroke-miterlimit="2.61313" stroke-linecap="round" stroke-linejoin="round"/>
<path d="M445.778 10.6176C445.269 9.09389 445.778 7.34885 447.151 6.35644C449.951 4.33841 449.213 4.86966 452.017 2.84795" stroke="#B1382C" stroke-opacity="0.8" stroke-width="3.5832" stroke-miterlimit="2.61313" stroke-linecap="round" stroke-linejoin="round"/>
<path d="M452.02 2.84796C454.879 0.91479 453.562 1.981 456.422 0.0478257C458.152 -1.11798 460.498 -0.664202 461.668 1.06237C462.852 2.74099 463.586 3.62641 464.77 5.30502C465.619 6.81024 467.323 8.41874 470.36 8.50728L502.818 8.06089M450.821 34.203C457.835 34.203 460.852 35.1917 463.94 31.9452C466.239 29.525 466.327 28.7724 470.36 28.7429L502.711 29.5435L450.821 34.203Z" stroke="#B1382C" stroke-opacity="0.8" stroke-width="3.5832" stroke-miterlimit="2.61313" stroke-linecap="round" stroke-linejoin="round"/>
<path d="M459.329 40.3271C462.158 46.3295 479.029 58.6775 479.937 69.7711C481.084 83.794 472.278 95.5959 450.821 95.5959C429.357 95.5959 420.551 83.794 421.702 69.7711C422.606 58.6775 439.48 46.3295 442.31 40.3271" stroke="#B1382C" stroke-opacity="0.8" stroke-width="3.58322" stroke-miterlimit="2.61313" stroke-linecap="round" stroke-linejoin="round"/>
<path d="M454.603 62.5622C449.383 61.7137 445.797 63.3333 445.753 65.5579C445.646 70.5015 456.396 70.7266 456.304 75.2127C456.256 77.4374 452.674 79.0606 447.453 78.2084" stroke="#B1382C" stroke-opacity="0.8" stroke-width="3.58316" stroke-miterlimit="2.61313" stroke-linecap="round" stroke-linejoin="round"/>
<path d="M450.948 62.363V60.013M450.948 80.7724V78.426V80.7724Z" stroke="#B1382C" stroke-opacity="0.8" stroke-width="3.5832" stroke-miterlimit="2.61313" stroke-linecap="round" stroke-linejoin="round"/>
<path d="M451.03 87.0258C460.216 87.0258 467.669 79.5735 467.669 70.3835C467.669 61.1972 460.216 53.7449 451.03 53.7449C441.84 53.7449 434.388 61.1972 434.388 70.3835C434.388 79.5735 441.84 87.0258 451.03 87.0258Z" stroke="#B1382C" stroke-opacity="0.8" stroke-width="3.58326" stroke-miterlimit="2.61313" stroke-linecap="round" stroke-linejoin="round"/>
<path d="M651.968 65.0487L627.306 56.7848L669.426 42.6771L711.55 56.7848L669.426 70.8962L659.723 67.646M669.426 56.7848L651.832 65.0008L651.968 95.0572L669.426 56.7848ZM651.968 82.9601C649.01 82.1374 645.911 81.7537 642.771 81.8422V61.9682L651.968 82.9601ZM696.081 61.9682V81.8422C685.5 81.536 675.421 86.6641 669.426 95.3782C666.677 91.3864 663.077 88.1472 658.963 85.8377L696.081 61.9682Z" stroke="#B1382C" stroke-opacity="0.8" stroke-width="3.58323" stroke-miterlimit="2.61313" stroke-linecap="round" stroke-linejoin="round"/>
<path d="M628.043 14.0743C632.094 12.5027 635.318 9.27462 636.894 5.22381" stroke="#B1382C" stroke-opacity="0.8" stroke-width="3.58315" stroke-miterlimit="2.61313" stroke-linecap="round" stroke-linejoin="round"/>
<path d="M709.159 14.0743C705.109 12.5027 701.884 9.27462 700.312 5.22381" stroke="#B1382C" stroke-opacity="0.8" stroke-width="3.58315" stroke-miterlimit="2.61313" stroke-linecap="round" stroke-linejoin="round"/>
<path d="M687.006 41.9024H714.767V-0.383914H622.433V20.7593V41.9024H653.636" stroke="#B1382C" stroke-opacity="0.8" stroke-width="3.58322" stroke-miterlimit="2.61313" stroke-linecap="round" stroke-linejoin="round"/>
<path d="M628.043 27.4441C632.094 29.0195 635.318 32.2439 636.894 36.2947" stroke="#B1382C" stroke-opacity="0.8" stroke-width="3.58315" stroke-miterlimit="2.61313" stroke-linecap="round" stroke-linejoin="round"/>
<path d="M709.159 27.4441C705.109 29.0195 701.884 32.2439 700.312 36.2947" stroke="#B1382C" stroke-opacity="0.8" stroke-width="3.58315" stroke-miterlimit="2.61313" stroke-linecap="round" stroke-linejoin="round"/>
<path d="M671.459 14.5133C667.29 13.8381 664.431 15.1294 664.39 16.9076C664.309 20.8551 672.894 21.0322 672.813 24.6145C672.78 26.389 669.913 27.6839 665.748 27.0088" stroke="#B1382C" stroke-opacity="0.8" stroke-width="3.58326" stroke-miterlimit="2.61313" stroke-linecap="round" stroke-linejoin="round"/>
<path d="M668.539 14.3584V12.4805M668.539 29.0564V27.1786V29.0564Z" stroke="#B1382C" stroke-opacity="0.8" stroke-width="3.58311" stroke-miterlimit="2.61313" stroke-linecap="round" stroke-linejoin="round"/>
<path d="M668.602 35.3244C676.648 35.3244 683.167 28.8018 683.167 20.7592C683.167 12.7166 676.648 6.19401 668.602 6.19401C660.559 6.19401 654.04 12.7166 654.04 20.7592C654.04 28.8018 660.559 35.3244 668.602 35.3244Z" stroke="#B1382C" stroke-opacity="0.8" stroke-width="3.58317" stroke-miterlimit="2.61313" stroke-linecap="round" stroke-linejoin="round"/>
<path d="M2.39602 275.639C6.45421 273.728 10.2905 271.673 13.7837 268.689C17.7583 265.365 19.3075 256.772 32.9189 253.57C41.1449 251.637 47.1513 249.748 53.4663 247.977C57.4466 246.863 61.0713 246.21 62.8654 249.766C64.5197 253.042 62.2585 255.514 59.1687 257.211C53.0066 260.273 49.4557 262.166 42.1133 264.892C52.047 267.165 57.3935 268.087 72.8135 261.502C75.7461 260.251 86.677 252.282 89.7826 250.091C91.8147 248.649 94.6897 248.265 96.2964 250.453C97.7736 252.456 97.3873 255.175 95.5109 256.846C91.6272 260.303 83.3017 267.884 79.9655 270.216C75.3063 273.477 62.6606 280.649 55.8717 281C45.1927 281.553 36.686 279.052 24.5676 286.641L1.65527 301.316" stroke="#B1382C" stroke-opacity="0.8" stroke-width="3.58322" stroke-miterlimit="2.61313" stroke-linecap="round" stroke-linejoin="round"/>
<path d="M15.9238 219.865C19.6794 218.408 22.6697 215.419 24.1267 211.664" stroke="#B1382C" stroke-opacity="0.8" stroke-width="3.58319" stroke-miterlimit="2.61313" stroke-linecap="round" stroke-linejoin="round"/>
<path d="M91.1103 219.865C87.3561 218.408 84.3656 215.419 82.9102 211.664" stroke="#B1382C" stroke-opacity="0.8" stroke-width="3.58319" stroke-miterlimit="2.61313" stroke-linecap="round" stroke-linejoin="round"/>
<path d="M96.3063 244.174V206.466H10.7256V245.657H40.8275" stroke="#B1382C" stroke-opacity="0.8" stroke-width="3.58314" stroke-miterlimit="2.61313" stroke-linecap="round" stroke-linejoin="round"/>
<path d="M15.9238 232.257C19.6794 233.715 22.6697 236.707 24.1267 240.458" stroke="#B1382C" stroke-opacity="0.8" stroke-width="3.58319" stroke-miterlimit="2.61313" stroke-linecap="round" stroke-linejoin="round"/>
<path d="M91.1103 232.257C87.3561 233.715 84.3656 236.707 82.9102 240.458" stroke="#B1382C" stroke-opacity="0.8" stroke-width="3.58319" stroke-miterlimit="2.61313" stroke-linecap="round" stroke-linejoin="round"/>
<path d="M56.1623 220.274C52.2985 219.647 49.6471 220.846 49.6109 222.492C49.5331 226.148 57.4882 226.314 57.4203 229.634C57.3842 231.28 54.7312 232.482 50.8675 231.855" stroke="#B1382C" stroke-opacity="0.8" stroke-width="3.58319" stroke-miterlimit="2.61313" stroke-linecap="round" stroke-linejoin="round"/>
<path d="M53.4561 220.127V218.389M53.4561 233.751V232.014V233.751Z" stroke="#B1382C" stroke-opacity="0.8" stroke-width="3.58318" stroke-miterlimit="2.61313" stroke-linecap="round" stroke-linejoin="round"/>
<path d="M53.5151 239.562C60.9685 239.562 67.0141 233.515 67.0141 226.063C67.0141 218.607 60.9685 212.564 53.5151 212.564C46.0602 212.564 40.0146 218.607 40.0146 226.063C40.0146 233.515 46.0602 239.562 53.5151 239.562Z" stroke="#B1382C" stroke-opacity="0.8" stroke-width="3.58319" stroke-miterlimit="2.61313" stroke-linecap="round" stroke-linejoin="round"/>
<path d="M70.4658 245.657H82.7559" stroke="#B1382C" stroke-opacity="0.8" stroke-width="3.58322" stroke-miterlimit="2.61313" stroke-linecap="round" stroke-linejoin="round"/>
<path d="M259.025 259.949C254.345 259.189 251.132 260.639 251.089 262.635C250.993 267.062 260.635 267.268 260.547 271.286C260.505 273.278 257.291 274.735 252.613 273.972" stroke="#B1382C" stroke-opacity="0.8" stroke-width="3.58326" stroke-miterlimit="2.61313" stroke-linecap="round" stroke-linejoin="round"/>
<path d="M255.747 259.772V257.665M255.747 276.27V274.167V276.27Z" stroke="#B1382C" stroke-opacity="0.8" stroke-width="3.5831" stroke-miterlimit="2.61313" stroke-linecap="round" stroke-linejoin="round"/>
<path d="M255.819 283.313C264.848 283.313 272.172 275.986 272.172 266.958C272.172 257.927 264.848 250.604 255.819 250.604C246.789 250.604 239.464 257.927 239.464 266.958C239.464 275.986 246.789 283.313 255.819 283.313Z" stroke="#B1382C" stroke-opacity="0.8" stroke-width="3.58322" stroke-miterlimit="2.61313" stroke-linecap="round" stroke-linejoin="round"/>
<path d="M238.407 254.131H220.235L206.6 229.398L238.407 254.131ZM305.042 229.398L291.405 254.131H273.233L305.042 229.398ZM206.6 229.398H305.042V294.554H206.6V229.398V229.398Z" stroke="#B1382C" stroke-opacity="0.8" stroke-width="3.58329" stroke-miterlimit="2.61313" stroke-linecap="round" stroke-linejoin="round"/>
<path d="M239.889 229.398H247.245V220.765H264.393V229.398H271.752V213.232H239.889V229.398V229.398Z" stroke="#B1382C" stroke-opacity="0.8" stroke-width="3.58322" stroke-miterlimit="2.61313" stroke-linecap="round" stroke-linejoin="round"/>
<path d="M434.328 251.165H444.574V257.377H440.541V283.029H444.574V289.242H430.3V283.029H434.328V257.377H430.3V251.165H434.328ZM459.102 257.377H455.073V251.165H469.347V257.377H465.315V283.029H469.347V289.242H455.073V283.029H459.102V257.377ZM483.875 257.377H479.847V251.165H494.117V257.377H490.088V283.029H494.117V289.242H479.847V283.029H483.875V257.377Z" stroke="#B1382C" stroke-opacity="0.8" stroke-width="3.58319" stroke-miterlimit="2.61313" stroke-linecap="round" stroke-linejoin="round"/>
<path d="M425.542 289.242H498.877" stroke="#B1382C" stroke-opacity="0.8" stroke-width="3.58326" stroke-miterlimit="2.61313" stroke-linecap="round" stroke-linejoin="round"/>
<path d="M423.706 251.165H500.716" stroke="#B1382C" stroke-opacity="0.8" stroke-width="3.58332" stroke-miterlimit="2.61313" stroke-linecap="round" stroke-linejoin="round"/>
<path d="M462.209 206.163L507.064 243.388H417.355L462.209 206.163V206.163Z" stroke="#B1382C" stroke-opacity="0.8" stroke-width="3.58311" stroke-miterlimit="2.61313" stroke-linecap="round" stroke-linejoin="round"/>
<path d="M417.608 295.428H506.814M511.776 301.619H412.646H511.776Z" stroke="#B1382C" stroke-opacity="0.8" stroke-width="3.58326" stroke-miterlimit="2.61313" stroke-linecap="round" stroke-linejoin="round"/>
<path d="M43.9927 464.803C43.4208 475.822 37.0366 480.117 32.0316 480.117C26.3074 480.117 21.5301 474.062 20.4248 464.803" stroke="#B1382C" stroke-opacity="0.8" stroke-width="3.58321" stroke-miterlimit="2.61313" stroke-linecap="round" stroke-linejoin="round"/>
<path d="M45.5904 466.045C48.7392 455.233 41.5783 444.209 30.2755 445.383C20.0277 446.452 16.8414 456.711 18.4972 465.714C21.3016 463.681 24.5744 458.775 25.2632 454.625C27.203 455.738 29.5217 456.42 30.9975 456.568C38.0488 457.273 44.3279 458.054 45.5904 466.045Z" stroke="#B1382C" stroke-opacity="0.8" stroke-width="3.58321" stroke-miterlimit="2.61313" stroke-linecap="round" stroke-linejoin="round"/>
<path d="M25.6201 482.478C25.3809 483.746 24.9183 484.758 24.0594 485.038C20.6526 486.159 8.73307 486.691 5.5194 490.992C1.75087 495.633 1.03464 500.433 0.736328 505.643M38.7979 482.478C39.0399 483.746 39.501 484.758 40.3614 485.038C43.7651 486.159 55.6877 486.691 58.8999 490.992C62.6685 495.633 63.3831 500.433 63.6845 505.643L38.7979 482.478Z" stroke="#B1382C" stroke-opacity="0.8" stroke-width="3.58328" stroke-miterlimit="2.61313" stroke-linecap="round" stroke-linejoin="round"/>
<path d="M65.9243 444.973C62.653 444.441 60.4033 445.456 60.3716 446.851C60.3066 449.954 67.051 450.094 66.9905 452.908C66.9587 454.299 64.7123 455.318 61.4381 454.783" stroke="#B1382C" stroke-opacity="0.8" stroke-width="3.58321" stroke-miterlimit="2.61313" stroke-linecap="round" stroke-linejoin="round"/>
<path d="M63.6318 444.848V443.379M63.6318 456.394V454.919V456.394Z" stroke="#B1382C" stroke-opacity="0.8" stroke-width="3.58315" stroke-miterlimit="2.61313" stroke-linecap="round" stroke-linejoin="round"/>
<path d="M63.6819 461.32C69.9968 461.32 75.1212 456.195 75.1212 449.876C75.1212 443.56 69.9968 438.439 63.6819 438.439C57.3625 438.439 52.2393 443.56 52.2393 449.876C52.2393 456.195 57.3625 461.32 63.6819 461.32Z" stroke="#B1382C" stroke-opacity="0.8" stroke-width="3.58319" stroke-miterlimit="2.61313" stroke-linecap="round" stroke-linejoin="round"/>
<path d="M29.2432 438.705V422.542H98.1184V468.126H51.8945M51.4983 439.844H38.7832L29.2432 422.542L51.4983 439.844ZM98.1184 422.542L88.5783 439.844H75.8647L98.1184 422.542Z" stroke="#B1382C" stroke-opacity="0.8" stroke-width="3.58321" stroke-miterlimit="2.61313" stroke-linecap="round" stroke-linejoin="round"/>
<path d="M54.1416 422.542V412.936H73.2177V422.542" stroke="#B1382C" stroke-opacity="0.8" stroke-width="3.58327" stroke-miterlimit="2.61313" stroke-linecap="round" stroke-linejoin="round"/>
<path d="M27.0359 507.632L29.5867 496.774L27.0186 490.572H37.3977L34.5657 496.733L37.1989 507.623M21.8854 485.539L27.0186 490.572L21.1489 499.641L15.752 487.156L21.8854 485.539Z" stroke="#B1382C" stroke-opacity="0.8" stroke-width="3.58322" stroke-miterlimit="2.61313" stroke-linecap="round" stroke-linejoin="round"/>
<path d="M42.5312 485.539L37.3965 490.572L43.2691 499.641L48.6657 487.156" stroke="#B1382C" stroke-opacity="0.8" stroke-width="3.58322" stroke-miterlimit="2.61313" stroke-linecap="round" stroke-linejoin="round"/>
<path d="M209.891 453.232H222.737V501.495H209.891V453.232Z" stroke="#B1382C" stroke-opacity="0.8" stroke-width="3.58315" stroke-miterlimit="2.61313" stroke-linecap="round" stroke-linejoin="round"/>
<path d="M272.322 453.237H222.737V501.495H301.744" stroke="#B1382C" stroke-opacity="0.8" stroke-width="3.58315" stroke-miterlimit="2.61313" stroke-linecap="round" stroke-linejoin="round"/>
<path d="M296.887 430.794L286.752 475.745L276.331 473.395L286.467 428.448L291.676 429.621L296.887 430.794Z" stroke="#B1382C" stroke-opacity="0.8" stroke-width="3.5833" stroke-miterlimit="2.61313" stroke-linecap="round" stroke-linejoin="round"/>
<path d="M278.509 488.027L286.752 475.746L276.331 473.395L278.509 488.027Z" stroke="#B1382C" stroke-opacity="0.8" stroke-width="3.54953" stroke-miterlimit="2.61313" stroke-linecap="round" stroke-linejoin="round"/>
<path d="M296.884 430.794C305.595 435.838 300.367 441.686 298.293 450.879L296.884 430.794ZM294.02 419.199C296.898 419.849 298.706 422.708 298.058 425.586L296.884 430.794L291.672 429.621L286.463 428.448L287.636 423.24C288.284 420.357 291.143 418.55 294.02 419.199V419.199Z" stroke="#B1382C" stroke-opacity="0.8" stroke-width="3.5833" stroke-miterlimit="2.61313" stroke-linecap="round" stroke-linejoin="round"/>
<path d="M266.638 470.816C262.264 470.108 259.262 471.465 259.221 473.329C259.134 477.468 268.142 477.657 268.058 481.412C268.021 483.274 265.018 484.633 260.645 483.924" stroke="#B1382C" stroke-opacity="0.8" stroke-width="3.5832" stroke-miterlimit="2.61313" stroke-linecap="round" stroke-linejoin="round"/>
<path d="M263.575 470.65V468.684M263.575 486.071V484.104V486.071Z" stroke="#B1382C" stroke-opacity="0.8" stroke-width="3.58312" stroke-miterlimit="2.61313" stroke-linecap="round" stroke-linejoin="round"/>
<path d="M271.357 464.983C269.077 463.496 266.418 462.607 263.641 462.545C255.919 462.372 248.817 469.181 248.817 477.364C248.817 485.551 255.455 492.192 263.641 492.192C266.839 492.192 269.8 491.181 272.221 489.458" stroke="#B1382C" stroke-opacity="0.8" stroke-width="3.58324" stroke-miterlimit="2.61313" stroke-linecap="round" stroke-linejoin="round"/>
<path d="M421.646 428.464C425.701 426.887 428.925 423.663 430.501 419.613" stroke="#B1382C" stroke-opacity="0.8" stroke-width="3.58315" stroke-miterlimit="2.61313" stroke-linecap="round" stroke-linejoin="round"/>
<path d="M502.774 428.464C498.72 426.887 495.495 423.663 493.92 419.613" stroke="#B1382C" stroke-opacity="0.8" stroke-width="3.58315" stroke-miterlimit="2.61313" stroke-linecap="round" stroke-linejoin="round"/>
<path d="M481.674 456.292H508.377V414.005H416.042V435.145V456.292H444.283" stroke="#B1382C" stroke-opacity="0.8" stroke-width="3.58322" stroke-miterlimit="2.61313" stroke-linecap="round" stroke-linejoin="round"/>
<path d="M421.646 441.833C425.701 443.401 428.925 446.629 430.501 450.68" stroke="#B1382C" stroke-opacity="0.8" stroke-width="3.58315" stroke-miterlimit="2.61313" stroke-linecap="round" stroke-linejoin="round"/>
<path d="M502.774 441.833C498.72 443.401 495.495 446.629 493.92 450.68" stroke="#B1382C" stroke-opacity="0.8" stroke-width="3.58315" stroke-miterlimit="2.61313" stroke-linecap="round" stroke-linejoin="round"/>
<path d="M465.066 428.902C460.897 428.223 458.038 429.522 458.001 431.293C457.912 435.24 466.501 435.422 466.423 439C466.383 440.774 463.523 442.072 459.355 441.394" stroke="#B1382C" stroke-opacity="0.8" stroke-width="3.58326" stroke-miterlimit="2.61313" stroke-linecap="round" stroke-linejoin="round"/>
<path d="M462.147 428.748V426.87M462.147 443.441V441.568V443.441Z" stroke="#B1382C" stroke-opacity="0.8" stroke-width="3.58311" stroke-miterlimit="2.61313" stroke-linecap="round" stroke-linejoin="round"/>
<path d="M462.211 449.71C470.253 449.71 476.776 443.191 476.776 435.145C476.776 427.102 470.253 420.58 462.211 420.58C454.168 420.58 447.646 427.102 447.646 435.145C447.646 443.191 454.168 449.71 462.211 449.71Z" stroke="#B1382C" stroke-opacity="0.8" stroke-width="3.58317" stroke-miterlimit="2.61313" stroke-linecap="round" stroke-linejoin="round"/>
<path d="M462.368 464.77C464.036 464.77 465.641 465.021 467.157 465.473V476.638H478.324C478.782 478.153 479.025 479.762 479.025 481.426C479.025 483.089 478.782 484.699 478.324 486.215H467.157V497.378C465.641 497.832 464.036 498.08 462.368 498.08C460.705 498.08 459.1 497.832 457.583 497.378V486.215H446.416C445.962 484.699 445.719 483.089 445.719 481.426C445.719 479.762 445.962 478.153 446.416 476.638H457.583V465.473C459.1 465.021 460.705 464.77 462.368 464.77Z" stroke="#B1382C" stroke-opacity="0.8" stroke-width="3.58324" stroke-miterlimit="2.61313" stroke-linecap="round" stroke-linejoin="round"/>
<path d="M462.369 506.561C476.252 506.561 487.508 495.309 487.508 481.426C487.508 467.544 476.252 456.292 462.369 456.292C448.49 456.292 437.234 467.544 437.234 481.426C437.234 495.309 448.49 506.561 462.369 506.561V506.561Z" stroke="#B1382C" stroke-opacity="0.8" stroke-width="3.58322" stroke-miterlimit="2.61313" stroke-linecap="round" stroke-linejoin="round"/>
<path d="M707.577 437.546C699.922 441.528 695.402 449.846 689.252 455.369C687.149 457.413 683.789 457.368 681.741 455.266C679.697 453.17 679.738 449.805 681.841 447.758C686.463 442.206 699.066 428.289 690.068 428.393" stroke="#B1382C" stroke-opacity="0.8" stroke-width="3.58322" stroke-miterlimit="2.61313" stroke-linecap="round" stroke-linejoin="round"/>
<path d="M665.567 424.633C669.433 421.428 669.997 420.321 675.753 419.69C680.53 418.823 690.417 419.911 701.013 419.421C707.193 419.133 713.608 418.314 719.397 416.252M693.646 476.38C669.4 474.715 630.393 473.701 625.306 492.892L627.014 474.634L693.646 476.38ZM719.397 439.508C716.63 442.781 714.992 446.809 709.27 449.289C702.92 451.144 697.313 455.429 695.276 458.948L719.397 439.508Z" stroke="#B1382C" stroke-opacity="0.8" stroke-width="3.58322" stroke-miterlimit="2.61313" stroke-linecap="round" stroke-linejoin="round"/>
<path d="M692.846 484.876C672.101 483.533 638.522 485.082 633.906 504.318L635.212 490.366" stroke="#B1382C" stroke-opacity="0.8" stroke-width="3.58322" stroke-miterlimit="2.61313" stroke-linecap="round" stroke-linejoin="round"/>
<path d="M621.453 436.122L617.805 475.065C622.527 457.288 670.233 465.78 694.479 467.445L695.121 449.079M690.07 428.393C665.824 426.729 626.541 416.935 621.453 436.122L690.07 428.393Z" stroke="#B1382C" stroke-opacity="0.8" stroke-width="3.58322" stroke-miterlimit="2.61313" stroke-linecap="round" stroke-linejoin="round"/>
<path d="M658.279 438.827C654.627 437.775 651.926 438.624 651.705 440.211C651.207 443.725 658.862 444.803 658.412 447.998C658.194 449.581 655.49 450.436 651.838 449.382" stroke="#B1382C" stroke-opacity="0.8" stroke-width="3.58323" stroke-miterlimit="2.61313" stroke-linecap="round" stroke-linejoin="round"/>
<path d="M655.686 438.373L655.889 436.694M654.118 451.513L654.317 449.835L654.118 451.513Z" stroke="#B1382C" stroke-opacity="0.8" stroke-width="3.58314" stroke-miterlimit="2.61313" stroke-linecap="round" stroke-linejoin="round"/>
<path d="M653.507 457.125C660.698 457.981 667.228 452.849 668.083 445.659C668.947 438.465 663.808 431.939 656.617 431.08C649.427 430.219 642.897 435.358 642.041 442.549C641.178 449.739 646.317 456.266 653.507 457.125V457.125Z" stroke="#B1382C" stroke-opacity="0.8" stroke-width="3.58317" stroke-miterlimit="2.61313" stroke-linecap="round" stroke-linejoin="round"/>
<path d="M29.5726 676.964C28.6935 676.087 28.1473 674.88 28.1473 673.54C28.1473 671.593 28.1473 669.645 28.1473 667.694C22.4852 663.288 19.492 657.4 20.2053 650.239C21.975 639.312 31.6867 633.66 41.5945 631.65M20.2053 650.239C17.081 650.56 15.9973 643.662 11.3511 645.343C8.08119 646.524 8.69799 652.509 12.0544 652.135C16.3388 651.667 16.1587 643.842 14.7002 639.994L20.2053 650.239ZM60.156 631.432C62.8277 631.903 65.3224 632.594 67.4998 633.468C69.6355 631.011 71.9874 629.687 74.2574 629.118C77.5228 628.306 80.5982 629.068 82.5479 630.217C84.7272 631.516 85.0223 633.734 82.4789 634.45C79.9455 635.165 78.3975 636.848 77.0244 639.33C78.5244 640.725 79.8777 642.323 80.9298 644.049C82.1303 644.049 83.3293 644.049 84.5294 644.049C85.8483 644.049 86.9334 645.137 86.9334 646.455C86.9334 650.305 86.9334 654.157 86.9334 658.009C86.9334 659.329 85.8483 660.417 84.5294 660.417C83.5426 660.417 82.5479 660.417 81.5596 660.417C79.9758 663.465 77.5719 666.037 74.7444 668.125C74.7444 669.933 74.7444 671.738 74.7444 673.54C74.7444 676.205 72.567 678.385 69.8952 678.385L60.156 631.432Z" stroke="#B1382C" stroke-opacity="0.8" stroke-width="3.58322" stroke-miterlimit="2.61313" stroke-linecap="round" stroke-linejoin="round"/>
<path d="M50.7862 617.354C46.8332 617.354 43.6279 620.559 43.6279 624.511C43.6279 628.458 46.8332 631.667 50.7862 631.667C54.7378 631.667 57.9412 628.458 57.9412 624.511C57.9412 620.559 54.7378 617.354 50.7862 617.354Z" stroke="#B1382C" stroke-opacity="0.8" stroke-width="3.58316" stroke-miterlimit="2.61313" stroke-linecap="round" stroke-linejoin="round"/>
<path d="M64.2515 639.371C61.0116 637.409 56.1823 636.161 50.7842 636.161C45.3857 636.161 40.552 637.409 37.3154 639.371M73.4444 644.473H71.8344H73.4444Z" stroke="#B1382C" stroke-opacity="0.8" stroke-width="3.58284" stroke-miterlimit="2.61313" stroke-linecap="round" stroke-linejoin="round"/>
<path d="M0 714.876C6.975 709.836 13.7785 706.308 19.0371 700.06C22.4166 696.127 22.5391 687.398 35.443 682.011C43.2395 678.754 48.8553 675.912 54.7942 673.131C58.5396 671.376 62.0071 670.144 64.3605 673.353C66.5279 676.314 64.7018 679.126 61.9319 681.307C56.3548 685.336 53.1629 687.786 46.3621 691.674C56.5352 692.289 61.961 692.327 76.0924 683.307C78.7815 681.59 88.2629 671.943 90.9649 669.269C92.7361 667.512 95.51 666.668 97.4513 668.56C99.2384 670.298 99.303 673.039 97.7221 674.999C94.4582 679.038 87.4889 687.885 84.5791 690.729C80.5139 694.71 69.2126 703.856 62.5734 705.317C52.128 707.607 43.3273 706.533 32.6154 716" stroke="#B1382C" stroke-opacity="0.8" stroke-width="3.58322" stroke-miterlimit="2.61313" stroke-linecap="round" stroke-linejoin="round"/>
<path d="M269.936 624.577H286.062V639.843H209.046V624.577H225.172M221.914 693.957H214.323V639.843L221.914 693.957ZM280.788 639.843V663.886V639.843ZM233.143 624.577H261.967H233.143Z" stroke="#B1382C" stroke-opacity="0.8" stroke-width="3.58342" stroke-miterlimit="2.61313" stroke-linecap="round" stroke-linejoin="round"/>
<path d="M261.966 619.847H269.935V632.564H261.966V619.847ZM225.171 619.847H233.142V632.564H225.171V619.847Z" stroke="#B1382C" stroke-opacity="0.8" stroke-width="3.58324" stroke-miterlimit="2.61313" stroke-linecap="round" stroke-linejoin="round"/>
<path d="M235.769 685.675C239.822 684.104 243.046 680.875 244.62 676.828" stroke="#B1382C" stroke-opacity="0.8" stroke-width="3.58315" stroke-miterlimit="2.61313" stroke-linecap="round" stroke-linejoin="round"/>
<path d="M302.594 671.22H230.166V713.503H302.457" stroke="#B1382C" stroke-opacity="0.8" stroke-width="3.58322" stroke-miterlimit="2.61313" stroke-linecap="round" stroke-linejoin="round"/>
<path d="M235.769 699.045C239.822 700.62 243.046 703.848 244.62 707.899" stroke="#B1382C" stroke-opacity="0.8" stroke-width="3.58315" stroke-miterlimit="2.61313" stroke-linecap="round" stroke-linejoin="round"/>
<path d="M279.188 686.117C275.019 685.443 272.157 686.734 272.121 688.512C272.036 692.455 280.619 692.637 280.543 696.219C280.506 697.993 277.645 699.289 273.475 698.61" stroke="#B1382C" stroke-opacity="0.8" stroke-width="3.58326" stroke-miterlimit="2.61313" stroke-linecap="round" stroke-linejoin="round"/>
<path d="M276.271 685.958V684.088M276.271 700.661V698.783V700.661Z" stroke="#B1382C" stroke-opacity="0.8" stroke-width="3.58311" stroke-miterlimit="2.61313" stroke-linecap="round" stroke-linejoin="round"/>
<path d="M276.329 706.928C284.374 706.928 290.896 700.406 290.896 692.363C290.896 684.321 284.374 677.799 276.329 677.799C268.288 677.799 261.766 684.321 261.766 692.363C261.766 700.406 268.288 706.928 276.329 706.928V706.928Z" stroke="#B1382C" stroke-opacity="0.8" stroke-width="3.58317" stroke-miterlimit="2.61313" stroke-linecap="round" stroke-linejoin="round"/>
<path d="M479.534 675.607L479.335 689.404L488.407 692.762L479.534 675.607ZM479.335 713.861C492.838 713.861 503.784 702.903 503.784 689.404C503.784 675.905 492.838 664.953 479.335 664.953C465.833 664.953 454.883 675.905 454.883 689.404C454.883 702.903 465.833 713.861 479.335 713.861V713.861Z" stroke="#B1382C" stroke-opacity="0.8" stroke-width="3.58316" stroke-miterlimit="2.61313" stroke-linecap="round" stroke-linejoin="round"/>
<path d="M426.975 629.044C431.228 628.004 435.264 625.873 438.046 623.198" stroke="#B1382C" stroke-opacity="0.8" stroke-width="3.58323" stroke-miterlimit="2.61313" stroke-linecap="round" stroke-linejoin="round"/>
<path d="M501.84 629.044C498.615 628.004 496.697 625.873 496.575 623.198" stroke="#B1382C" stroke-opacity="0.8" stroke-width="3.58323" stroke-miterlimit="2.61313" stroke-linecap="round" stroke-linejoin="round"/>
<path d="M497.873 647.425L504.816 633.462L511.756 619.493H426.541L419.602 633.462L412.662 647.425C441.066 647.425 469.469 647.425 497.873 647.425V647.425Z" stroke="#B1382C" stroke-opacity="0.8" stroke-width="3.58325" stroke-miterlimit="2.61313" stroke-linecap="round" stroke-linejoin="round"/>
<path d="M422.579 637.877C425.804 638.913 427.722 641.046 427.844 643.721" stroke="#B1382C" stroke-opacity="0.8" stroke-width="3.58323" stroke-miterlimit="2.61313" stroke-linecap="round" stroke-linejoin="round"/>
<path d="M497.45 637.877C493.193 638.913 489.157 641.046 486.375 643.721" stroke="#B1382C" stroke-opacity="0.8" stroke-width="3.58323" stroke-miterlimit="2.61313" stroke-linecap="round" stroke-linejoin="round"/>
<path d="M466.895 629.335C463.272 628.89 460.206 629.742 459.59 630.915C458.214 633.523 466.076 633.642 464.829 636.006C464.213 637.18 461.147 638.035 457.524 637.589" stroke="#B1382C" stroke-opacity="0.8" stroke-width="3.58325" stroke-miterlimit="2.61313" stroke-linecap="round" stroke-linejoin="round"/>
<path d="M464.252 629.229L464.865 627.994M459.427 638.939L460.043 637.7L459.427 638.939Z" stroke="#B1382C" stroke-opacity="0.8" stroke-width="3.58321" stroke-miterlimit="2.61313" stroke-linecap="round" stroke-linejoin="round"/>
<path d="M457.429 643.078C464.851 643.078 473.012 638.773 475.65 633.461C478.291 628.148 474.414 623.839 466.991 623.839C459.572 623.839 451.408 628.148 448.77 633.461C446.128 638.773 450.006 643.078 457.429 643.078Z" stroke="#B1382C" stroke-opacity="0.8" stroke-width="3.58322" stroke-miterlimit="2.61313" stroke-linecap="round" stroke-linejoin="round"/>
<path d="M412.662 656.725H497.877" stroke="#B1382C" stroke-opacity="0.8" stroke-width="3.58313" stroke-miterlimit="2.61313" stroke-linecap="round" stroke-linejoin="round"/>
<path d="M412.662 693.913H448.857M412.662 684.612H448.902H412.662ZM412.662 675.319H451.934H412.662ZM412.662 666.019H459.287H412.662Z" stroke="#B1382C" stroke-opacity="0.8" stroke-width="3.58322" stroke-miterlimit="2.61313" stroke-linecap="round" stroke-linejoin="round"/>
<path d="M683.207 659.367H684.425C684.425 656.877 686.447 654.859 688.941 654.859C691.427 654.859 693.449 656.877 693.449 659.367H694.67C696.858 659.367 698.632 661.145 698.632 663.333C698.632 665.516 696.858 667.295 694.67 667.295H683.207C681.016 667.295 679.245 665.516 679.245 663.333C679.245 661.145 681.016 659.367 683.207 659.367Z" stroke="#B1382C" stroke-opacity="0.8" stroke-width="3.58324" stroke-miterlimit="2.61313" stroke-linecap="round" stroke-linejoin="round"/>
<path d="M698.612 662.893H711.713V713.304H666.165V662.893H679.266" stroke="#B1382C" stroke-opacity="0.8" stroke-width="3.58321" stroke-miterlimit="2.61313" stroke-linecap="round" stroke-linejoin="round"/>
<path d="M633.36 629.598C637.614 628.562 641.654 626.429 644.436 623.754" stroke="#B1382C" stroke-opacity="0.8" stroke-width="3.58323" stroke-miterlimit="2.61313" stroke-linecap="round" stroke-linejoin="round"/>
<path d="M708.232 629.598C705.008 628.562 703.09 626.429 702.968 623.754" stroke="#B1382C" stroke-opacity="0.8" stroke-width="3.58323" stroke-miterlimit="2.61313" stroke-linecap="round" stroke-linejoin="round"/>
<path d="M704.268 647.978L711.211 634.013L718.151 620.05H632.936L625.993 634.013L619.05 647.978C647.457 647.978 675.864 647.978 704.268 647.978Z" stroke="#B1382C" stroke-opacity="0.8" stroke-width="3.58325" stroke-miterlimit="2.61313" stroke-linecap="round" stroke-linejoin="round"/>
<path d="M628.975 638.433C632.199 639.471 634.114 641.602 634.232 644.277" stroke="#B1382C" stroke-opacity="0.8" stroke-width="3.58323" stroke-miterlimit="2.61313" stroke-linecap="round" stroke-linejoin="round"/>
<path d="M703.841 638.433C699.584 639.471 695.551 641.602 692.77 644.277" stroke="#B1382C" stroke-opacity="0.8" stroke-width="3.58323" stroke-miterlimit="2.61313" stroke-linecap="round" stroke-linejoin="round"/>
<path d="M673.288 629.889C669.666 629.444 666.596 630.3 665.98 631.473C664.608 634.077 672.473 634.195 671.226 636.56C670.61 637.733 667.541 638.592 663.914 638.142" stroke="#B1382C" stroke-opacity="0.8" stroke-width="3.58325" stroke-miterlimit="2.61313" stroke-linecap="round" stroke-linejoin="round"/>
<path d="M670.647 629.787L671.263 628.547M665.821 639.497L666.437 638.258L665.821 639.497Z" stroke="#B1382C" stroke-opacity="0.8" stroke-width="3.58321" stroke-miterlimit="2.61313" stroke-linecap="round" stroke-linejoin="round"/>
<path d="M663.821 643.636C671.244 643.636 679.405 639.327 682.043 634.013C684.684 628.702 680.803 624.393 673.384 624.393C665.961 624.393 657.801 628.702 655.159 634.013C652.518 639.327 656.399 643.636 663.821 643.636Z" stroke="#B1382C" stroke-opacity="0.8" stroke-width="3.58322" stroke-miterlimit="2.61313" stroke-linecap="round" stroke-linejoin="round"/>
<path d="M619.05 657.279H665.535" stroke="#B1382C" stroke-opacity="0.8" stroke-width="3.58313" stroke-miterlimit="2.61313" stroke-linecap="round" stroke-linejoin="round"/>
<path d="M619.05 694.467H658.289M619.05 685.169H658.333H619.05ZM619.05 675.872H658.333H619.05ZM619.05 666.576H657.846H619.05Z" stroke="#B1382C" stroke-opacity="0.8" stroke-width="3.58322" stroke-miterlimit="2.61313" stroke-linecap="round" stroke-linejoin="round"/>
<path d="M673.325 675.264L677.9 680.252L687.997 673.441M673.325 700.723L677.9 705.708L687.997 698.901L673.325 700.723ZM673.325 687.992L677.9 692.98L687.997 686.169L673.325 687.992Z" stroke="#B1382C" stroke-opacity="0.8" stroke-width="3.58373" stroke-miterlimit="2.61313" stroke-linecap="round" stroke-linejoin="round"/>
<path d="M633.36 216.478C637.614 215.438 641.654 213.309 644.436 210.631" stroke="#B1382C" stroke-opacity="0.8" stroke-width="3.58323" stroke-miterlimit="2.61313" stroke-linecap="round" stroke-linejoin="round"/>
<path d="M708.229 216.478C705.008 215.438 703.09 213.309 702.968 210.634" stroke="#B1382C" stroke-opacity="0.8" stroke-width="3.58323" stroke-miterlimit="2.61313" stroke-linecap="round" stroke-linejoin="round"/>
<path d="M704.268 234.862L711.211 220.894L718.151 206.927L675.543 206.93H632.932L625.993 220.894L619.05 234.862C647.457 234.862 675.864 234.862 704.268 234.862Z" stroke="#B1382C" stroke-opacity="0.8" stroke-width="3.58325" stroke-miterlimit="2.61313" stroke-linecap="round" stroke-linejoin="round"/>
<path d="M628.975 225.31C632.199 226.347 634.114 228.483 634.235 231.158" stroke="#B1382C" stroke-opacity="0.8" stroke-width="3.58323" stroke-miterlimit="2.61313" stroke-linecap="round" stroke-linejoin="round"/>
<path d="M703.841 225.31C699.584 226.351 695.551 228.483 692.77 231.158" stroke="#B1382C" stroke-opacity="0.8" stroke-width="3.58323" stroke-miterlimit="2.61313" stroke-linecap="round" stroke-linejoin="round"/>
<path d="M673.288 216.77C669.666 216.32 666.6 217.175 665.984 218.349C664.608 220.957 672.473 221.075 671.226 223.44C670.606 224.613 667.541 225.469 663.914 225.023" stroke="#B1382C" stroke-opacity="0.8" stroke-width="3.58325" stroke-miterlimit="2.61313" stroke-linecap="round" stroke-linejoin="round"/>
<path d="M670.647 216.666L671.263 215.427M665.821 226.376L666.437 225.137L665.821 226.376Z" stroke="#B1382C" stroke-opacity="0.8" stroke-width="3.58321" stroke-miterlimit="2.61313" stroke-linecap="round" stroke-linejoin="round"/>
<path d="M663.822 230.516C671.245 230.516 679.409 226.207 682.043 220.894C684.685 215.582 680.807 211.273 673.384 211.273C665.962 211.273 657.801 215.582 655.16 220.894C652.522 226.207 656.399 230.516 663.822 230.516Z" stroke="#B1382C" stroke-opacity="0.8" stroke-width="3.58322" stroke-miterlimit="2.61313" stroke-linecap="round" stroke-linejoin="round"/>
<path d="M619.05 244.159H704.268" stroke="#B1382C" stroke-opacity="0.8" stroke-width="3.58313" stroke-miterlimit="2.61313" stroke-linecap="round" stroke-linejoin="round"/>
<path d="M619.05 253.456H626.273" stroke="#B1382C" stroke-opacity="0.8" stroke-width="3.58321" stroke-miterlimit="2.61313" stroke-linecap="round" stroke-linejoin="round"/>
<path d="M619.05 262.753H626.273" stroke="#B1382C" stroke-opacity="0.8" stroke-width="3.58322" stroke-miterlimit="2.61313" stroke-linecap="round" stroke-linejoin="round"/>
<path d="M619.05 272.05H626.273" stroke="#B1382C" stroke-opacity="0.8" stroke-width="3.58321" stroke-miterlimit="2.61313" stroke-linecap="round" stroke-linejoin="round"/>
<path d="M668.323 267.183C666.511 269.489 658.845 271.219 649.666 271.219C640.483 271.219 632.817 269.489 631.006 267.183H668.323ZM649.666 253.101C660.191 253.101 668.725 255.374 668.725 258.182C668.725 260.989 660.191 263.265 649.666 263.265C639.137 263.265 630.604 260.989 630.604 258.182C630.604 255.374 639.137 253.101 649.666 253.101ZM713.881 296.347C712.077 298.649 704.411 300.383 695.228 300.383C686.046 300.383 678.379 298.649 676.572 296.347H713.881ZM695.228 268.574C705.754 268.574 714.291 270.851 714.291 273.654C714.291 276.466 705.754 278.742 695.228 278.742C684.703 278.742 676.17 276.466 676.17 273.654C676.17 270.851 684.703 268.574 695.228 268.574Z" stroke="#B1382C" stroke-opacity="0.8" stroke-width="3.58322" stroke-miterlimit="2.61313" stroke-linecap="round" stroke-linejoin="round"/>
<path d="M674.739 262.753H704.272" stroke="#B1382C" stroke-opacity="0.8" stroke-width="3.58322" stroke-miterlimit="2.61313" stroke-linecap="round" stroke-linejoin="round"/>
<path d="M674.739 253.456H704.272" stroke="#B1382C" stroke-opacity="0.8" stroke-width="3.58324" stroke-miterlimit="2.61313" stroke-linecap="round" stroke-linejoin="round"/>
<path d="M668.324 274.592C666.512 276.897 658.846 278.628 649.667 278.628C640.485 278.628 632.818 276.897 631.007 274.592M713.882 281.527C712.078 283.833 704.412 285.567 695.229 285.567C686.047 285.567 678.381 283.833 676.573 281.527H713.882ZM713.882 288.939C712.078 291.245 704.412 292.975 695.229 292.975C686.047 292.975 678.381 291.245 676.573 288.939H713.882ZM668.324 296.816C666.512 299.121 658.846 300.855 649.667 300.855C640.485 300.855 632.818 299.121 631.007 296.816H668.324ZM668.324 289.408C666.512 291.713 658.846 293.447 649.667 293.447C640.485 293.447 632.818 291.713 631.007 289.408H668.324ZM668.324 282C666.512 284.305 658.846 286.039 649.667 286.039C640.485 286.039 632.818 284.305 631.007 282H668.324Z" stroke="#B1382C" stroke-opacity="0.8" stroke-width="3.58322" stroke-miterlimit="2.61313" stroke-linecap="round" stroke-linejoin="round"/>
</svg>
