<svg width="19" height="19" viewBox="0 0 19 19" fill="none" xmlns="http://www.w3.org/2000/svg">
<path d="M9.5013 7.3474C8.21107 7.3474 7.15814 8.40033 7.15814 9.69056C7.15814 10.9808 8.21107 12.0337 9.5013 12.0337C10.7915 12.0337 11.8445 10.9808 11.8445 9.69056C11.8445 8.40033 10.7915 7.3474 9.5013 7.3474ZM16.529 9.69056C16.529 8.72025 16.5378 7.75873 16.4833 6.79017C16.4288 5.66517 16.1722 4.66673 15.3495 3.84408C14.5251 3.01966 13.5285 2.76478 12.4035 2.71029C11.4331 2.6558 10.4716 2.66459 9.50306 2.66459C8.53275 2.66459 7.57123 2.6558 6.60267 2.71029C5.47767 2.76478 4.47923 3.02142 3.65658 3.84408C2.83216 4.66849 2.57728 5.66517 2.52279 6.79017C2.4683 7.76048 2.47709 8.72201 2.47709 9.69056C2.47709 10.6591 2.4683 11.6224 2.52279 12.591C2.57728 13.716 2.83392 14.7144 3.65658 15.537C4.48099 16.3615 5.47767 16.6163 6.60267 16.6708C7.57298 16.7253 8.53451 16.7165 9.50306 16.7165C10.4734 16.7165 11.4349 16.7253 12.4035 16.6708C13.5285 16.6163 14.5269 16.3597 15.3495 15.537C16.174 14.7126 16.4288 13.716 16.4833 12.591C16.5396 11.6224 16.529 10.6609 16.529 9.69056ZM9.5013 13.2958C7.50619 13.2958 5.89603 11.6857 5.89603 9.69056C5.89603 7.69544 7.50619 6.08529 9.5013 6.08529C11.4964 6.08529 13.1066 7.69544 13.1066 9.69056C13.1066 11.6857 11.4964 13.2958 9.5013 13.2958ZM13.2542 6.77962C12.7884 6.77962 12.4122 6.40345 12.4122 5.93763C12.4122 5.47181 12.7884 5.09564 13.2542 5.09564C13.7201 5.09564 14.0962 5.47181 14.0962 5.93763C14.0964 6.04824 14.0747 6.15779 14.0324 6.26001C13.9902 6.36223 13.9281 6.45511 13.8499 6.53332C13.7717 6.61153 13.6788 6.67355 13.5766 6.71581C13.4744 6.75808 13.3648 6.77976 13.2542 6.77962Z" fill="#232322"/>
</svg>
