<svg width="15" height="15" viewBox="0 0 15 15" fill="none" xmlns="http://www.w3.org/2000/svg">
<g clip-path="url(#clip0_2953_3243)">
<path d="M1.83595 4.19084C2.80245 4.19084 3.58596 3.40747 3.58596 2.44113C3.58596 1.47478 2.80245 0.691406 1.83595 0.691406C0.869444 0.691406 0.0859375 1.47478 0.0859375 2.44113C0.0859375 3.40747 0.869444 4.19084 1.83595 4.19084Z" fill="#232322"/>
<path d="M3.29429 5.35938H0.377606C0.216605 5.35938 0.0859375 5.49002 0.0859375 5.65099V14.3996C0.0859375 14.5606 0.216605 14.6912 0.377606 14.6912H3.29429C3.45529 14.6912 3.58596 14.5606 3.58596 14.3996V5.65099C3.58596 5.49002 3.45529 5.35938 3.29429 5.35938Z" fill="#232322"/>
<path d="M11.9883 4.87673C10.7419 4.4498 9.18289 4.82483 8.24795 5.4973C8.21587 5.3719 8.10155 5.27859 7.96566 5.27859H5.04943C4.88846 5.27859 4.75781 5.40923 4.75781 5.57021V14.3188C4.75781 14.4798 4.88846 14.6104 5.04943 14.6104H7.96566C8.12663 14.6104 8.25728 14.4798 8.25728 14.3188V8.03148C8.72854 7.62554 9.3357 7.49606 9.83262 7.7072C10.3144 7.91075 10.5903 8.40767 10.5903 9.06964V14.3188C10.5903 14.4798 10.7209 14.6104 10.8819 14.6104H13.7981C13.9591 14.6104 14.0897 14.4798 14.0897 14.3188V8.48232C14.0565 6.08579 12.9291 5.19868 11.9883 4.87673Z" fill="#232322"/>
</g>
<defs>
<clipPath id="clip0_2953_3243">
<rect width="14" height="14" fill="white" transform="translate(0.0859375 0.691406)"/>
</clipPath>
</defs>
</svg>
