<svg width="18" height="15" viewBox="0 0 18 15" fill="none" xmlns="http://www.w3.org/2000/svg">
<path d="M17.8175 2.417C17.7052 2.29176 17.5241 2.26027 17.3755 2.33751C17.2831 2.3855 17.1094 2.4485 16.9032 2.51074C17.1634 2.15978 17.3726 1.76682 17.465 1.41362C17.5049 1.26138 17.4465 1.1009 17.3194 1.01016C17.1922 0.920172 17.023 0.920172 16.8958 1.01016C16.6955 1.1519 15.7288 1.57785 15.1175 1.71583C13.7361 0.488222 12.1285 0.360736 10.4574 1.35062C9.09885 2.15528 8.8032 3.79159 8.86085 4.78898C5.75137 4.48526 3.81857 2.81895 2.73058 1.43986C2.65445 1.34312 2.53176 1.29213 2.41645 1.29963C2.29524 1.30863 2.18585 1.37687 2.12376 1.48261C1.60933 2.36376 1.46668 3.33789 1.71281 4.30003C1.84733 4.82497 2.08237 5.28767 2.35511 5.66263C2.22428 5.59739 2.09789 5.51564 1.9789 5.41816C1.86951 5.32667 1.71651 5.30942 1.58716 5.37016C1.45855 5.4324 1.37651 5.56439 1.37651 5.70912C1.37651 7.36118 2.39502 8.46356 3.34627 9.03949C3.19253 9.02074 3.03214 8.98625 2.87028 8.936C2.73132 8.89326 2.58054 8.936 2.48445 9.04699C2.38837 9.15723 2.36546 9.31471 2.42532 9.44894C2.95971 10.6481 3.9723 11.473 5.22511 11.7722C4.13122 12.4239 2.66702 12.7433 1.32625 12.5866C1.15256 12.5618 0.986995 12.6736 0.9323 12.8431C0.877605 13.0125 0.9493 13.1985 1.1023 13.2855C3.13636 14.4441 4.97529 14.8581 6.5644 14.8581C8.87711 14.8581 10.6621 13.9822 11.7486 13.2495C14.6777 11.2772 16.5034 7.73614 16.2491 4.56775C16.7184 4.21604 17.4206 3.56662 17.856 2.86845C17.9461 2.72746 17.9299 2.54149 17.8175 2.417Z" fill="#232322"/>
</svg>
