<?xml version="1.0" encoding="UTF-8"?>
<svg id="Layer_2" data-name="Layer 2" xmlns="http://www.w3.org/2000/svg" xmlns:xlink="http://www.w3.org/1999/xlink" viewBox="0 0 370.8 42.45">
  <defs>
    <style>
      .cls-1 {
        fill: url(#linear-gradient);
      }

      .cls-2 {
        fill: #231f20;
      }
    </style>
    <linearGradient id="linear-gradient" x1="335.38" y1="35.42" x2="364.73" y2="6.08" gradientUnits="userSpaceOnUse">
      <stop offset="0" stop-color="#231f20"/>
      <stop offset=".43" stop-color="#322f30" stop-opacity=".93"/>
      <stop offset=".69" stop-color="#676565" stop-opacity=".69"/>
      <stop offset=".9" stop-color="#c1c0c0" stop-opacity=".28"/>
      <stop offset="1" stop-color="#fff" stop-opacity="0"/>
    </linearGradient>
  </defs>
  <g id="Layer_1-2" data-name="Layer 1">
    <g>
      <g>
        <path class="cls-2" d="M10.1,15.85l6.15,13.5,6.4-13.5h5.7l6.4,13.9,6.45-13.9h10.05l-13.4,25.65h-6.05l-6.4-14.05-6.1,14.05h-6.15L0,15.85H10.1Z"/>
        <path class="cls-2" d="M58.8,30.2c0,3.9,1.83,5.85,5.5,5.85,1.97,0,3.45-.8,4.45-2.4h8.75c-1.77,5.87-6.18,8.8-13.25,8.8-2.17,0-4.15-.33-5.95-.97-1.8-.65-3.34-1.58-4.62-2.78-1.28-1.2-2.27-2.63-2.98-4.3-.7-1.67-1.05-3.53-1.05-5.6s.33-4.06,1-5.77c.67-1.72,1.62-3.17,2.85-4.38,1.23-1.2,2.72-2.12,4.47-2.77s3.73-.98,5.93-.98,4.12,.33,5.85,.98c1.73,.65,3.2,1.59,4.4,2.83,1.2,1.23,2.12,2.74,2.75,4.52,.63,1.78,.95,3.79,.95,6.02v.95h-19.05Zm10.6-5.25c-.3-1.27-.92-2.28-1.85-3.05-.93-.77-2.07-1.15-3.4-1.15-1.4,0-2.54,.37-3.43,1.1-.88,.73-1.44,1.77-1.67,3.1h10.35Z"/>
        <path class="cls-2" d="M90.95,23.4v18.1h-9.05V23.4h-3v-7.55h3v-7.7h9.05v7.7h5.15v7.55h-5.15Z"/>
        <path class="cls-2" d="M117.3,15.85h9.1v25.65h-9.1v-2.85c-1.93,2.43-4.55,3.65-7.85,3.65-1.87,0-3.58-.34-5.15-1.02-1.57-.68-2.93-1.64-4.1-2.88-1.17-1.23-2.07-2.68-2.72-4.35-.65-1.67-.98-3.48-.98-5.45,0-1.83,.32-3.58,.95-5.23,.63-1.65,1.52-3.09,2.65-4.32,1.13-1.23,2.48-2.21,4.05-2.92,1.57-.72,3.3-1.08,5.2-1.08,3.2,0,5.85,1.12,7.95,3.35v-2.55Zm-11.4,12.75c0,.83,.15,1.61,.45,2.32,.3,.72,.71,1.34,1.22,1.88,.52,.53,1.13,.95,1.85,1.25,.72,.3,1.49,.45,2.33,.45s1.56-.15,2.27-.45c.72-.3,1.33-.72,1.85-1.25,.52-.53,.93-1.15,1.25-1.85,.32-.7,.48-1.45,.48-2.25s-.16-1.56-.48-2.28c-.32-.72-.73-1.34-1.25-1.88-.52-.53-1.13-.95-1.85-1.25-.72-.3-1.48-.45-2.27-.45s-1.61,.15-2.33,.45c-.72,.3-1.33,.72-1.85,1.25-.52,.53-.92,1.14-1.22,1.83-.3,.68-.45,1.42-.45,2.23Z"/>
        <path class="cls-2" d="M139.1,0V41.5h-9.05V0h9.05Z"/>
        <path class="cls-2" d="M151.85,0V25.1l9.5-9.25h12.4l-12.85,11.85,13.6,13.8h-12.7l-9.95-10.45v10.45h-9.05V0h9.05Z"/>
        <path class="cls-2" d="M192.9,22.45c-1.67-.87-3.3-1.3-4.9-1.3-.83,0-1.51,.17-2.03,.5-.52,.33-.77,.78-.77,1.35,0,.3,.04,.54,.12,.73,.08,.18,.27,.36,.55,.52,.28,.17,.7,.32,1.25,.45,.55,.13,1.27,.3,2.17,.5,2.5,.5,4.37,1.39,5.6,2.67,1.23,1.28,1.85,2.92,1.85,4.92,0,1.5-.3,2.85-.9,4.05-.6,1.2-1.43,2.21-2.5,3.02-1.07,.82-2.35,1.45-3.85,1.9s-3.15,.67-4.95,.67c-3.47,0-6.88-.98-10.25-2.95l3.3-6.4c2.53,1.73,4.93,2.6,7.2,2.6,.83,0,1.52-.18,2.05-.55,.53-.37,.8-.83,.8-1.4,0-.33-.04-.61-.12-.83-.08-.22-.26-.42-.52-.6-.27-.18-.66-.35-1.17-.5-.52-.15-1.19-.31-2.03-.47-2.8-.57-4.76-1.41-5.88-2.53-1.12-1.12-1.67-2.66-1.67-4.62,0-1.43,.27-2.72,.8-3.87,.53-1.15,1.3-2.12,2.3-2.93,1-.8,2.21-1.42,3.62-1.85,1.42-.43,2.99-.65,4.73-.65,2.83,0,5.58,.55,8.25,1.65l-3.05,5.9Z"/>
        <path class="cls-2" d="M197.85,28.45c0-1.9,.38-3.67,1.15-5.33,.77-1.65,1.83-3.08,3.2-4.3,1.37-1.22,2.99-2.18,4.88-2.88,1.88-.7,3.94-1.05,6.17-1.05s4.24,.34,6.12,1.02c1.88,.68,3.52,1.63,4.9,2.85,1.38,1.22,2.46,2.67,3.22,4.35,.77,1.68,1.15,3.54,1.15,5.58s-.39,3.89-1.18,5.58c-.78,1.68-1.86,3.13-3.22,4.35-1.37,1.22-3.01,2.16-4.92,2.83-1.92,.67-3.99,1-6.23,1s-4.23-.33-6.1-1c-1.87-.67-3.47-1.62-4.83-2.85-1.35-1.23-2.41-2.71-3.17-4.43-.77-1.72-1.15-3.62-1.15-5.72Zm9.55,.1c0,.87,.16,1.66,.47,2.38,.32,.72,.73,1.34,1.25,1.88,.52,.53,1.13,.95,1.85,1.25,.72,.3,1.48,.45,2.28,.45s1.56-.15,2.28-.45c.72-.3,1.33-.72,1.85-1.25,.52-.53,.93-1.16,1.25-1.88,.32-.72,.47-1.49,.47-2.32s-.16-1.56-.47-2.28c-.32-.72-.73-1.34-1.25-1.88-.52-.53-1.13-.95-1.85-1.25-.72-.3-1.48-.45-2.28-.45s-1.56,.15-2.28,.45-1.33,.72-1.85,1.25c-.52,.53-.93,1.15-1.25,1.85-.32,.7-.47,1.45-.47,2.25Z"/>
        <path class="cls-2" d="M240.4,15.85v14.45c0,3.17,1.53,4.75,4.6,4.75s4.6-1.58,4.6-4.75V15.85h9.05v16.2c0,3.47-1.14,6.07-3.43,7.8-2.28,1.73-5.69,2.6-10.22,2.6s-7.94-.87-10.22-2.6c-2.28-1.73-3.43-4.33-3.43-7.8V15.85h9.05Z"/>
        <path class="cls-2" d="M262.29,15.85h9.05v3.25c1.23-1.5,2.48-2.51,3.75-3.02,1.27-.52,2.75-.78,4.45-.78,1.8,0,3.34,.29,4.62,.88,1.28,.58,2.38,1.41,3.28,2.48,.73,.87,1.23,1.83,1.5,2.9,.27,1.07,.4,2.28,.4,3.65v16.3h-9.05v-12.95c0-1.27-.09-2.29-.27-3.07-.18-.78-.51-1.41-.98-1.88-.4-.4-.85-.68-1.35-.85-.5-.17-1.03-.25-1.6-.25-1.53,0-2.71,.46-3.53,1.38-.82,.92-1.22,2.23-1.22,3.92v13.7h-9.05V15.85Z"/>
        <path class="cls-2" d="M312.79,0h9.1V41.5h-9.1v-2.85c-1.93,2.43-4.55,3.65-7.85,3.65-1.87,0-3.58-.35-5.15-1.05-1.57-.7-2.93-1.67-4.1-2.9s-2.08-2.68-2.72-4.35c-.65-1.67-.98-3.47-.98-5.4,0-1.83,.31-3.58,.93-5.23,.62-1.65,1.49-3.09,2.62-4.32,1.13-1.23,2.49-2.21,4.07-2.92,1.58-.72,3.33-1.08,5.23-1.08,3.2,0,5.85,1.12,7.95,3.35V0Zm-11.4,28.6c0,.83,.15,1.61,.45,2.32,.3,.72,.71,1.34,1.22,1.88,.52,.53,1.13,.95,1.85,1.25,.72,.3,1.49,.45,2.32,.45s1.56-.15,2.28-.45c.72-.3,1.33-.72,1.85-1.25,.52-.53,.93-1.15,1.25-1.85s.48-1.45,.48-2.25-.16-1.56-.48-2.28c-.32-.72-.73-1.34-1.25-1.88-.52-.53-1.13-.95-1.85-1.25-.72-.3-1.47-.45-2.28-.45s-1.56,.15-2.27,.45c-.72,.3-1.33,.72-1.85,1.25-.52,.53-.93,1.14-1.25,1.83-.32,.68-.47,1.42-.47,2.23Z"/>
      </g>
      <circle class="cls-1" cx="350.05" cy="20.75" r="20.75"/>
    </g>
  </g>
</svg>