<svg width="210" height="25" viewBox="0 0 210 25" fill="none" xmlns="http://www.w3.org/2000/svg">
<mask id="mask0_2142_9421" style="mask-type:alpha" maskUnits="userSpaceOnUse" x="0" y="0" width="210" height="25">
<g clip-path="url(#clip0_2142_9421)">
<path d="M5.72007 8.97656L9.20307 16.6222L12.8277 8.97656H16.0558L19.6804 16.8487L23.3333 8.97656H29.0251L21.4361 23.5033H18.0097L14.3851 15.5461L10.9304 23.5033H7.44741L0 8.97656H5.72007Z" fill="white"/>
<path d="M33.2992 17.1045C33.2992 19.3132 34.3356 20.4176 36.4141 20.4176C37.5298 20.4176 38.368 19.9645 38.9343 19.0584H43.8898C42.8874 22.3828 40.3898 24.0422 36.3858 24.0422C35.1568 24.0422 34.0355 23.8553 33.0161 23.4929C31.9966 23.1247 31.1245 22.598 30.3995 21.9184C29.6746 21.2388 29.114 20.4289 28.7118 19.4831C28.3154 18.5374 28.1172 17.484 28.1172 16.3116C28.1172 15.1393 28.3041 14.0123 28.6835 13.0438C29.063 12.0697 29.601 11.2485 30.2976 10.5632C30.9942 9.88363 31.8381 9.36259 32.8292 8.99447C33.8203 8.62635 34.9416 8.43945 36.1876 8.43945C37.4335 8.43945 38.5209 8.62635 39.5007 8.99447C40.4805 9.36259 41.313 9.89495 41.9926 10.5972C42.6722 11.2938 43.1932 12.149 43.55 13.1571C43.9068 14.1652 44.0881 15.3035 44.0881 16.5665V17.1045H33.2992ZM39.3025 14.1312C39.1326 13.4119 38.7814 12.8399 38.2547 12.4039C37.728 11.9678 37.0824 11.7526 36.3292 11.7526C35.5363 11.7526 34.8907 11.9621 34.3866 12.3755C33.8882 12.789 33.5711 13.378 33.4408 14.1312H39.3025Z" fill="white"/>
<path d="M51.508 13.252V23.5028H46.3826V13.252H44.6836V8.97608H46.3826V4.61523H51.508V8.97608H54.4247V13.252H51.508Z" fill="white"/>
<path d="M66.4323 8.97651H71.586V23.5032H66.4323V21.8891C65.3392 23.2653 63.8554 23.9563 61.9865 23.9563C60.9274 23.9563 59.959 23.7637 59.0698 23.3786C58.1807 22.9935 57.4104 22.4498 56.7478 21.7475C56.0852 21.0509 55.5755 20.2297 55.2074 19.284C54.8392 18.3382 54.6523 17.3131 54.6523 16.1974C54.6523 15.161 54.8336 14.1699 55.1904 13.2354C55.5472 12.3009 56.0512 11.4854 56.6912 10.7888C57.3311 10.0922 58.0957 9.53719 58.9849 9.13509C59.874 8.72732 60.8538 8.52344 61.9299 8.52344C63.7421 8.52344 65.243 9.15774 66.4323 10.4207V8.97651ZM59.976 16.1974C59.976 16.6675 60.0609 17.1092 60.2308 17.5113C60.4007 17.9191 60.6329 18.2702 60.9218 18.576C61.2163 18.8762 61.5617 19.1141 61.9695 19.284C62.3773 19.4539 62.8133 19.5388 63.2891 19.5388C63.7648 19.5388 64.1726 19.4539 64.5747 19.284C64.9824 19.1141 65.3279 18.8762 65.6224 18.576C65.9169 18.2759 66.1491 17.9247 66.3303 17.5283C66.5116 17.1319 66.6022 16.7071 66.6022 16.254C66.6022 15.8009 66.5116 15.3705 66.3303 14.9628C66.1491 14.555 65.9169 14.2039 65.6224 13.898C65.3279 13.5979 64.9824 13.36 64.5747 13.1901C64.1669 13.0202 63.7365 12.9352 63.2891 12.9352C62.8417 12.9352 62.3773 13.0202 61.9695 13.1901C61.5617 13.36 61.2163 13.5979 60.9218 13.898C60.6273 14.1982 60.4007 14.5437 60.2308 14.9344C60.0609 15.3196 59.976 15.7386 59.976 16.1974Z" fill="white"/>
<path d="M78.7778 0V23.5032H73.6523V0H78.7778Z" fill="white"/>
<path d="M86.0004 0V14.2152L91.3807 8.97654H98.4033L91.1258 15.6877L98.8281 23.5032H91.6355L86.0004 17.585V23.5032H80.875V0H86.0004Z" fill="white"/>
<path d="M109.247 12.715C108.301 12.2222 107.378 11.9787 106.472 11.9787C106.002 11.9787 105.616 12.075 105.322 12.2619C105.027 12.4488 104.886 12.7036 104.886 13.0264C104.886 13.1963 104.908 13.3323 104.954 13.4399C104.999 13.5418 105.107 13.6438 105.265 13.7344C105.424 13.8306 105.662 13.9156 105.973 13.9892C106.285 14.0628 106.692 14.1591 107.202 14.2724C108.618 14.5556 109.677 15.0596 110.374 15.7845C111.07 16.5094 111.421 17.4383 111.421 18.5709C111.421 19.4205 111.252 20.185 110.912 20.8646C110.572 21.5442 110.102 22.1162 109.496 22.575C108.89 23.0394 108.165 23.3962 107.315 23.651C106.466 23.9059 105.531 24.0305 104.512 24.0305C102.547 24.0305 100.616 23.4755 98.707 22.3598L100.576 18.7352C102.009 19.715 103.368 20.2077 104.654 20.2077C105.124 20.2077 105.514 20.1057 105.815 19.8962C106.115 19.6866 106.268 19.4261 106.268 19.1033C106.268 18.9164 106.245 18.7578 106.2 18.6332C106.154 18.5086 106.053 18.3954 105.905 18.2934C105.752 18.1915 105.531 18.0952 105.243 18.0103C104.948 17.9253 104.569 17.8347 104.093 17.7441C102.507 17.4213 101.397 16.9455 100.763 16.3112C100.129 15.6769 99.8171 14.8048 99.8171 13.6947C99.8171 12.8849 99.97 12.1543 100.27 11.503C100.57 10.8517 101.006 10.3023 101.573 9.84359C102.139 9.39052 102.824 9.03938 103.623 8.79586C104.427 8.55233 105.316 8.42773 106.302 8.42773C107.904 8.42773 109.462 8.73922 110.974 9.3622L109.247 12.7036V12.715Z" fill="white"/>
<path d="M112.053 16.1132C112.053 15.0372 112.268 14.0347 112.704 13.0946C113.14 12.1601 113.74 11.3503 114.516 10.6593C115.292 9.96838 116.209 9.42469 117.28 9.02825C118.345 8.63181 119.511 8.43359 120.774 8.43359C122.037 8.43359 123.176 8.62615 124.24 9.01126C125.305 9.39638 126.234 9.9344 127.015 10.6253C127.797 11.3163 128.409 12.1375 128.839 13.0889C129.275 14.0404 129.49 15.0938 129.49 16.2491C129.49 17.4045 129.269 18.4522 128.822 19.4093C128.38 20.3608 127.769 21.182 126.998 21.8729C126.222 22.5639 125.294 23.0962 124.212 23.4757C123.125 23.8551 121.952 24.042 120.684 24.042C119.415 24.042 118.288 23.8551 117.229 23.4757C116.17 23.0962 115.264 22.5582 114.493 21.8616C113.729 21.165 113.129 20.3268 112.698 19.3527C112.262 18.3786 112.047 17.3025 112.047 16.1132H112.053ZM117.461 16.1698C117.461 16.6626 117.552 17.11 117.727 17.5177C117.909 17.9255 118.141 18.2766 118.435 18.5825C118.73 18.8826 119.075 19.1205 119.483 19.2904C119.891 19.4603 120.321 19.5452 120.774 19.5452C121.227 19.5452 121.658 19.4603 122.065 19.2904C122.473 19.1205 122.819 18.8826 123.113 18.5825C123.408 18.2823 123.64 17.9255 123.821 17.5177C124.002 17.11 124.087 16.6739 124.087 16.2038C124.087 15.7338 123.997 15.3203 123.821 14.9126C123.64 14.5048 123.408 14.1537 123.113 13.8478C122.819 13.5477 122.473 13.3098 122.065 13.1399C121.658 12.97 121.227 12.8851 120.774 12.8851C120.321 12.8851 119.891 12.97 119.483 13.1399C119.075 13.3098 118.73 13.5477 118.435 13.8478C118.141 14.148 117.909 14.4991 117.727 14.8956C117.546 15.292 117.461 15.7168 117.461 16.1698Z" fill="white"/>
<path d="M136.149 8.97656V17.1602C136.149 18.9555 137.015 19.8503 138.754 19.8503C140.493 19.8503 141.359 18.9555 141.359 17.1602V8.97656H146.485V18.1513C146.485 20.1165 145.839 21.589 144.542 22.5688C143.251 23.5486 141.32 24.0413 138.754 24.0413C136.188 24.0413 134.257 23.5486 132.966 22.5688C131.675 21.589 131.023 20.1165 131.023 18.1513V8.97656H136.149Z" fill="white"/>
<path d="M148.547 8.9775H153.672V10.8181C154.369 9.9686 155.077 9.3966 155.796 9.10776C156.515 8.81326 157.354 8.66602 158.316 8.66602C159.336 8.66602 160.208 8.83026 160.933 9.1644C161.658 9.49288 162.281 9.96294 162.79 10.5689C163.204 11.0616 163.487 11.6053 163.64 12.2113C163.793 12.8173 163.866 13.5026 163.866 14.2785V23.5099H158.741V16.1757C158.741 15.4565 158.69 14.8788 158.588 14.4371C158.486 13.9953 158.299 13.6385 158.033 13.3723C157.807 13.1458 157.552 12.9872 157.269 12.8909C156.985 12.7947 156.685 12.7493 156.362 12.7493C155.496 12.7493 154.828 13.0099 154.363 13.5309C153.899 14.0519 153.672 14.7938 153.672 15.751V23.5099H148.547V8.9775Z" fill="white"/>
<path d="M177.147 0H182.301V23.5032H177.147V21.8892C176.054 23.2654 174.57 23.9563 172.701 23.9563C171.642 23.9563 170.674 23.7581 169.785 23.3617C168.896 22.9652 168.125 22.4159 167.463 21.7193C166.8 21.0227 166.285 20.2015 165.922 19.2557C165.554 18.3099 165.367 17.2905 165.367 16.1974C165.367 15.161 165.543 14.1699 165.894 13.2354C166.245 12.301 166.738 11.4854 167.378 10.7888C168.018 10.0922 168.788 9.53722 169.683 9.13511C170.578 8.72735 171.569 8.52346 172.645 8.52346C174.457 8.52346 175.958 9.15777 177.147 10.4207V0ZM170.691 16.1974C170.691 16.6675 170.776 17.1092 170.946 17.5113C171.116 17.9191 171.348 18.2702 171.637 18.5761C171.931 18.8762 172.277 19.1141 172.684 19.284C173.092 19.4539 173.528 19.5388 173.998 19.5388C174.468 19.5388 174.882 19.4539 175.29 19.284C175.697 19.1141 176.043 18.8762 176.337 18.5761C176.632 18.2759 176.864 17.9248 177.045 17.5283C177.226 17.1319 177.317 16.7071 177.317 16.254C177.317 15.801 177.226 15.3706 177.045 14.9628C176.864 14.555 176.632 14.2039 176.337 13.8981C176.043 13.5979 175.697 13.36 175.29 13.1901C174.882 13.0202 174.457 12.9353 173.998 12.9353C173.54 12.9353 173.115 13.0202 172.713 13.1901C172.305 13.36 171.959 13.5979 171.665 13.8981C171.37 14.1982 171.138 14.5437 170.957 14.9345C170.776 15.3196 170.691 15.7387 170.691 16.1974Z" fill="white"/>
<path d="M198.248 23.5032C204.738 23.5032 209.999 18.2419 209.999 11.7516C209.999 5.26138 204.738 0 198.248 0C191.757 0 186.496 5.26138 186.496 11.7516C186.496 18.2419 191.757 23.5032 198.248 23.5032Z" fill="url(#paint0_linear_2142_9421)"/>
</g>
</mask>
<g mask="url(#mask0_2142_9421)">
<rect x="-22" y="-50" width="253" height="100" fill="#FBCA01"/>
</g>
<defs>
<linearGradient id="paint0_linear_2142_9421" x1="189.939" y1="20.0599" x2="206.562" y2="3.44337" gradientUnits="userSpaceOnUse">
<stop stop-color="white"/>
<stop offset="0.06" stop-color="white" stop-opacity="0.87"/>
<stop offset="0.16" stop-color="white" stop-opacity="0.67"/>
<stop offset="0.26" stop-color="white" stop-opacity="0.49"/>
<stop offset="0.37" stop-color="white" stop-opacity="0.34"/>
<stop offset="0.48" stop-color="white" stop-opacity="0.22"/>
<stop offset="0.59" stop-color="white" stop-opacity="0.12"/>
<stop offset="0.71" stop-color="white" stop-opacity="0.05"/>
<stop offset="0.84" stop-color="white" stop-opacity="0.01"/>
<stop offset="1" stop-color="white" stop-opacity="0"/>
</linearGradient>
<clipPath id="clip0_2142_9421">
<rect width="210" height="24.0413" fill="white"/>
</clipPath>
</defs>
</svg>
