<svg width="141" height="104" viewBox="0 0 141 104" fill="none" xmlns="http://www.w3.org/2000/svg">
<mask id="mask0" mask-type="alpha" maskUnits="userSpaceOnUse" x="0" y="0" width="141" height="104">
<path fill-rule="evenodd" clip-rule="evenodd" d="M0.5 6.10352e-05H140.5V104H0.5V6.10352e-05Z" fill="white"/>
</mask>
<g mask="url(#mask0)">
<path fill-rule="evenodd" clip-rule="evenodd" d="M134.717 46.2221H121.981C121.052 46.2221 120.17 45.8164 119.566 45.1115C118.582 43.9589 117.973 42.3652 117.973 40.6075C117.973 40.5879 117.973 40.5682 117.973 40.5486C117.996 37.6002 120.422 35.2337 123.373 35.2337H129.107C132.301 35.2337 134.89 32.4842 134.89 29.0923C134.89 25.7004 132.301 22.9509 129.107 22.9509H117.599C116.102 22.9482 114.745 22.2611 113.763 21.1516C112.779 20.0404 112.17 18.5038 112.17 16.8091C112.17 16.7878 112.17 16.7665 112.17 16.7455C112.195 13.9649 114.507 11.7446 117.29 11.7446H124.348C127.542 11.7446 130.131 9.11538 130.131 5.87223C130.131 2.62908 127.542 6.10352e-05 124.348 6.10352e-05H81.5702H59.43H16.6521C13.458 6.10352e-05 10.8688 2.62908 10.8688 5.87223C10.8688 9.11538 13.458 11.7446 16.6521 11.7446H23.7101C26.4934 11.7446 28.8051 13.9649 28.8303 16.7455C28.8305 16.7665 28.8307 16.7878 28.8307 16.8091C28.8307 18.5038 28.2213 20.0404 27.2373 21.1516C26.2552 22.2611 24.8982 22.9482 23.4011 22.9509H11.8933C8.69921 22.9509 6.10982 25.7004 6.10982 29.0923C6.10982 32.4842 8.69921 35.2337 11.8933 35.2337H23.4301C26.3814 35.2337 28.8073 37.6002 28.8303 40.5486C28.8305 40.5682 28.8307 40.5879 28.8307 40.6075C28.8307 42.3652 28.2213 43.9589 27.2373 45.1115C26.6338 45.8164 25.7517 46.2221 24.823 46.2221H6.28347C3.08938 46.2221 0.5 48.8613 0.5 52.1172C0.5 55.373 3.08938 58.0125 6.28347 58.0125H23.4011C26.3998 58.0172 28.8307 60.6533 28.8307 63.9057C28.8307 65.5327 28.2213 67.0077 27.2373 68.0742C26.4942 68.8769 25.4494 69.3333 24.3549 69.3333H16.6521C13.458 69.3333 10.8688 72.0278 10.8688 75.3516C10.8688 78.6755 13.458 81.37 16.6521 81.37H23.4226C27.2603 81.37 29.4354 85.5202 28.6849 88.9438C27.8647 92.6849 24.1571 92.4445 20.9853 92.4443C17.7372 92.4443 15.1144 95.1196 15.2041 98.3846C15.2903 101.532 17.9542 104 21.1055 104H59.43H81.5702H119.894C123.046 104 125.71 101.532 125.796 98.3846C125.886 95.1196 123.263 92.4443 120.015 92.4443C116.843 92.4445 113.135 92.6849 112.315 88.9438C111.565 85.5202 113.74 81.37 117.578 81.37H124.348C127.542 81.37 130.131 78.6755 130.131 75.3516C130.131 72.0278 127.542 69.3333 124.348 69.3333H116.645C115.551 69.3333 114.506 68.8769 113.763 68.0742C112.779 67.0077 112.17 65.5327 112.17 63.9057C112.17 60.6533 114.6 58.0172 117.599 58.0125H134.717C137.911 58.0125 140.5 55.373 140.5 52.1172C140.5 48.8613 137.911 46.2221 134.717 46.2221Z" fill="#DDE9F2" fill-opacity="0.46"/>
</g>
<path fill-rule="evenodd" clip-rule="evenodd" d="M70.9424 100.555H82.4901V63.0631H70.9424V100.555Z" fill="#F15A01"/>
<path fill-rule="evenodd" clip-rule="evenodd" d="M113.965 38.3464V69.7007H34.3867V38.3464C34.3867 27.8156 42.9318 19.2789 53.4726 19.2789H94.8767C99.1871 19.2789 103.162 20.705 106.356 23.111C107.387 23.8876 108.338 24.7668 109.19 25.7329C109.861 26.4894 110.468 27.2981 111.009 28.1532C111.54 28.9862 112.005 29.8614 112.4 30.7751C113.407 33.0966 113.965 35.656 113.965 38.3464Z" fill="#F15A01" fill-opacity="0.7"/>
<path fill-rule="evenodd" clip-rule="evenodd" d="M112.401 30.7751H49.6836V28.1533H111.01C111.54 28.9861 112.005 29.8615 112.401 30.7751Z" fill="#F15A01" fill-opacity="0.6"/>
<path fill-rule="evenodd" clip-rule="evenodd" d="M49.6831 52.7588H113.965V44.4896H49.6831V52.7588Z" fill="#F15A01"/>
<path fill-rule="evenodd" clip-rule="evenodd" d="M109.191 25.7331H46.5747V23.1112H106.356C107.388 23.8876 108.339 24.767 109.191 25.7331Z" fill="#F15A01" fill-opacity="0.6"/>
<path fill-rule="evenodd" clip-rule="evenodd" d="M72.5587 38.3464V59.818H34.3867V38.3464C34.3867 27.8163 42.9324 19.2789 53.4726 19.2789C64.013 19.2789 72.5587 27.8163 72.5587 38.3464Z" fill="#F15A01" fill-opacity="0.6"/>
<path fill-rule="evenodd" clip-rule="evenodd" d="M37.1475 66.6755V38.6137C37.1475 29.6207 44.4708 22.3044 53.4728 22.3044C62.4745 22.3044 69.7977 29.6207 69.7977 38.6137V66.6755H37.1475Z" fill="#18191F"/>
<path fill-rule="evenodd" clip-rule="evenodd" d="M5.33398 71.1125H113.965V68.4906H5.33398V71.1125Z" fill="#F15A01"/>
<path fill-rule="evenodd" clip-rule="evenodd" d="M113.965 59.8182V71.1126H5.33398V68.4908H34.3869V69.7009H72.5589V59.8182H113.965Z" fill="#F15A01" fill-opacity="0.6"/>
<path fill-rule="evenodd" clip-rule="evenodd" d="M99.9652 7.07281H88.6264H83.6163H81.8643V41.771H88.6264V16.9839H99.9652V7.07281Z" fill="#D9DDE2"/>
<path fill-rule="evenodd" clip-rule="evenodd" d="M100.641 7.07281H89.3021H84.292H83.5073V41.771H89.3021V16.9839H100.641V7.07281Z" fill="white"/>
<path fill-rule="evenodd" clip-rule="evenodd" d="M91.7405 43.6495C91.7405 47.3691 89.2177 50.3841 86.1055 50.3841C82.9935 50.3841 80.4707 47.3691 80.4707 43.6495C80.4707 39.9298 82.9935 36.9148 86.1055 36.9148C89.2177 36.9148 91.7405 39.9298 91.7405 43.6495Z" fill="#FFCF31"/>
<path fill-rule="evenodd" clip-rule="evenodd" d="M89.5363 43.6495C89.5363 45.9143 88 47.7504 86.105 47.7504C84.2101 47.7504 82.6738 45.9143 82.6738 43.6495C82.6738 41.3846 84.2101 39.5485 86.105 39.5485C88 39.5485 89.5363 41.3846 89.5363 43.6495Z" fill="#F15A01"/>
<mask id="mask1" mask-type="alpha" maskUnits="userSpaceOnUse" x="37" y="22" width="34" height="46">
<path fill-rule="evenodd" clip-rule="evenodd" d="M37.6289 39.161V67.1163H70.0642V39.161C70.0642 30.2021 62.7892 22.9136 53.8468 22.9136C44.9041 22.9136 37.6289 30.2021 37.6289 39.161Z" fill="white"/>
</mask>
<g mask="url(#mask1)">
<path fill-rule="evenodd" clip-rule="evenodd" d="M81.2344 38.2534V65.8173C81.2344 66.4717 80.7057 67.0032 80.0507 67.0032H41.4855C41.2377 67.0032 41.007 66.9262 40.8168 66.7951C40.5056 66.5815 40.3018 66.2235 40.3018 65.8173V38.2534C40.3018 37.9954 40.3843 37.7566 40.5265 37.5621V37.5603C40.7399 37.2619 41.0896 37.0693 41.4855 37.0693H80.0507C80.558 37.0693 80.9883 37.3871 81.1575 37.8336C81.2074 37.9646 81.2344 38.1051 81.2344 38.2534Z" fill="#FC7627"/>
</g>
<mask id="mask2" mask-type="alpha" maskUnits="userSpaceOnUse" x="37" y="22" width="34" height="46">
<path fill-rule="evenodd" clip-rule="evenodd" d="M37.6289 39.161V67.1163H70.0642V39.161C70.0642 30.2021 62.7892 22.9136 53.8468 22.9136C44.9041 22.9136 37.6289 30.2021 37.6289 39.161Z" fill="white"/>
</mask>
<g mask="url(#mask2)">
<path fill-rule="evenodd" clip-rule="evenodd" d="M81.2345 38.2535V65.8174C81.2345 66.4718 80.7058 67.0033 80.0507 67.0033H41.4856C41.2378 67.0033 41.0071 66.9263 40.8169 66.7952L81.1576 37.8337C81.2074 37.9647 81.2345 38.1051 81.2345 38.2535Z" fill="#FF8238"/>
</g>
<mask id="mask3" mask-type="alpha" maskUnits="userSpaceOnUse" x="37" y="22" width="34" height="46">
<path fill-rule="evenodd" clip-rule="evenodd" d="M37.6289 39.161V67.1163H70.0642V39.161C70.0642 30.2021 62.7892 22.9136 53.8468 22.9136C44.9041 22.9136 37.6289 30.2021 37.6289 39.161Z" fill="white"/>
</mask>
<g mask="url(#mask3)">
<path fill-rule="evenodd" clip-rule="evenodd" d="M81.2343 38.6873L61.3551 54.4065C60.5819 55.0179 59.6225 54.9789 58.877 54.3062L40.5264 37.7429V37.7402C40.7398 37.3324 41.0895 37.0693 41.4853 37.0693H80.0505C80.5579 37.0693 80.9881 37.5034 81.1574 38.1138L81.2343 38.6873Z" fill="#D57C28"/>
</g>
<mask id="mask4" mask-type="alpha" maskUnits="userSpaceOnUse" x="37" y="22" width="34" height="46">
<path fill-rule="evenodd" clip-rule="evenodd" d="M37.6289 39.161V67.1163H70.0642V39.161C70.0642 30.2021 62.7892 22.9136 53.8468 22.9136C44.9041 22.9136 37.6289 30.2021 37.6289 39.161Z" fill="white"/>
</mask>
<g mask="url(#mask4)">
<path fill-rule="evenodd" clip-rule="evenodd" d="M81.2343 38.2534L61.3551 49.7563C60.5819 50.2037 59.6225 50.1756 58.877 49.683L40.5264 37.5621V37.5603C40.7398 37.2619 41.0895 37.0693 41.4853 37.0693H80.0505C80.5579 37.0693 80.9881 37.3871 81.1574 37.8336L81.2343 38.2534Z" fill="#F15A01"/>
</g>
<path fill-rule="evenodd" clip-rule="evenodd" d="M50.4757 41.7658L50.401 41.8995C50.0723 42.4881 50.2841 43.2391 50.8716 43.5682L55.9892 46.4367C56.5765 46.7659 57.3259 46.5539 57.6547 45.9653L57.7293 45.8316C58.0581 45.2431 57.8463 44.4923 57.259 44.1631L52.1414 41.2944C51.5539 40.9653 50.8044 41.1772 50.4757 41.7658Z" fill="#F15A01"/>
<path fill-rule="evenodd" clip-rule="evenodd" d="M63.2163 101.917H89.6965V99.8348H63.2163V101.917Z" fill="#F15A01"/>
</svg>
