<svg width="40" height="40" viewBox="0 0 40 40" fill="none" xmlns="http://www.w3.org/2000/svg">
<mask id="mask0" mask-type="alpha" maskUnits="userSpaceOnUse" x="0" y="0" width="40" height="40">
<circle cx="20" cy="20" r="20" fill="#EFF0F6"/>
</mask>
<g mask="url(#mask0)">
<mask id="mask1" mask-type="alpha" maskUnits="userSpaceOnUse" x="0" y="0" width="40" height="40">
<rect width="40" height="40" rx="20" fill="#C4C4C4"/>
</mask>
<g mask="url(#mask1)">
<mask id="mask2" mask-type="alpha" maskUnits="userSpaceOnUse" x="0" y="0" width="40" height="40">
<rect width="40" height="40" fill="#C4C4C4"/>
</mask>
<g mask="url(#mask2)">
<rect width="40" height="40" fill="#F5EFFF"/>
<path d="M36.4442 40.0006H3.33325C3.33325 40.0006 3.77763 37.8942 4.41087 35.7789C5.04412 33.6637 6.35283 32.7771 8.04815 32.3439C8.52586 32.2217 9.40129 31.9661 10.4123 31.6662C10.8011 31.5484 11.2121 31.4262 11.6276 31.2996C11.8209 31.2418 12.0165 31.1818 12.212 31.1218C14.345 30.473 16.427 29.8264 16.427 29.8264L19.8709 29.5509L19.8909 29.5487L19.9109 29.5509L23.0172 29.7998C23.0172 29.7998 24.8858 30.3597 26.9255 30.9641C27.3166 31.0796 27.7165 31.1974 28.1076 31.3129C29.634 31.7595 31.076 32.1772 31.7293 32.3439C33.4246 32.7794 34.7333 33.6637 35.3665 35.7789C35.9998 37.8942 36.4442 40.0006 36.4442 40.0006Z" fill="#19274B"/>
<path d="M28.1076 31.3101C27.9077 32.17 27.5633 33.3032 26.9811 34.423C25.8435 36.6183 23.8016 38.7757 20.1665 38.7757C16.3159 38.7757 14.114 36.5405 12.8853 34.3964C12.2032 33.2032 11.821 32.0389 11.6255 31.299C11.8188 31.2413 12.0143 31.1813 12.2099 31.1213C14.3429 30.4725 16.4248 29.8259 16.4248 29.8259L19.8688 29.5504L19.8888 29.5482L19.9088 29.5504L23.015 29.7992C23.015 29.7992 24.8836 30.3592 26.9233 30.9635C27.3166 31.0768 27.7143 31.1946 28.1076 31.3101Z" fill="#FF8881"/>
<path d="M15.5494 30.4391C15.4583 30.4391 15.3717 30.4036 15.3073 30.3392C15.2917 30.3236 15.2762 30.3058 15.265 30.2881C15.2517 30.2703 15.2428 30.2503 15.2339 30.2281C15.225 30.2081 15.2184 30.1858 15.2139 30.1636C15.2095 30.1414 15.2073 30.1192 15.2073 30.097C15.2073 30.0748 15.2095 30.0525 15.2139 30.0303C15.2184 30.0081 15.225 29.9859 15.2339 29.9659C15.2428 29.9459 15.2517 29.9259 15.265 29.9081C15.2784 29.8903 15.2917 29.8726 15.3073 29.857C15.3717 29.7926 15.4583 29.757 15.5494 29.757C15.6405 29.757 15.7272 29.7926 15.7916 29.857C15.8072 29.8726 15.8227 29.8903 15.8339 29.9081C15.845 29.9259 15.8561 29.9459 15.865 29.9659C15.8738 29.9859 15.8805 30.0081 15.885 30.0303C15.8894 30.0525 15.8916 30.0748 15.8916 30.097C15.8916 30.1192 15.8894 30.1414 15.885 30.1636C15.8805 30.1858 15.8738 30.2058 15.865 30.2281C15.8561 30.2481 15.845 30.2681 15.8339 30.2881C15.8205 30.3058 15.8072 30.3236 15.7916 30.3392C15.7761 30.3547 15.7583 30.3703 15.7405 30.3814C15.7228 30.3925 15.7028 30.4036 15.6805 30.4125C15.6605 30.4214 15.6383 30.428 15.6161 30.4325C15.5939 30.4369 15.5717 30.4391 15.5494 30.4391Z" fill="#F5EFFF"/>
<path d="M19.9111 33.9231C19.7222 33.9231 19.5689 33.7676 19.5711 33.581C19.5711 33.3921 19.7244 33.2388 19.9133 33.241C20.1022 33.241 20.2555 33.3943 20.2555 33.5832C20.2532 33.7698 20.0999 33.9231 19.9111 33.9231ZM20.4465 33.5721C20.4199 33.3854 20.551 33.2121 20.7376 33.1855C20.9243 33.1588 21.0976 33.2899 21.122 33.4765C21.1487 33.6632 21.0176 33.8365 20.8309 33.8631C20.8154 33.8654 20.7998 33.8654 20.7843 33.8654C20.6154 33.8654 20.471 33.7432 20.4465 33.5721ZM18.989 33.8565C18.8023 33.8298 18.6735 33.6543 18.7001 33.4676C18.7268 33.281 18.9023 33.1521 19.089 33.1788C19.2756 33.2054 19.4045 33.3788 19.3778 33.5654C19.3534 33.7365 19.2067 33.8587 19.0401 33.8587C19.0223 33.8587 19.0045 33.8587 18.989 33.8565ZM21.3131 33.4365C21.2531 33.2566 21.3509 33.0632 21.5308 33.0055C21.7108 32.9455 21.9041 33.0433 21.9619 33.2232C22.0219 33.4032 21.9241 33.5965 21.7441 33.6543C21.7086 33.6654 21.673 33.672 21.6375 33.672C21.4953 33.672 21.3598 33.581 21.3131 33.4365ZM18.0758 33.6409C17.8958 33.581 17.8003 33.3854 17.8625 33.2077C17.9225 33.0277 18.1158 32.9322 18.2957 32.9944C18.4757 33.0544 18.5713 33.2499 18.509 33.4276C18.4602 33.5698 18.3268 33.6609 18.1846 33.6609C18.1491 33.6587 18.1135 33.6521 18.0758 33.6409ZM22.1396 33.1432C22.0419 32.981 22.0952 32.7722 22.2574 32.6744C22.4196 32.5767 22.6285 32.63 22.7262 32.7922C22.824 32.9544 22.7707 33.1632 22.6085 33.261C22.5529 33.2943 22.4929 33.3099 22.4329 33.3099C22.3196 33.3099 22.2041 33.2499 22.1396 33.1432ZM17.2159 33.2432C17.0537 33.1455 17.0026 32.9366 17.1004 32.7744C17.1981 32.6122 17.407 32.5611 17.5692 32.6589C17.7314 32.7566 17.7825 32.9677 17.6847 33.1277C17.6203 33.2343 17.507 33.2921 17.3914 33.2921C17.3314 33.2921 17.2692 33.2766 17.2159 33.2432ZM22.8818 32.6722C22.7484 32.5389 22.7507 32.3211 22.884 32.1878C23.0173 32.0545 23.235 32.0545 23.3684 32.19C23.5017 32.3234 23.5017 32.5411 23.3661 32.6744C23.2995 32.7411 23.2128 32.7744 23.1262 32.7744C23.0373 32.7744 22.9484 32.7411 22.8818 32.6722ZM16.4604 32.6566C16.3249 32.5233 16.3249 32.3078 16.456 32.1723C16.5893 32.0367 16.8048 32.0367 16.9404 32.17C17.0759 32.3034 17.0759 32.5189 16.9426 32.6522C16.8759 32.7211 16.7871 32.7544 16.6982 32.7544C16.6138 32.7544 16.5271 32.7211 16.4604 32.6566ZM23.4883 32.0367C23.3261 31.9367 23.2773 31.7257 23.3772 31.5657C23.4772 31.4057 23.6883 31.3546 23.8483 31.4546C24.0083 31.5546 24.0594 31.7634 23.9594 31.9256C23.895 32.0301 23.7816 32.0878 23.6683 32.0878C23.6061 32.0878 23.5439 32.0723 23.4883 32.0367ZM15.865 31.9123C15.765 31.7523 15.8116 31.5412 15.9716 31.4413C16.1316 31.3413 16.3427 31.3879 16.4427 31.5479C16.5427 31.7079 16.496 31.919 16.336 32.019C16.2782 32.0545 16.216 32.0723 16.1538 32.0723C16.0405 32.0723 15.9294 32.0167 15.865 31.9123ZM23.9305 31.2768C23.7527 31.2146 23.6594 31.0191 23.7216 30.8413C23.7839 30.6636 23.9794 30.5703 24.1571 30.6325C24.3349 30.6947 24.4282 30.8902 24.366 31.068C24.3171 31.208 24.1838 31.2968 24.0438 31.2968C24.0061 31.2968 23.9683 31.2902 23.9305 31.2768ZM15.445 31.0635C15.3806 30.8858 15.4695 30.6902 15.6472 30.6236C15.825 30.5569 16.0205 30.648 16.0872 30.8258C16.1516 31.0013 16.0627 31.1991 15.885 31.2657C15.845 31.2813 15.805 31.2879 15.765 31.2879C15.6272 31.2857 15.4961 31.2013 15.445 31.0635Z" fill="#F5EFFF"/>
<path d="M24.246 30.4391C24.2238 30.4391 24.2015 30.4369 24.1793 30.4325C24.1571 30.428 24.1371 30.4214 24.1149 30.4125C24.0949 30.4036 24.0749 30.3925 24.0549 30.3814C24.0371 30.368 24.0194 30.3547 24.0038 30.3392C23.9882 30.3236 23.9727 30.3058 23.9616 30.2881C23.9482 30.2703 23.9371 30.2503 23.9305 30.2281C23.9216 30.2081 23.9149 30.1858 23.9105 30.1636C23.906 30.1414 23.9038 30.1192 23.9038 30.097C23.9038 30.0748 23.906 30.0525 23.9105 30.0303C23.9149 30.0081 23.9216 29.9881 23.9305 29.9659C23.9394 29.9459 23.9505 29.9259 23.9616 29.9081C23.9727 29.8903 23.9882 29.8726 24.0038 29.857C24.0194 29.8415 24.0371 29.8259 24.0549 29.8148C24.0727 29.8015 24.0927 29.7926 24.1149 29.7837C24.1349 29.7748 24.1571 29.7681 24.1793 29.7637C24.2238 29.7548 24.2682 29.7548 24.3126 29.7637C24.3349 29.7681 24.3549 29.7748 24.3771 29.7837C24.3971 29.7926 24.4171 29.8015 24.4348 29.8148C24.4526 29.8281 24.4704 29.8415 24.4882 29.857C24.5037 29.8726 24.5171 29.8903 24.5304 29.9081C24.5437 29.9259 24.5526 29.9459 24.5615 29.9659C24.5704 29.9859 24.577 30.0081 24.5815 30.0303C24.5859 30.0525 24.5882 30.0748 24.5882 30.097C24.5882 30.1192 24.5859 30.1414 24.5815 30.1636C24.577 30.1858 24.5704 30.2058 24.5615 30.2281C24.5526 30.2481 24.5437 30.2681 24.5304 30.2881C24.5171 30.3058 24.5037 30.3236 24.4882 30.3392C24.4726 30.3547 24.4548 30.3703 24.4348 30.3814C24.4171 30.3925 24.3971 30.4036 24.3771 30.4125C24.3571 30.4214 24.3349 30.428 24.3126 30.4325C24.2904 30.4369 24.2682 30.4391 24.246 30.4391Z" fill="#F5EFFF"/>
<path d="M26.9811 34.423C25.8434 36.6183 23.8015 38.7757 20.1665 38.7757C16.3159 38.7757 14.114 36.5405 12.8853 34.3964C16.0359 35.1651 21.393 35.9517 26.9811 34.423Z" fill="#F5EFFF"/>
<path d="M19.9093 29.5459V29.5505L19.8887 29.5482L19.9093 29.5459Z" fill="#5D46C2"/>
<path d="M19.8893 29.5482L19.8687 29.5505V29.5459L19.8893 29.5482Z" fill="#5D46C2"/>
<path d="M24.1236 9.19768C24.0769 9.37987 24.0147 9.56651 23.937 9.75316C23.9036 9.83314 23.8681 9.91536 23.8303 9.99757C23.8125 10.0353 23.7948 10.0731 23.7748 10.1131C23.0815 11.484 21.6573 12.3284 20.122 12.3284H18.7999C17.7312 12.3284 16.698 11.9173 15.9337 11.1685C15.5937 10.8352 15.2582 10.4419 14.996 9.9909C14.9516 9.91536 14.9093 9.83537 14.8694 9.75538C14.8449 9.70428 14.8205 9.65317 14.7983 9.59984C14.3028 8.42001 14.5583 6.62026 15.8759 5.42932C19.151 2.47196 25.1835 5.11158 24.1236 9.19768Z" fill="#E9356E"/>
<path d="M24.1237 9.19769C24.077 9.37989 24.0148 9.56653 23.9371 9.75317C23.9037 9.83316 23.8682 9.91537 23.8304 9.99758C23.8126 10.0354 23.7949 10.0731 23.7749 10.1131C23.0816 11.484 21.6574 12.3284 20.122 12.3284H18.8C17.7313 12.3284 16.6981 11.9173 15.9337 11.1685C15.5938 10.8352 15.2583 10.442 14.9961 9.99092C14.9517 9.91537 14.9094 9.83538 14.8694 9.7554C14.845 9.70429 14.8206 9.65318 14.7983 9.59986C15.7538 8.96661 17.4291 8.13562 19.6465 8.13562C21.413 8.13562 22.9839 8.66443 24.1237 9.19769Z" fill="#FFAC32"/>
<path d="M19.5931 25.5643C24.2279 25.5643 27.9852 21.807 27.9852 17.1721C27.9852 12.5373 24.2279 8.77997 19.5931 8.77997C14.9582 8.77997 11.2009 12.5373 11.2009 17.1721C11.2009 21.807 14.9582 25.5643 19.5931 25.5643Z" fill="#E9356E"/>
<path d="M22.9593 30.6441C22.9593 30.6441 22.1016 32.2483 19.7064 32.2483C17.3912 32.2483 16.418 30.5641 16.418 30.5641L16.5602 29.4109L16.5846 29.2176L16.8068 27.4001L22.5349 27.5601L22.6304 28.2511L22.6615 28.4777L22.9593 30.6441Z" fill="#FF8881"/>
<path d="M22.6281 28.2483C21.3305 29.3482 19.2308 29.7659 16.5601 29.4082L16.5845 29.2149L16.8067 27.3973L22.5348 27.5573L22.6281 28.2483Z" fill="#19274B"/>
<path d="M14.6538 22.6713C13.3718 24.46 10.6144 23.2513 10.801 20.8783C10.9721 18.7252 13.3762 19.0674 13.3762 19.0674L14.6538 22.6713Z" fill="#F55B5D"/>
<path d="M12.963 22.6491C12.963 22.8891 12.7697 23.0824 12.5297 23.0824C12.2897 23.0824 12.0964 22.8891 12.0964 22.6491C12.0964 22.4091 12.2897 22.2158 12.5297 22.2158C12.7697 22.2158 12.963 22.4114 12.963 22.6491Z" fill="#F5EFFF"/>
<path d="M13.4761 22.7158C13.3983 22.7158 13.3294 22.6624 13.3094 22.5847C13.0584 21.5648 12.0007 20.6138 11.9919 20.6049C11.9208 20.5427 11.9141 20.4339 11.9785 20.3628C12.0407 20.2917 12.1496 20.285 12.2207 20.3494C12.2674 20.3916 13.3694 21.3804 13.6449 22.5025C13.6672 22.5936 13.6116 22.6869 13.5205 22.7091C13.5027 22.7135 13.4894 22.7158 13.4761 22.7158Z" fill="#D1373F"/>
<path d="M13.0341 21.7492C13.0163 21.7492 12.9986 21.747 12.9808 21.7404C12.512 21.5826 12.0654 21.6781 12.0609 21.6804C11.9698 21.7004 11.8765 21.6426 11.8565 21.5515C11.8365 21.4604 11.8943 21.3693 11.9854 21.3471C12.0076 21.3426 12.5275 21.2293 13.0897 21.4182C13.1785 21.4471 13.2274 21.5448 13.1985 21.6337C13.1719 21.7026 13.1052 21.7492 13.0341 21.7492Z" fill="#D1373F"/>
<path d="M24.1414 22.6713C25.4234 24.46 28.1808 23.2513 27.9941 20.8783C27.8231 18.7252 25.419 19.0674 25.419 19.0674L24.1414 22.6713Z" fill="#F55B5D"/>
<path d="M26.701 22.6491C26.701 22.8891 26.5077 23.0824 26.2677 23.0824C26.0278 23.0824 25.8345 22.8891 25.8345 22.6491C25.8345 22.4091 26.0278 22.2158 26.2677 22.2158C26.5055 22.2158 26.701 22.4114 26.701 22.6491Z" fill="#F5EFFF"/>
<path d="M25.319 22.7158C25.3056 22.7158 25.2923 22.7136 25.279 22.7113C25.1879 22.6891 25.1301 22.5958 25.1545 22.5047C25.4301 21.3826 26.5321 20.3917 26.5788 20.3517C26.6499 20.2895 26.7565 20.2961 26.821 20.365C26.8832 20.4361 26.8765 20.5428 26.8077 20.6072C26.7965 20.6161 25.7389 21.5671 25.4901 22.5869C25.4656 22.6647 25.3967 22.7158 25.319 22.7158Z" fill="#D1373F"/>
<path d="M25.7612 21.7493C25.6901 21.7493 25.6234 21.7048 25.599 21.6315C25.5679 21.5426 25.6167 21.4449 25.7078 21.416C26.27 21.2271 26.7899 21.3404 26.8121 21.3449C26.9032 21.3649 26.9632 21.456 26.941 21.5493C26.921 21.6404 26.8299 21.6982 26.7366 21.6782C26.7321 21.6759 26.2833 21.5826 25.8167 21.7382C25.7967 21.7448 25.7789 21.7493 25.7612 21.7493Z" fill="#D1373F"/>
<path d="M12.8673 16.45C12.8673 16.45 12.2407 20.3295 13.8627 24.1245C15.3314 27.564 17.2867 28.635 19.3686 28.6683C21.735 28.7061 26.6898 27.3374 25.9055 16.1101C25.3767 8.52446 13.4939 8.79331 12.8673 16.45Z" fill="#FF8881"/>
<path d="M24.1414 13.9392C24.1414 13.9392 25.2479 16.9344 25.8367 17.7031L26.4833 15.7167C26.4833 15.7167 26.0145 9.98199 19.371 9.98199C12.5008 9.98199 12.7363 15.7167 12.7363 15.7167L13.3251 18.4164C13.3251 18.4164 15.0538 15.839 15.1849 14.1303C15.1849 14.1303 17.4823 16.6766 19.6087 16.3722C19.6087 16.3722 18.8288 15.5368 18.6199 14.8902C18.6199 14.8902 22.335 16.8499 24.8213 16.1434C24.8213 16.1434 24.1903 15.2324 24.1414 13.9392Z" fill="#E9356E"/>
<path d="M12.7363 15.7145C12.7363 15.7145 11.932 17.5543 12.3875 19.2052C12.843 20.856 14.7471 22.7802 13.3984 24.7177C12.052 26.6552 13.5184 29.4482 15.5493 28.9349C15.5493 28.9349 13.4251 28.7194 13.534 26.5108C13.6406 24.3022 15.8981 23.8645 14.1894 20.7583C12.4808 17.652 14.0184 15.2302 14.0184 15.2302L12.7363 15.7145Z" fill="#E9356E"/>
<path d="M26.4833 15.7145C26.4833 15.7145 27.2877 17.5543 26.8322 19.2052C26.3767 20.856 24.4725 22.7802 25.8212 24.7177C27.1677 26.6552 25.7012 29.4482 23.6704 28.9349C23.6704 28.9349 25.7946 28.7194 25.6857 26.5108C25.579 24.3022 23.3216 23.8645 25.0302 20.7583C26.7389 17.652 25.2013 15.2302 25.2013 15.2302L26.4833 15.7145Z" fill="#E9356E"/>
<path d="M15.0781 18.4164C15.0781 18.4164 15.9847 17.1543 17.5467 16.9921C17.8 16.9655 18.0244 17.161 18.0399 17.4143V17.4187C18.0555 17.6765 17.8511 17.8942 17.5933 17.8987C17.0067 17.9053 15.9758 17.9898 15.0781 18.4164Z" fill="#E9356E"/>
<path d="M23.8413 18.4164C23.8413 18.4164 22.9348 17.1543 21.3728 16.9921C21.1195 16.9655 20.895 17.161 20.8795 17.4143V17.4187C20.8639 17.6765 21.0684 17.8942 21.3261 17.8987C21.9127 17.9053 22.9414 17.9898 23.8413 18.4164Z" fill="#E9356E"/>
<path d="M19.6641 26.6552C19.1775 26.6552 18.7909 26.4841 18.7665 26.473C18.6954 26.4397 18.662 26.3552 18.6954 26.2841C18.7287 26.213 18.8131 26.1797 18.8842 26.213C18.8931 26.2175 19.773 26.6019 20.4773 26.1397C20.544 26.0953 20.6306 26.1153 20.6751 26.1797C20.7173 26.2464 20.6995 26.333 20.6351 26.3775C20.3107 26.5886 19.9663 26.6552 19.6641 26.6552Z" fill="#F55B5D"/>
<path d="M20.1687 23.0246C20.1642 23.0246 20.162 23.0246 20.1576 23.0246L19.1155 22.9402C19.0377 22.9335 18.9777 22.8647 18.9844 22.7869C18.9911 22.7091 19.0599 22.6513 19.1377 22.6558L20.0087 22.7269L19.7376 20.0784C19.7287 20.0006 19.7865 19.9295 19.8643 19.9228C19.942 19.914 20.0131 19.9717 20.0198 20.0495L20.3087 22.8691C20.3131 22.9113 20.2975 22.9535 20.2687 22.9824C20.242 23.0091 20.2064 23.0246 20.1687 23.0246Z" fill="#F55B5D"/>
<path d="M17.429 24.16C18.711 24.36 20.0153 24.4467 21.7617 24.1C21.7617 24.1 21.6106 25.9664 19.5375 25.9731C17.7733 25.9798 17.429 24.16 17.429 24.16Z" fill="#F5EFFF"/>
<path d="M17.3246 20.0628C17.3246 20.5561 17.1002 20.9582 16.8225 20.9582C16.5447 20.9582 16.3203 20.5583 16.3203 20.0628C16.3203 19.5695 16.5447 19.1674 16.8225 19.1674C17.1002 19.1696 17.3246 19.5695 17.3246 20.0628Z" fill="#19274B"/>
<path d="M22.6593 20.0628C22.6593 20.5561 22.4349 20.9582 22.1572 20.9582C21.8794 20.9582 21.655 20.5583 21.655 20.0628C21.655 19.5695 21.8794 19.1674 22.1572 19.1674C22.4349 19.1696 22.6593 19.5695 22.6593 20.0628Z" fill="#19274B"/>
<path d="M15.4914 21.8981C15.4914 21.9826 15.4226 22.0514 15.3381 22.0514C15.2537 22.0514 15.1848 21.9826 15.1848 21.8981C15.1848 21.8137 15.2537 21.7448 15.3381 21.7448C15.4226 21.7448 15.4914 21.8137 15.4914 21.8981Z" fill="#F55B5D"/>
<path d="M16.2424 22.2692C16.2424 22.3536 16.1735 22.4225 16.0891 22.4225C16.0047 22.4225 15.9358 22.3536 15.9358 22.2692C15.9358 22.1848 16.0047 22.1159 16.0891 22.1159C16.1735 22.1159 16.2424 22.1848 16.2424 22.2692Z" fill="#F55B5D"/>
<path d="M15.4914 22.8047C15.4914 22.8891 15.4226 22.958 15.3381 22.958C15.2537 22.958 15.1848 22.8891 15.1848 22.8047C15.1848 22.7202 15.2537 22.6514 15.3381 22.6514C15.4226 22.6491 15.4914 22.7202 15.4914 22.8047Z" fill="#F55B5D"/>
<path d="M16.6736 22.958C16.6736 23.0424 16.6047 23.1113 16.5203 23.1113C16.4358 23.1113 16.3669 23.0424 16.3669 22.958C16.3669 22.8736 16.4358 22.8047 16.5203 22.8047C16.6047 22.8047 16.6736 22.8736 16.6736 22.958Z" fill="#F55B5D"/>
<path d="M17.4599 22.8047C17.4599 22.8891 17.3911 22.958 17.3066 22.958C17.2222 22.958 17.1533 22.8891 17.1533 22.8047C17.1533 22.7202 17.2222 22.6514 17.3066 22.6514C17.3911 22.6491 17.4599 22.7202 17.4599 22.8047Z" fill="#F55B5D"/>
<path d="M17.1023 22.0514C17.1023 22.1359 17.0334 22.2048 16.949 22.2048C16.8645 22.2048 16.7957 22.1359 16.7957 22.0514C16.7957 21.967 16.8645 21.8981 16.949 21.8981C17.0334 21.8981 17.1023 21.967 17.1023 22.0514Z" fill="#F55B5D"/>
<path d="M23.7903 21.8981C23.7903 21.9826 23.8592 22.0514 23.9436 22.0514C24.028 22.0514 24.0969 21.9826 24.0969 21.8981C24.0969 21.8137 24.028 21.7448 23.9436 21.7448C23.8592 21.7448 23.7903 21.8137 23.7903 21.8981Z" fill="#F55B5D"/>
<path d="M23.1926 22.4225C23.2773 22.4225 23.3459 22.3539 23.3459 22.2692C23.3459 22.1845 23.2773 22.1159 23.1926 22.1159C23.1079 22.1159 23.0393 22.1845 23.0393 22.2692C23.0393 22.3539 23.1079 22.4225 23.1926 22.4225Z" fill="#F55B5D"/>
<path d="M23.7903 22.8047C23.7903 22.8891 23.8592 22.958 23.9436 22.958C24.028 22.958 24.0969 22.8891 24.0969 22.8047C24.0969 22.7202 24.028 22.6514 23.9436 22.6514C23.8592 22.6491 23.7903 22.7202 23.7903 22.8047Z" fill="#F55B5D"/>
<path d="M22.6106 22.958C22.6106 23.0424 22.6795 23.1113 22.7639 23.1113C22.8483 23.1113 22.9172 23.0424 22.9172 22.958C22.9172 22.8736 22.8483 22.8047 22.7639 22.8047C22.6795 22.8047 22.6106 22.8736 22.6106 22.958Z" fill="#F55B5D"/>
<path d="M21.8218 22.8047C21.8218 22.8891 21.8907 22.958 21.9751 22.958C22.0595 22.958 22.1284 22.8891 22.1284 22.8047C22.1284 22.7202 22.0595 22.6514 21.9751 22.6514C21.8907 22.6491 21.8218 22.7202 21.8218 22.8047Z" fill="#F55B5D"/>
<path d="M22.1794 22.0514C22.1794 22.1359 22.2483 22.2048 22.3328 22.2048C22.4172 22.2048 22.4861 22.1359 22.4861 22.0514C22.4861 21.967 22.4172 21.8981 22.3328 21.8981C22.2483 21.8981 22.1794 21.967 22.1794 22.0514Z" fill="#F55B5D"/>
<path d="M30.9677 34.6572C26.1168 33.2162 22.6916 30.6684 19.5342 29.5207C16.3768 30.6684 12.9516 33.2162 8.10074 34.6572C0.4036 36.9424 -1.51941 26.6617 3.97417 23.0758C8.80975 19.9209 8.23336 19.393 9.49836 13.9836C9.57997 13.6316 9.66924 13.2618 9.77125 12.8665C9.88092 12.4329 10.0008 11.9739 10.136 11.4842C10.215 11.1985 10.2992 10.9231 10.3859 10.6553C11.707 6.59506 15.4918 4.03189 19.5368 4.17217C23.5817 4.03189 27.3665 6.59506 28.6876 10.6553C28.7744 10.9206 28.856 11.1985 28.9376 11.4842C29.0728 11.9739 29.1952 12.4329 29.3023 12.8665C29.4018 13.2618 29.491 13.6342 29.5752 13.9836C30.8402 19.3956 30.2638 19.9209 35.0994 23.0758C40.5904 26.6591 38.6648 36.9398 30.9677 34.6572Z" fill="#5A184A"/>
<path d="M39.4122 40.0018H1.40601C1.40601 40.0018 1.91609 37.584 2.64295 35.156C3.36982 32.728 4.87201 31.7104 6.81798 31.2131C7.36631 31.0728 8.37117 30.7795 9.53161 30.4352C10.1871 30.2388 10.8961 30.0246 11.5974 29.8129C14.0458 29.0682 16.4356 28.326 16.4356 28.326L20.3887 28.0097L20.4117 28.0072L20.4346 28.0097L24.0001 28.2954C24.0001 28.2954 26.145 28.9381 28.4863 29.6318C30.6847 30.2796 33.0591 30.9733 34.0002 31.2156C35.9462 31.7155 37.4484 32.7306 38.1753 35.1585C38.9021 37.584 39.4122 40.0018 39.4122 40.0018Z" fill="#E9356E"/>
<path d="M5.58114 34.8536C5.53778 34.8536 5.49697 34.8408 5.46127 34.8128L4.45386 34.0247C4.36969 33.9584 4.35439 33.836 4.4207 33.7493C4.48701 33.6651 4.60943 33.6498 4.69614 33.7161L5.70356 34.5042C5.78772 34.5705 5.80302 34.6929 5.73671 34.7796C5.69591 34.8281 5.6398 34.8536 5.58114 34.8536Z" fill="#C4205C"/>
<path d="M5.58114 39.1102C5.53778 39.1102 5.49697 39.0975 5.46127 39.0694L4.45386 38.2814C4.36969 38.2151 4.35439 38.0926 4.4207 38.0059C4.48701 37.9218 4.60943 37.9065 4.69614 37.9728L5.70356 38.7608C5.78772 38.8272 5.80302 38.9496 5.73671 39.0363C5.69591 39.0847 5.6398 39.1102 5.58114 39.1102Z" fill="#C4205C"/>
<path d="M11.4622 33.2927C11.4265 33.2927 11.3908 33.2825 11.3602 33.2647C11.2684 33.2086 11.2403 33.0861 11.2964 32.9943L11.9672 31.9053C12.0233 31.8135 12.1457 31.7854 12.2375 31.8415C12.3294 31.8977 12.3574 32.0201 12.3013 32.1119L11.6305 33.2009C11.5923 33.2596 11.5285 33.2927 11.4622 33.2927Z" fill="#C4205C"/>
<path d="M8.2359 37.5341C8.20019 37.5341 8.16448 37.5239 8.13388 37.506C8.04207 37.4499 8.01401 37.3275 8.07012 37.2357L8.74088 36.1466C8.79699 36.0548 8.91941 36.0268 9.01122 36.0829C9.10304 36.139 9.13109 36.2614 9.07498 36.3532L8.40422 37.4422C8.36597 37.5009 8.30221 37.5341 8.2359 37.5341Z" fill="#C4205C"/>
<path d="M9.67196 32.1935C9.68472 32.2267 9.68727 32.2624 9.67962 32.3006C9.65921 32.4078 9.55465 32.4741 9.45008 32.4537L8.19528 32.2012C8.08816 32.1808 8.02185 32.0762 8.04225 31.9716C8.06266 31.8645 8.16722 31.7982 8.27179 31.8186L9.52659 32.0711C9.59545 32.0839 9.64901 32.1323 9.67196 32.1935Z" fill="#C4205C"/>
<path d="M13.9923 36.973C13.9489 36.973 13.9081 36.9602 13.8724 36.9322L12.865 36.1441C12.7808 36.0778 12.7655 35.9554 12.8318 35.8687C12.8981 35.7845 13.0206 35.7692 13.1073 35.8355L14.1147 36.6236C14.1989 36.6899 14.2142 36.8123 14.1478 36.899C14.107 36.9475 14.0509 36.973 13.9923 36.973Z" fill="#C4205C"/>
<path d="M10.3886 39.0796C10.3631 39.0643 10.3401 39.0414 10.3248 39.0133C10.2713 38.919 10.3019 38.7991 10.3963 38.7455L11.5057 38.1079C11.6001 38.0544 11.7199 38.085 11.7735 38.1793C11.827 38.2737 11.7964 38.3936 11.7021 38.4471L10.5926 39.0847C10.5263 39.1204 10.4498 39.1153 10.3886 39.0796Z" fill="#C4205C"/>
<path d="M27.846 34.8536C27.8027 34.8536 27.7619 34.8408 27.7262 34.8128L26.7187 34.0247C26.6346 33.9584 26.6193 33.836 26.6856 33.7493C26.7519 33.6651 26.8743 33.6498 26.961 33.7161L27.9685 34.5042C28.0526 34.5705 28.0679 34.6929 28.0016 34.7796C27.9608 34.8281 27.9047 34.8536 27.846 34.8536Z" fill="#C4205C"/>
<path d="M27.846 39.1102C27.8027 39.1102 27.7619 39.0975 27.7262 39.0694L26.7187 38.2814C26.6346 38.2151 26.6193 38.0926 26.6856 38.0059C26.7519 37.9218 26.8743 37.9065 26.961 37.9728L27.9685 38.7608C28.0526 38.8272 28.0679 38.9496 28.0016 39.0363C27.9608 39.0847 27.9047 39.1102 27.846 39.1102Z" fill="#C4205C"/>
<path d="M33.73 33.2927C33.6943 33.2927 33.6586 33.2825 33.628 33.2647C33.5362 33.2086 33.5082 33.0861 33.5643 32.9943L34.235 31.9053C34.2911 31.8135 34.4135 31.7854 34.5054 31.8415C34.5972 31.8977 34.6252 32.0201 34.5691 32.1119L33.8984 33.2009C33.8576 33.2596 33.7938 33.2927 33.73 33.2927Z" fill="#C4205C"/>
<path d="M30.5037 37.5341C30.468 37.5341 30.4323 37.5239 30.4017 37.506C30.3099 37.4499 30.2818 37.3275 30.3379 37.2357L31.0087 36.1466C31.0648 36.0548 31.1872 36.0268 31.279 36.0829C31.3709 36.139 31.3989 36.2614 31.3428 36.3532L30.672 37.4422C30.6338 37.5009 30.57 37.5341 30.5037 37.5341Z" fill="#C4205C"/>
<path d="M37.3694 39.3347C37.3337 39.3347 37.298 39.3245 37.2674 39.3066C37.1756 39.2505 37.1476 39.1281 37.2037 39.0363L37.8744 37.9472C37.9305 37.8554 38.053 37.8274 38.1448 37.8835C38.2366 37.9396 38.2646 38.062 38.2085 38.1538L37.5378 39.2428C37.4995 39.3015 37.4358 39.3347 37.3694 39.3347Z" fill="#C4205C"/>
<path d="M31.9369 32.1935C31.9496 32.2267 31.9522 32.2624 31.9445 32.3006C31.9241 32.4078 31.8195 32.4741 31.715 32.4537L30.4602 32.2012C30.3531 32.1808 30.2867 32.0762 30.3071 31.9716C30.3275 31.8645 30.4321 31.7982 30.5367 31.8186L31.7915 32.0711C31.8603 32.0839 31.9139 32.1323 31.9369 32.1935Z" fill="#C4205C"/>
<path d="M36.2574 36.1645C36.2141 36.1645 36.1732 36.1518 36.1375 36.1237L35.1301 35.3356C35.046 35.2693 35.0307 35.1469 35.097 35.0602C35.1633 34.976 35.2857 34.9607 35.3724 35.027L36.3798 35.8151C36.464 35.8814 36.4793 36.0038 36.413 36.0905C36.3747 36.139 36.3161 36.1645 36.2574 36.1645Z" fill="#C4205C"/>
<path d="M32.6562 39.0796C32.6307 39.0643 32.6077 39.0414 32.5924 39.0133C32.5389 38.919 32.5695 38.7991 32.6638 38.7455L33.7733 38.1079C33.8676 38.0544 33.9875 38.085 34.0411 38.1793C34.0946 38.2737 34.064 38.3936 33.9696 38.4471L32.8602 39.0847C32.7939 39.1204 32.7148 39.1153 32.6562 39.0796Z" fill="#C4205C"/>
<path d="M20.3939 35.5932C20.3582 35.5932 20.3224 35.583 20.2918 35.5651C20.2 35.509 20.172 35.3866 20.2281 35.2948L20.8988 34.2058C20.9549 34.114 21.0774 34.0859 21.1692 34.142C21.261 34.1981 21.2891 34.3205 21.2329 34.4124L20.5622 35.5014C20.5239 35.56 20.4602 35.5932 20.3939 35.5932Z" fill="#C4205C"/>
<path d="M17.285 39.0133C17.2493 39.0133 17.2136 39.0031 17.183 38.9852C17.0911 38.9291 17.0631 38.8067 17.1192 38.7149L17.7899 37.6259C17.8461 37.5341 17.9685 37.506 18.0603 37.5621C18.1521 37.6182 18.1802 37.7407 18.1241 37.8325L17.4533 38.9215C17.415 38.9801 17.3513 39.0133 17.285 39.0133Z" fill="#C4205C"/>
<path d="M17.5296 34.9122C17.5424 34.9454 17.5449 34.9811 17.5373 35.0193C17.5169 35.1265 17.4123 35.1928 17.3077 35.1724L16.0529 34.9199C15.9458 34.8995 15.8795 34.7949 15.8999 34.6903C15.9203 34.5832 16.0249 34.5169 16.1295 34.5373L17.3843 34.7898C17.4531 34.8026 17.5067 34.851 17.5296 34.9122Z" fill="#C4205C"/>
<path d="M24.8824 36.0344C24.8391 36.0344 24.7982 36.0217 24.7625 35.9936L23.7551 35.2056C23.671 35.1392 23.6557 35.0168 23.722 34.9301C23.7883 34.846 23.9107 34.8306 23.9974 34.897L25.0048 35.685C25.089 35.7513 25.1043 35.8738 25.038 35.9605C24.9972 36.0089 24.9411 36.0344 24.8824 36.0344Z" fill="#C4205C"/>
<path d="M21.0571 39.1255C21.0316 39.1102 21.0086 39.0873 20.9933 39.0592C20.9397 38.9649 20.9703 38.845 21.0647 38.7914L22.1741 38.1538C22.2685 38.1003 22.3884 38.1309 22.4419 38.2252C22.4955 38.3196 22.4649 38.4395 22.3705 38.493L21.2611 39.1306C21.1948 39.1689 21.1183 39.1638 21.0571 39.1255Z" fill="#C4205C"/>
<path d="M20.4323 28.0007V28.0058L20.4116 28.0033L20.4323 28.0007Z" fill="#5D46C2"/>
<path d="M20.4119 28.0033L20.3887 28.0058V28.0007L20.4119 28.0033Z" fill="#5D46C2"/>
<path d="M23.9361 29.2606C23.9361 29.2606 22.9517 31.102 20.2023 31.102C17.5448 31.102 16.4277 29.1688 16.4277 29.1688L16.591 27.8451L16.619 27.6232L16.8741 25.537L23.449 25.7206L23.5587 26.5138L23.5944 26.7739L23.9361 29.2606Z" fill="#FF8881"/>
<path d="M26.5146 32.1093C24.8797 34.216 21.3296 33.081 20.1768 31.5406C19.024 33.081 15.4764 34.2134 13.839 32.1093C12.2629 30.0818 16.5322 28.3143 16.5322 28.3143C16.9684 30.2781 19.3632 30.9081 20.1768 31.0611C20.9904 30.9081 23.3699 30.2807 23.806 28.3143C23.8035 28.3143 28.0882 30.0792 26.5146 32.1093Z" fill="#F5EFFF"/>
<path d="M23.5536 26.5112C22.0641 27.7737 19.654 28.2532 16.5884 27.8425L16.6164 27.6207L16.8715 25.5344L23.4464 25.7181L23.5536 26.5112Z" fill="#19274B"/>
<path d="M14.4027 20.1097C12.9311 22.1628 9.76609 20.7753 9.98032 18.0515C10.1767 15.5802 12.9362 15.9729 12.9362 15.9729L14.4027 20.1097Z" fill="#F55B5D"/>
<path d="M12.8752 21.1758C12.8752 21.6808 12.4671 22.0889 11.9621 22.0889C11.4571 22.0889 11.0491 21.6808 11.0491 21.1758C11.0491 20.6708 11.4571 20.2628 11.9621 20.2628C12.4671 20.2628 12.8752 20.6708 12.8752 21.1758Z" fill="#FFAC32"/>
<path d="M13.0485 20.1607C12.9593 20.1607 12.8802 20.0995 12.8573 20.0102C12.5716 18.8421 11.3551 17.748 11.3449 17.7378C11.2633 17.6664 11.2556 17.5414 11.3296 17.4598C11.401 17.3782 11.526 17.3705 11.6076 17.4445C11.6611 17.493 12.9261 18.6279 13.2424 19.9158C13.2679 20.0204 13.2041 20.1275 13.0996 20.153C13.0792 20.1581 13.0638 20.1607 13.0485 20.1607Z" fill="#D1373F"/>
<path d="M12.5435 19.0513C12.5231 19.0513 12.5027 19.0487 12.4823 19.0411C11.9442 18.86 11.4315 18.9697 11.4264 18.9722C11.3219 18.9952 11.2173 18.9289 11.1918 18.8243C11.1688 18.7197 11.2352 18.6152 11.3397 18.5897C11.3652 18.5846 11.962 18.4545 12.6073 18.6713C12.7093 18.7044 12.7654 18.8166 12.7322 18.9187C12.7016 18.9977 12.6251 19.0513 12.5435 19.0513Z" fill="#D1373F"/>
<path d="M25.2905 20.1097C26.7621 22.1628 29.9272 20.7753 29.7129 18.0515C29.5166 15.5802 26.757 15.9729 26.757 15.9729L25.2905 20.1097Z" fill="#F55B5D"/>
<path d="M28.726 21.1758C28.726 21.6808 28.3179 22.0889 27.813 22.0889C27.308 22.0889 26.8999 21.6808 26.8999 21.1758C26.8999 20.6708 27.308 20.2628 27.813 20.2628C28.3179 20.2628 28.726 20.6708 28.726 21.1758Z" fill="#FFAC32"/>
<path d="M26.6449 20.1607C26.6296 20.1607 26.6143 20.1581 26.599 20.1556C26.4944 20.1301 26.4281 20.023 26.4562 19.9184C26.7724 18.6304 28.0374 17.493 28.091 17.4471C28.1726 17.3756 28.295 17.3833 28.369 17.4624C28.4404 17.544 28.4327 17.6664 28.3537 17.7403C28.3409 17.7506 27.1269 18.8421 26.8413 20.0128C26.8132 20.102 26.7316 20.1607 26.6449 20.1607Z" fill="#D1373F"/>
<path d="M27.1498 19.0513C27.0682 19.0513 26.9917 19.0003 26.9636 18.9161C26.9305 18.8141 26.984 18.7019 27.0886 18.6687C27.7339 18.4519 28.3307 18.582 28.3562 18.5871C28.4607 18.61 28.5296 18.7146 28.5041 18.8217C28.4811 18.9263 28.3766 18.9926 28.2694 18.9697C28.2643 18.9697 27.7517 18.86 27.2136 19.0385C27.1932 19.0462 27.1702 19.0513 27.1498 19.0513Z" fill="#D1373F"/>
<path d="M12.3522 12.9686C12.3522 12.9686 11.633 17.4216 13.4948 21.7777C15.1806 25.7257 17.425 26.955 19.8147 26.9933C22.5309 27.0366 28.2183 25.4656 27.318 12.5783C26.7085 3.87124 13.0714 4.17984 12.3522 12.9686Z" fill="#FF8881"/>
<path d="M11.9622 14.9375C11.9622 14.9375 12.105 17.697 13.2501 17.5924C14.3952 17.4879 13.8393 11.2751 13.8393 11.2751C13.8393 11.2751 14.8594 12.7798 16.7212 12.6166C18.583 12.4534 16.8947 10.033 16.8947 10.033C16.8947 10.033 18.6111 12.4202 20.1847 12.3233C21.7557 12.2264 20.1847 9.28065 20.1847 9.28065C20.1847 9.28065 22.2378 12.6166 23.7144 12.5197C25.1911 12.4228 23.9414 9.64282 23.9414 9.64282C23.9414 9.64282 25.1172 12.7186 26.2394 12.9456C26.2394 12.9456 25.9563 17.4751 27.1575 17.2838C28.3562 17.0926 27.9124 12.03 27.4202 10.4921C26.928 8.9542 24.2832 5.09543 19.1951 5.58511C14.0994 6.07479 12.054 8.88789 11.9622 14.9375Z" fill="#5A184A"/>
<path d="M14.8875 15.2256C14.8875 15.2256 15.928 13.777 17.721 13.5908C18.0117 13.5602 18.2693 13.7846 18.2871 14.0754V14.0805C18.305 14.3763 18.0704 14.6263 17.7745 14.6314C17.1012 14.639 15.9204 14.7359 14.8875 15.2256Z" fill="#5A184A"/>
<path d="M24.9461 15.2256C24.9461 15.2256 23.9055 13.777 22.1126 13.5908C21.8218 13.5602 21.5642 13.7846 21.5464 14.0754V14.0805C21.5285 14.3763 21.7632 14.6263 22.059 14.6314C22.7323 14.639 23.9157 14.7359 24.9461 15.2256Z" fill="#5A184A"/>
<path d="M20.1513 24.6826C19.5928 24.6826 19.149 24.4862 19.1209 24.4734C19.0393 24.4352 19.0011 24.3382 19.0393 24.2566C19.0776 24.175 19.1745 24.1368 19.2561 24.175C19.2714 24.1801 20.2763 24.6213 21.0848 24.0909C21.1613 24.0424 21.2607 24.0628 21.3117 24.1368C21.3602 24.2133 21.3398 24.3127 21.2658 24.3638C20.8935 24.606 20.5007 24.6826 20.1513 24.6826Z" fill="#F55B5D"/>
<path d="M20.7303 20.5152C20.7252 20.5152 20.7227 20.5152 20.7176 20.5152L19.5214 20.4183C19.4322 20.4106 19.3633 20.3316 19.3709 20.2423C19.3786 20.1531 19.4577 20.0867 19.5469 20.0918L20.5467 20.1734L20.2355 17.1334C20.2253 17.0441 20.2916 16.9625 20.3809 16.9548C20.4702 16.9446 20.5518 17.0109 20.5594 17.1002L20.891 20.3367C20.8961 20.3851 20.8782 20.4336 20.8451 20.4668C20.817 20.4974 20.7737 20.5152 20.7303 20.5152Z" fill="#F55B5D"/>
<path d="M17.5857 21.8184C19.0573 22.048 20.5544 22.1474 22.559 21.7496C22.559 21.7496 22.3856 23.8919 20.006 23.8996C17.9836 23.9072 17.5857 21.8184 17.5857 21.8184Z" fill="#F5EFFF"/>
<path d="M17.4685 17.1155C17.4685 17.6817 17.2109 18.1433 16.8921 18.1433C16.5733 18.1433 16.3157 17.6843 16.3157 17.1155C16.3157 16.5493 16.5733 16.0877 16.8921 16.0877C17.2109 16.0903 17.4685 16.5493 17.4685 17.1155Z" fill="#19274B"/>
<path d="M23.0156 18.1433C23.3339 18.1433 23.592 17.6832 23.592 17.1155C23.592 16.5479 23.3339 16.0877 23.0156 16.0877C22.6973 16.0877 22.4392 16.5479 22.4392 17.1155C22.4392 17.6832 22.6973 18.1433 23.0156 18.1433Z" fill="#19274B"/>
<path d="M15.3642 19.2222C15.3642 19.3191 15.2851 19.3982 15.1882 19.3982C15.0913 19.3982 15.0122 19.3191 15.0122 19.2222C15.0122 19.1253 15.0913 19.0462 15.1882 19.0462C15.2851 19.0462 15.3642 19.1253 15.3642 19.2222Z" fill="#F55B5D"/>
<path d="M16.0478 19.8241C16.145 19.8241 16.2238 19.7453 16.2238 19.6481C16.2238 19.5509 16.145 19.4721 16.0478 19.4721C15.9506 19.4721 15.8718 19.5509 15.8718 19.6481C15.8718 19.7453 15.9506 19.8241 16.0478 19.8241Z" fill="#F55B5D"/>
<path d="M15.3642 20.2628C15.3642 20.3597 15.2851 20.4387 15.1882 20.4387C15.0913 20.4387 15.0122 20.3597 15.0122 20.2628C15.0122 20.1659 15.0913 20.0868 15.1882 20.0868C15.2851 20.0842 15.3642 20.1659 15.3642 20.2628Z" fill="#F55B5D"/>
<path d="M16.7184 20.4387C16.7184 20.5357 16.6393 20.6147 16.5424 20.6147C16.4455 20.6147 16.3665 20.5357 16.3665 20.4387C16.3665 20.3418 16.4455 20.2628 16.5424 20.2628C16.6393 20.2628 16.7184 20.3418 16.7184 20.4387Z" fill="#F55B5D"/>
<path d="M17.6212 20.2628C17.6212 20.3597 17.5422 20.4387 17.4453 20.4387C17.3483 20.4387 17.2693 20.3597 17.2693 20.2628C17.2693 20.1659 17.3483 20.0868 17.4453 20.0868C17.5422 20.0842 17.6212 20.1659 17.6212 20.2628Z" fill="#F55B5D"/>
<path d="M17.2106 19.3981C17.2106 19.4951 17.1315 19.5741 17.0346 19.5741C16.9377 19.5741 16.8586 19.4951 16.8586 19.3981C16.8586 19.3012 16.9377 19.2222 17.0346 19.2222C17.1315 19.2222 17.2106 19.3012 17.2106 19.3981Z" fill="#F55B5D"/>
<path d="M24.8875 19.2222C24.8875 19.3191 24.9665 19.3982 25.0634 19.3982C25.1603 19.3982 25.2394 19.3191 25.2394 19.2222C25.2394 19.1253 25.1603 19.0462 25.0634 19.0462C24.9665 19.0462 24.8875 19.1253 24.8875 19.2222Z" fill="#F55B5D"/>
<path d="M24.2041 19.8241C24.3012 19.8241 24.38 19.7453 24.38 19.6481C24.38 19.5509 24.3012 19.4721 24.2041 19.4721C24.1069 19.4721 24.0281 19.5509 24.0281 19.6481C24.0281 19.7453 24.1069 19.8241 24.2041 19.8241Z" fill="#F55B5D"/>
<path d="M24.8875 20.2628C24.8875 20.3597 24.9665 20.4387 25.0634 20.4387C25.1603 20.4387 25.2394 20.3597 25.2394 20.2628C25.2394 20.1659 25.1603 20.0868 25.0634 20.0868C24.9665 20.0842 24.8875 20.1659 24.8875 20.2628Z" fill="#F55B5D"/>
<path d="M23.5332 20.4387C23.5332 20.5357 23.6123 20.6147 23.7092 20.6147C23.8061 20.6147 23.8852 20.5357 23.8852 20.4387C23.8852 20.3418 23.8061 20.2628 23.7092 20.2628C23.6123 20.2628 23.5332 20.3418 23.5332 20.4387Z" fill="#F55B5D"/>
<path d="M22.6304 20.2628C22.6304 20.3597 22.7094 20.4387 22.8064 20.4387C22.9033 20.4387 22.9823 20.3597 22.9823 20.2628C22.9823 20.1659 22.9033 20.0868 22.8064 20.0868C22.7094 20.0842 22.6304 20.1659 22.6304 20.2628Z" fill="#F55B5D"/>
<path d="M23.041 19.3981C23.041 19.4951 23.1201 19.5741 23.217 19.5741C23.3139 19.5741 23.393 19.4951 23.393 19.3981C23.393 19.3012 23.3139 19.2222 23.217 19.2222C23.1201 19.2222 23.041 19.3012 23.041 19.3981Z" fill="#F55B5D"/>
<path d="M16.6623 20.4795C15.0734 20.4795 13.7778 19.1864 13.7778 17.595C13.7778 16.0061 15.0709 14.7104 16.6623 14.7104C18.2513 14.7104 19.5469 16.0035 19.5469 17.595C19.5443 19.1864 18.2513 20.4795 16.6623 20.4795ZM16.6623 14.9731C15.2163 14.9731 14.0405 16.1489 14.0405 17.595C14.0405 19.041 15.2163 20.2168 16.6623 20.2168C18.1084 20.2168 19.2842 19.041 19.2842 17.595C19.2842 16.1489 18.1059 14.9731 16.6623 14.9731Z" fill="#F5EFFF"/>
<path d="M23.6047 20.4795C22.0158 20.4795 20.7202 19.1864 20.7202 17.595C20.7202 16.0061 22.0133 14.7104 23.6047 14.7104C25.1936 14.7104 26.4892 16.0035 26.4892 17.595C26.4867 19.1864 25.1936 20.4795 23.6047 20.4795ZM23.6047 14.9731C22.1586 14.9731 20.9829 16.1489 20.9829 17.595C20.9829 19.041 22.1586 20.2168 23.6047 20.2168C25.0508 20.2168 26.2265 19.041 26.2265 17.595C26.2265 16.1489 25.0508 14.9731 23.6047 14.9731Z" fill="#F5EFFF"/>
<path d="M26.1932 16.7916C26.1626 16.7916 26.1294 16.7814 26.1039 16.7584C26.0504 16.71 26.0478 16.6258 26.0963 16.5748C26.132 16.5365 26.9838 15.6158 28.2616 15.8275C28.333 15.8403 28.3815 15.9066 28.3687 15.978C28.356 16.0494 28.2896 16.0979 28.2182 16.0851C27.0808 15.8989 26.2978 16.7431 26.2901 16.7508C26.2646 16.7763 26.2289 16.7916 26.1932 16.7916Z" fill="#F5EFFF"/>
<path d="M14.0916 16.738C14.0585 16.738 14.0228 16.7253 13.9973 16.6972C13.982 16.6819 12.9516 15.6516 11.6815 16.0775C11.6126 16.1004 11.5387 16.0647 11.5157 15.9959C11.4928 15.927 11.5285 15.853 11.5973 15.8301C13.0307 15.3506 14.1375 16.4677 14.186 16.5161C14.237 16.5672 14.2345 16.6513 14.1835 16.7023C14.158 16.7253 14.1248 16.738 14.0916 16.738Z" fill="#F5EFFF"/>
<path d="M19.4143 17.3322C19.4118 17.3322 19.4092 17.3322 19.4067 17.3322C19.3353 17.3271 19.2792 17.2659 19.2843 17.192C19.2996 16.9624 19.4959 16.5289 20.1335 16.5289C20.7711 16.5289 20.9675 16.9624 20.9828 17.192C20.9879 17.2634 20.9318 17.3271 20.8604 17.3322C20.789 17.3373 20.7252 17.2812 20.7201 17.2098C20.7176 17.169 20.6691 16.7916 20.131 16.7916C19.5776 16.7916 19.5444 17.192 19.5444 17.2098C19.5393 17.2787 19.4832 17.3322 19.4143 17.3322Z" fill="#F5EFFF"/>
</g>
</g>
</g>
</svg>
