<svg width="107" height="58" viewBox="0 0 107 58" fill="none" xmlns="http://www.w3.org/2000/svg">
<path d="M16.4689 0.201172H7.76453L0.0273438 24.3453H4.69038L6.83192 17.7135H17.5396L19.7848 24.3453H24.4478L16.4689 0.201172ZM8.0754 13.8794L12.1167 1.41011L16.2616 13.8794H8.0754ZM30.8294 24.3799V0.201172H26.5463V24.3799H30.8294ZM40.2711 6.55672V0.201172H35.988V6.55672H33.3974V9.9072H33.8119C33.8119 9.9072 35.988 9.9072 35.988 12.2905V19.9932C35.988 22.4456 37.9568 24.3799 40.3747 24.3799H43.3107V20.5804H41.6182C40.8928 20.5804 40.2711 19.9586 40.2711 19.2333V12.6014C40.2711 10.0454 34.8481 9.9072 33.9501 9.9072H43.3107V6.55672H40.2711ZM13.6365 43.1952C13.6365 43.1952 9.00801 42.1244 8.86984 42.0899C7.3155 41.6754 6.00294 40.9155 6.00294 39.3266C6.00294 37.5996 8.10994 36.1834 10.7696 36.1834C14.0165 36.1834 15.8471 38.1868 15.8471 40.1556H20.372C20.372 35.9416 17.0906 32.3839 10.7696 32.3839C5.41574 32.3839 1.47807 35.2508 1.47807 39.3612C1.47807 43.6097 4.17227 45.6476 8.10994 46.5457C8.10994 46.5457 12.773 47.6165 12.8766 47.651C14.6727 48.1 16.158 48.9981 16.158 50.7597C16.158 52.9358 13.4638 54.3174 10.6314 54.0756C6.79738 53.7648 5.3812 51.2433 5.3812 49.4471H0.890869C0.890869 53.3848 4.17227 57.737 10.7005 57.9097C15.6053 58.0133 20.6829 55.3191 20.6829 50.7597C20.6829 46.5457 17.7814 44.1969 13.6365 43.1952ZM31.6893 53.8684C28.9606 53.8684 27.5098 51.2778 27.5098 48.3073C27.5098 45.3022 29.306 42.7462 31.6548 42.7462C33.52 42.7462 35.0052 44.1278 35.5234 46.0276H40.1519C39.392 41.5718 35.8342 38.9467 31.6202 38.9467C26.8881 38.9467 22.7777 43.0916 23.0195 48.8599C23.2268 54.2483 27.0954 57.6334 31.7239 57.6334C36.0415 57.6334 39.2538 54.7665 40.0828 50.8633H35.3161C34.9362 52.4177 33.5545 53.8684 31.6893 53.8684ZM47.3577 46.7529V46.8566V46.7529ZM52.2625 39.0157C49.6374 39.223 47.3923 41.9517 47.3577 46.7529C47.3923 44.3696 48.463 42.6426 50.9154 42.6426C53.6096 42.6426 54.4732 44.6459 54.4732 46.8566V57.2534H58.7908V45.4058C58.7908 41.2609 55.3712 38.774 52.2625 39.0157ZM43.0746 33.0747V57.2534H47.3577V33.0747H43.0746ZM70.4162 38.9467C65.8223 38.9467 61.6083 42.3662 61.6083 48.3073C61.6083 54.2483 65.7532 57.5988 70.4162 57.6334C75.1138 57.5988 79.2587 54.2138 79.2587 48.3073C79.2587 42.3662 75.0102 38.9467 70.4162 38.9467ZM70.4162 53.8338C68.1365 53.8338 65.9259 52.0377 65.9259 48.3073C65.9259 44.7841 68.102 42.7807 70.4162 42.7462C72.765 42.7807 74.9411 44.8186 74.9411 48.3073C74.9411 52.0377 72.7305 53.8338 70.4162 53.8338ZM90.3178 38.9467C85.7238 38.9467 81.5098 42.3662 81.5098 48.3073C81.5098 54.2483 85.6548 57.5988 90.3178 57.6334C95.0154 57.5988 99.1603 54.2138 99.1603 48.3073C99.1603 42.3662 94.9118 38.9467 90.3178 38.9467ZM90.3178 53.8338C88.0381 53.8338 85.8275 52.0377 85.8275 48.3073C85.8275 44.7841 88.0036 42.7807 90.3178 42.7462C92.6666 42.7807 94.8427 44.8186 94.8427 48.3073C94.8427 52.0377 92.632 53.8338 90.3178 53.8338ZM106.489 57.2534V33.0747H102.206V57.2534H106.489ZM106.54 19.1046H47.9393V24.3453H106.54V19.1046Z" fill="white"/>
</svg>
