<svg width="200" height="52" viewBox="0 0 200 52" fill="none" xmlns="http://www.w3.org/2000/svg">
<path d="M40.6406 19.6376H48.5075V11.6602H40.6406V19.6376Z" fill="#E1DFE1"/>
<path d="M0.210938 39.4736H7.64921V31.4961H0.210938V39.4736Z" fill="#E1DFE1"/>
<path d="M9.80469 51.0096H17.7822V21.793H9.80469V51.0096Z" fill="white"/>
<path d="M30.5039 51.0122H38.4814V41.6328H30.5039V51.0122Z" fill="white"/>
<path d="M0.210938 19.6376H28.3492V11.6602H0.210938V19.6376Z" fill="#E1DFE1"/>
<path d="M30.5039 29.3402H38.4814V0.986328H30.5039V29.3402Z" fill="white"/>
<path d="M19.9414 39.4736H48.5082V31.4961H19.9414V39.4736Z" fill="#E1DFE1"/>
<path d="M87.4707 32.0517L83.9037 23.3442L80.3366 32.0517H87.4707ZM81.2574 16.2461H86.7048L98.2106 43.2921H92.0415L89.5861 37.2696H78.2158L75.7686 43.2921H69.7461L81.2574 16.2461Z" fill="#E1DFE1"/>
<path d="M114.248 29.4827C115.707 29.4827 116.826 29.137 117.605 28.4458C117.993 28.1002 118.299 27.6729 118.501 27.1947C118.703 26.7165 118.797 26.1994 118.775 25.6806V25.5976C118.775 24.3183 118.366 23.3597 117.547 22.7219C116.729 22.0841 115.59 21.7642 114.132 21.7624H108.262V29.4716L114.248 29.4827ZM102.358 16.4395H114.633C118.034 16.4395 120.642 17.3473 122.458 19.1631C123.992 20.6969 124.759 22.7431 124.759 25.3018V25.3792C124.759 27.5526 124.228 29.3232 123.166 30.6911C122.092 32.0686 120.649 33.1128 119.004 33.7023L125.563 43.2946H118.651L112.896 34.7033H108.262V43.2946H102.355L102.358 16.4395Z" fill="#E1DFE1"/>
<path d="M130.355 43.2911H136.262V16.4414H130.355V43.2911Z" fill="#E1DFE1"/>
<path d="M155.914 43.7522C153.953 43.7769 152.006 43.4249 150.179 42.7152C148.517 42.0665 147.004 41.0883 145.73 39.8395C144.478 38.5941 143.493 37.1066 142.835 35.4678C142.13 33.7101 141.778 31.831 141.798 29.9375V29.86C141.772 27.1299 142.562 24.4543 144.065 22.1752C145.569 19.8961 147.717 18.1171 150.237 17.0657C152.022 16.318 153.94 15.9417 155.875 15.9596C156.973 15.9514 158.07 16.0347 159.155 16.2085C160.088 16.3621 161.007 16.5999 161.898 16.9191C162.728 17.2194 163.525 17.6049 164.276 18.0694C165.03 18.5393 165.748 19.0652 166.424 19.6428L162.702 24.1306C162.216 23.715 161.703 23.3308 161.168 22.9803C160.663 22.6521 160.13 22.3698 159.575 22.137C159 21.8995 158.402 21.7199 157.791 21.6005C157.096 21.4679 156.389 21.404 155.682 21.4097C154.64 21.4023 153.61 21.6321 152.67 22.0817C151.745 22.524 150.912 23.1376 150.215 23.8901C149.498 24.6605 148.935 25.5605 148.556 26.5419C148.155 27.5777 147.953 28.6801 147.961 29.7909V29.8683C147.948 31.0299 148.15 32.1838 148.556 33.2722C148.932 34.2789 149.505 35.2002 150.242 35.9821C150.967 36.7485 151.841 37.3575 152.811 37.7712C153.85 38.2043 154.966 38.4199 156.091 38.4044C158.29 38.4044 160.144 37.8633 161.654 36.7812V32.91H155.709V27.8332H167.37V39.4938C165.884 40.735 164.222 41.7497 162.44 42.5051C160.374 43.3665 158.152 43.791 155.914 43.7522Z" fill="#E1DFE1"/>
<path d="M188.472 32.0529L184.905 23.3454L181.338 32.0529H188.472ZM182.259 16.25H187.717L199.212 43.2932H193.037L190.582 37.2707H179.228L176.773 43.2932H170.75L182.259 16.25Z" fill="#E1DFE1"/>
</svg>
