<svg width="121" height="48" viewBox="0 0 121 48" fill="none" xmlns="http://www.w3.org/2000/svg">
<path fill-rule="evenodd" clip-rule="evenodd" d="M18.2543 28.97L18.3023 28.536C18.8383 25.834 17.5723 24.676 13.5773 24.676C9.72832 24.676 8.02332 25.834 7.53632 28.536L7.43932 29.018C6.90332 31.721 8.65732 32.928 12.1153 32.928C15.6723 32.928 17.8153 31.286 18.2543 28.97ZM31.8453 26.992L36.4253 1.318C36.4662 1.0888 36.5863 0.88126 36.7647 0.731715C36.9432 0.58217 37.1685 0.500146 37.4013 0.5L42.7453 0.5C42.8901 0.500142 43.033 0.531961 43.1642 0.593224C43.2953 0.654486 43.4115 0.743708 43.5045 0.854627C43.5975 0.965546 43.6651 1.09548 43.7026 1.2353C43.74 1.37512 43.7464 1.52144 43.7213 1.664L42.2223 10.151C44.0733 8.8 46.1193 7.835 49.8713 7.835C57.1783 7.835 60.0523 12.66 59.0293 18.402L57.3243 27.86C56.1063 34.76 52.0633 38.09 43.0503 38.09C34.5743 38.09 30.6763 33.41 31.8453 26.992ZM50.2123 26.702L51.5763 19.126C52.1113 16.134 50.9423 14.108 46.9963 14.108C43.0023 14.108 41.1503 16.134 40.6143 19.126L39.2503 26.702C38.7143 29.694 39.8843 31.721 43.8783 31.721C47.8243 31.721 49.6763 29.694 50.2123 26.702ZM89.0383 24.965H70.2833L69.8933 27.281C69.4543 29.839 70.2333 32.155 74.9113 32.155C78.9543 32.155 80.9033 30.997 81.3413 28.585C81.3548 28.5167 81.3916 28.4552 81.4454 28.4111C81.4992 28.3669 81.5667 28.3428 81.6363 28.343H87.4783C87.5991 28.3431 87.7185 28.3692 87.8283 28.4197C87.9381 28.4701 88.0357 28.5436 88.1145 28.6352C88.1933 28.7268 88.2514 28.8344 88.2849 28.9505C88.3183 29.0666 88.3263 29.1885 88.3083 29.308C87.2853 35.002 83.2413 38.09 74.3263 38.09C65.5083 38.09 61.7093 33.313 62.8293 27.185L64.3883 18.258C65.7033 11.309 69.7473 7.835 78.7593 7.835C87.4313 7.835 91.2793 12.515 90.1593 18.789L89.0383 24.965ZM71.4033 18.74L71.1603 20.236H82.8033L83.0953 18.692C83.6313 15.604 82.3653 13.77 78.1753 13.77C73.8393 13.77 71.9393 15.797 71.4033 18.74ZM106.089 29.501C110.084 29.501 111.935 27.474 112.471 24.579L113.397 19.223C113.932 16.279 112.763 14.301 108.817 14.301C104.871 14.301 103.02 16.279 102.484 19.223L101.559 24.579C101.023 27.474 102.143 29.501 106.089 29.501ZM109.499 7.835C117.976 7.835 121.971 12.612 120.801 19.126L117.684 36.594C116.221 44.556 111.691 47.5 103.751 47.5H102.923C95.8593 47.5 91.2793 43.977 92.0103 38.235C92.0379 38.0862 92.1167 37.9517 92.233 37.8549C92.3494 37.7581 92.496 37.705 92.6473 37.705H99.0743C98.6843 39.924 100.292 41.468 103.702 41.468C108.038 41.468 109.84 39.49 110.327 36.739L111.009 33.12C109.159 34.568 107.161 35.388 103.264 35.388C96.5413 35.388 93.0823 30.804 94.2023 24.483L95.2743 18.354C96.4923 11.454 100.535 7.835 109.499 7.835ZM21.4773 4.304C21.6281 4.30416 21.7769 4.33869 21.9123 4.40496C22.0478 4.47124 22.1663 4.56752 22.259 4.68649C22.3516 4.80545 22.4159 4.94398 22.447 5.09153C22.4781 5.23908 22.4751 5.39177 22.4383 5.538L21.6993 8.472C26.1693 9.922 28.3443 13.71 27.5093 18.402L25.7563 28.246C24.6763 34.269 21.1663 37.071 15.7093 37.88L15.0593 40.455C15.0054 40.6693 14.8815 40.8595 14.7072 40.9953C14.533 41.1312 14.3183 41.205 14.0973 41.205H8.26132C8.11034 41.205 7.96135 41.1706 7.82569 41.1043C7.69003 41.0381 7.57129 40.9417 7.47851 40.8226C7.38573 40.7035 7.32136 40.5648 7.29031 40.417C7.25926 40.2693 7.26234 40.1164 7.29932 39.97L7.81832 37.915C2.46132 37.048 -0.542676 33.734 0.0813238 29.115L0.179324 28.439C0.861324 23.179 4.46632 20.091 12.8943 20.091C16.1093 20.091 18.4963 20.574 19.6173 21.201L20.0553 18.644C20.5913 15.845 19.3253 13.963 15.7193 13.963C12.6993 13.963 10.5073 14.976 10.0693 17.533H3.05332C3.88532 11.676 7.08232 8.51 13.9523 7.932L14.6793 5.052C14.7336 4.83807 14.8577 4.64835 15.0319 4.51287C15.2062 4.3774 15.4206 4.30389 15.6413 4.304H21.4773Z" fill="white"/>
</svg>
