<svg width="180" height="54" viewBox="0 0 180 54" fill="none" xmlns="http://www.w3.org/2000/svg">
<path fill-rule="evenodd" clip-rule="evenodd" d="M25.5361 0.867933C25.2864 1.01148 24.6469 1.64013 24.1861 2.19543C23.5179 3.00048 23.3005 3.25743 23.1066 3.47208C22.9945 3.59583 22.6692 3.98418 22.383 4.33473C22.0968 4.68528 21.739 5.10738 21.5883 5.27208C21.4371 5.43723 21.1801 5.74098 21.0168 5.94708C20.853 6.15363 20.6302 6.41688 20.5213 6.53253C20.4129 6.64773 20.3238 6.75753 20.3238 6.77598C20.3238 6.79443 20.2644 6.86958 20.1924 6.94293C20.1204 7.01628 19.9093 7.25838 19.7235 7.48068C19.5381 7.70298 19.327 7.94688 19.255 8.02248C19.1826 8.09808 19.1236 8.17323 19.1236 8.18988C19.1236 8.20653 19.0233 8.33343 18.9009 8.47203L18.6777 8.72403L17.5693 8.62728C16.96 8.57418 15.862 8.48103 15.1299 8.42028C14.3977 8.35953 13.1994 8.25963 12.4672 8.19843C8.52025 7.86903 8.55715 7.86948 7.96225 8.17548C7.708 8.30643 7.5703 8.44413 7.43935 8.69838C7.13335 9.29328 7.1329 9.25638 7.4623 13.2033C7.5235 13.9355 7.6234 15.1338 7.6846 15.866C7.74535 16.5981 7.8394 17.6957 7.8934 18.3054C7.99015 19.3917 7.98925 19.4151 7.83895 19.5186C7.7548 19.5762 7.56445 19.736 7.41595 19.8728C7.1374 20.1306 7.06585 20.1914 6.3724 20.7593C6.14605 20.9447 5.8261 21.2196 5.66095 21.3704C5.49625 21.5211 5.1925 21.7785 4.98595 21.9419C4.77985 22.1052 4.5166 22.328 4.40095 22.4369C4.2853 22.5458 4.15885 22.6349 4.1197 22.6349C4.08055 22.6349 4.04815 22.6601 4.04815 22.6911C4.0477 22.7217 3.77815 22.9665 3.44875 23.2347C3.11935 23.5029 2.84935 23.7477 2.84935 23.7783C2.8489 23.8094 2.80075 23.8346 2.74225 23.8346C2.68375 23.8346 2.6248 23.8652 2.6113 23.903C2.59735 23.9403 2.33365 24.182 2.0254 24.4394C1.7167 24.6972 1.42555 24.9452 1.3774 24.9902C1.3297 25.0352 1.06555 25.2714 0.790602 25.5149C-0.311448 26.4896 -0.320898 27.4944 0.763152 28.4678C0.934602 28.6217 1.12765 28.8008 1.1929 28.866C1.2577 28.9313 1.5979 29.2175 1.94845 29.5023C2.299 29.7867 2.60275 30.0392 2.62345 30.063C2.64415 30.0869 3.0154 30.4037 3.44875 30.7668C3.88165 31.13 4.2475 31.4567 4.261 31.4931C4.27495 31.53 4.3312 31.5597 4.3861 31.5597C4.441 31.5597 4.49725 31.5894 4.5112 31.6263C4.5247 31.6628 4.7893 31.9017 5.09845 32.1573C5.40805 32.4129 5.8603 32.7963 6.10375 33.0096C6.3472 33.2229 6.637 33.4646 6.7477 33.5474C6.8584 33.6297 7.18465 33.9078 7.4722 34.1652L7.9951 34.6332L7.9006 35.4401C7.8484 35.8842 7.8052 36.4328 7.8043 36.6596C7.8034 36.8864 7.75165 37.5951 7.6891 38.2346C7.62655 38.874 7.52575 40.0049 7.46455 40.7474C7.4038 41.4899 7.31875 42.519 7.27555 43.0347C7.0537 45.6915 7.51495 46.2284 9.85045 46.0326C10.3513 45.9908 11.3688 45.9062 12.1113 45.8445C13.3618 45.7406 15.7374 45.5354 17.7543 45.3572C18.576 45.2847 18.8986 45.3329 18.8986 45.5277C18.8986 45.5592 18.9576 45.6461 19.03 45.7208C19.102 45.7955 19.3131 46.0376 19.4985 46.2581C19.6843 46.479 19.9035 46.7355 19.9863 46.8278C20.1897 47.055 20.6001 47.5478 21.0757 48.1346C21.2931 48.4028 21.5104 48.6561 21.5595 48.6971C21.6085 48.7385 21.8799 49.0593 22.1634 49.4099C22.6431 50.0034 22.891 50.2946 23.1772 50.5988C23.2407 50.6667 23.4432 50.9079 23.6268 51.1347C24.0097 51.6081 23.9598 51.5501 24.5988 52.2651C25.6468 53.4387 26.9833 53.6304 27.6039 52.6962C27.6538 52.6211 28.161 52.0244 28.3824 51.7796C28.467 51.686 28.6879 51.429 28.8738 51.2081C29.0592 50.9876 29.2702 50.7455 29.3422 50.6708C29.4146 50.5961 29.4736 50.5178 29.4736 50.4971C29.4736 50.4764 29.5326 50.3985 29.605 50.3238C29.677 50.2491 29.8881 50.0066 30.0735 49.7856C30.2593 49.5642 30.4704 49.3311 30.5424 49.2672C30.6143 49.2038 30.6737 49.1084 30.6737 49.0557C30.6737 49.0026 30.6989 48.9594 30.73 48.9594C30.7606 48.9594 30.955 48.7497 31.1611 48.4937C31.3672 48.2381 31.6206 47.9397 31.7236 47.8308C31.9158 47.6279 31.9679 47.5662 32.5485 46.8584C32.7338 46.6325 32.9795 46.3458 33.0947 46.2221C33.2099 46.0983 33.4296 45.8337 33.5826 45.6339L33.8611 45.2703L34.236 45.3149C34.4425 45.3392 34.8979 45.3779 35.2485 45.4004C35.599 45.4224 36.5778 45.5052 37.4237 45.584C38.2693 45.6627 39.6193 45.7806 40.4235 45.8459C41.2281 45.9116 42.2752 45.9989 42.7504 46.0403C45.2258 46.2554 45.5593 45.6708 45.1926 41.7599C45.1287 41.079 45.0247 39.8978 44.9617 39.1346C44.8987 38.3714 44.7772 37.043 44.6917 36.1821C44.6062 35.3213 44.5644 34.5936 44.5985 34.5648C44.6332 34.536 44.8465 34.3628 45.0728 34.1801C45.2992 33.9969 45.5526 33.7778 45.6353 33.6927C45.7182 33.6077 46.0224 33.3507 46.3112 33.1212C46.5997 32.8917 46.9219 32.6235 47.0272 32.5254C47.132 32.4273 47.4021 32.1956 47.6271 32.0102C47.8521 31.8248 48.0739 31.6389 48.1202 31.5975C48.1666 31.5561 48.3659 31.3874 48.5635 31.2222C48.7606 31.0571 48.959 30.8883 49.0041 30.8469C49.049 30.8055 49.2718 30.6215 49.4986 30.4379C49.7254 30.2543 49.9652 30.0518 50.0314 29.9883C50.2402 29.7876 50.5718 29.5082 50.9985 29.1743C53.1333 27.5039 53.149 26.6165 51.0736 24.8939C50.7645 24.6369 50.4269 24.3512 50.3234 24.258C50.2204 24.1653 49.8505 23.8548 49.5018 23.5682C49.153 23.2815 48.7817 22.967 48.6769 22.8689C48.5721 22.7708 48.2669 22.5134 47.9987 22.2974C47.7305 22.0809 47.425 21.8235 47.3201 21.7254C47.1536 21.5702 46.7923 21.2655 46.1308 20.7224C46.03 20.6396 45.886 20.5131 45.8108 20.4411C45.7352 20.3687 45.6587 20.3097 45.6408 20.3097C45.6227 20.3097 45.4626 20.1788 45.2848 20.019C45.1066 19.8588 44.865 19.6469 44.7471 19.5474L44.5328 19.3665L44.6876 17.8694C44.7722 17.0459 44.8951 15.6972 44.9604 14.8724C45.0256 14.0471 45.1309 12.8321 45.1943 12.1724C45.5768 8.20068 45.2659 7.74168 42.3737 8.00673C41.9404 8.04633 40.9279 8.13138 40.1237 8.19573C38.6721 8.31138 37.1339 8.44188 35.0005 8.63043L33.8904 8.72853L33.5403 8.31273C33.3477 8.08413 33.1159 7.81278 33.0254 7.70973C32.9345 7.60668 32.7203 7.35333 32.5485 7.14723C32.1376 6.65358 31.63 6.05553 31.5359 5.95338C31.4946 5.90883 31.3087 5.68698 31.1233 5.46108C30.9379 5.23473 30.7188 4.96743 30.636 4.86663C30.5536 4.76628 30.4352 4.62858 30.3736 4.56108C30.3115 4.49313 30.0766 4.22043 29.8507 3.95493C29.6252 3.68943 29.3656 3.38793 29.2743 3.28488C29.1829 3.18183 28.8999 2.84433 28.6452 2.53473C28.39 2.22558 28.1515 1.96098 28.1151 1.94703C28.0786 1.93353 28.0485 1.89348 28.0485 1.85838C28.0485 1.75533 27.3393 1.05738 27.0643 0.889533C26.7327 0.687483 25.8714 0.675333 25.5361 0.867933ZM26.7822 7.91583C27.0355 8.23578 27.2722 8.50848 27.3082 8.52243C27.3442 8.53593 27.3735 8.57823 27.3735 8.61603C27.3735 8.65383 27.4329 8.74653 27.5049 8.82213C27.8212 9.15333 28.1236 9.52953 28.1236 9.59208C28.1236 9.62943 28.1511 9.65958 28.1844 9.65958C28.2177 9.65958 28.4098 9.88458 28.6114 10.1591C29.353 11.1693 29.5339 11.2872 29.8957 10.9988C29.9425 10.9614 30.2971 10.7679 30.6832 10.5686C31.0698 10.3692 31.5715 10.0961 31.7978 9.96153C32.0247 9.82743 32.2775 9.68703 32.3604 9.65013C32.4431 9.61323 32.7811 9.43323 33.111 9.25053C33.4412 9.06783 33.731 8.91618 33.7553 8.91393C33.7981 8.90988 33.8755 9.13623 34.0987 9.92238C34.3214 10.7063 34.4479 11.1356 34.5739 11.5347C34.6455 11.7615 34.7544 12.1161 34.8156 12.3222C34.8772 12.5283 34.9879 12.8897 35.0617 13.1255L35.1958 13.5534L35.8033 13.5138C36.1376 13.4918 36.764 13.4247 37.1961 13.3649C37.6276 13.3046 38.3867 13.2231 38.8836 13.1831C39.3799 13.1435 39.8816 13.0904 39.9982 13.0656L40.2102 13.0202L40.1647 13.6461C40.1233 14.2149 40.0779 14.673 39.8268 17.0472C39.7084 18.1614 39.681 18.0773 40.2174 18.237C40.4752 18.3135 40.8717 18.4359 41.0984 18.5079C41.5921 18.6654 42.0601 18.8036 43.1613 19.1177C43.6148 19.2468 44.0784 19.3859 44.1908 19.4273L44.3956 19.502L44.0851 20.0744C43.9146 20.3894 43.6639 20.8497 43.5289 21.0972C43.3935 21.3447 43.1954 21.716 43.0879 21.9221C42.9808 22.1286 42.8166 22.4324 42.7234 22.5971C42.6302 22.7622 42.443 23.0988 42.3071 23.3454L42.0601 23.7936L42.2729 23.9718C42.3904 24.0699 42.5578 24.2103 42.6455 24.2841C42.7333 24.3575 43.0357 24.5987 43.3178 24.8201C43.5995 25.041 43.9159 25.302 44.0208 25.3992C44.1256 25.4964 44.3546 25.6791 44.5297 25.8056C44.7052 25.932 44.8488 26.063 44.8488 26.0976C44.8488 26.1318 44.8992 26.1597 44.9613 26.1597C45.0229 26.1597 45.0737 26.1867 45.0737 26.22C45.0737 26.2533 45.2749 26.4302 45.5206 26.6138C46.0602 27.0161 46.0534 26.9679 45.6165 27.3009C45.4202 27.4508 45.1754 27.6456 45.0728 27.7338C44.6535 28.0934 44.5634 28.1676 44.0234 28.5983C43.7143 28.8453 43.4272 29.0843 43.3862 29.1293C43.3448 29.1747 43.0982 29.3718 42.8382 29.568C42.0164 30.1881 42.0322 30.1508 42.3481 30.7281C42.4971 30.9999 42.7072 31.391 42.8152 31.5971C42.9228 31.8036 43.0299 31.989 43.0528 32.0097C43.0758 32.0304 43.1621 32.1821 43.2445 32.3472C43.5302 32.9187 44.1936 34.1477 44.2957 34.2953C44.4473 34.5131 44.4271 34.5477 44.1175 34.604C43.9627 34.6319 43.7179 34.6971 43.5734 34.7493C43.4295 34.8011 43.0411 34.9167 42.7113 35.0063C42.381 35.0958 41.993 35.2142 41.8486 35.2691C41.7042 35.324 41.3666 35.427 41.0984 35.4981C40.8302 35.5692 40.4837 35.6741 40.3285 35.7308C40.1728 35.7879 39.9789 35.8347 39.8969 35.8347C39.7219 35.8347 39.7165 35.9135 39.8214 36.908C40.0131 38.7233 40.1229 39.8235 40.166 40.3649L40.2133 40.9575L39.8123 40.9062C39.5919 40.8779 39.0397 40.8239 38.5861 40.7865C38.1325 40.7487 37.5079 40.6844 37.1987 40.6434C36.8891 40.6025 36.3114 40.5471 35.9145 40.5206L35.1926 40.472L35.0999 40.7222C35.0486 40.8599 34.9803 41.0903 34.9478 41.2347C34.915 41.3792 34.8534 41.5983 34.8106 41.7221C34.7674 41.8458 34.6112 42.3521 34.4627 42.8471C34.3147 43.3421 34.1478 43.8992 34.0919 44.0846C34.0362 44.2704 33.9511 44.5674 33.903 44.7447C33.8013 45.1187 33.7589 45.1182 33.0736 44.7344C32.8468 44.607 32.543 44.4405 32.3986 44.3636C32.2542 44.2871 31.9 44.094 31.6111 43.9356C31.3222 43.7768 30.833 43.5176 30.5235 43.3596C30.2143 43.2017 29.9434 43.0491 29.9223 43.0208C29.6536 42.6657 29.4637 42.7746 28.7185 43.7097C28.3734 44.1426 28.0714 44.5139 28.0471 44.5346C28.0233 44.5553 27.8028 44.8244 27.5571 45.1322C27.3118 45.44 27.0603 45.7446 26.9986 45.8094C26.9365 45.8742 26.7678 46.0853 26.6238 46.2788C26.2665 46.7567 26.2885 46.7652 25.6113 45.8846C25.4047 45.6168 25.1856 45.3459 25.1235 45.2834C25.0618 45.2208 24.8256 44.9337 24.5992 44.6457C24.3724 44.3577 24.1362 44.0652 24.0741 43.9955C24.012 43.9257 23.7924 43.6499 23.5863 43.3821C23.3797 43.1144 23.1673 42.8768 23.1138 42.8538C23.0305 42.8178 22.3078 43.1355 22.1985 43.2561C22.1782 43.2786 21.9753 43.3947 21.7485 43.514C21.5217 43.6332 21.0829 43.8672 20.7738 44.0342C20.4642 44.2016 20.0763 44.4059 19.9111 44.4882C19.746 44.571 19.5943 44.6574 19.5736 44.6804C19.5529 44.7033 19.3594 44.8127 19.1439 44.9238L18.7519 45.125L18.666 44.8113C18.6183 44.6385 18.5377 44.3622 18.4864 44.1971C18.3829 43.8654 18.2637 43.4586 17.9248 42.2846C17.7997 41.8517 17.6499 41.3454 17.5918 41.1596C17.5338 40.9742 17.4649 40.7262 17.4393 40.6092C17.4078 40.4657 17.3574 40.4094 17.2858 40.4369C17.2269 40.4594 16.9164 40.4976 16.5951 40.5215C16.2738 40.5458 15.5722 40.6128 15.0363 40.6713C13.2363 40.8671 12.3624 40.9485 12.3372 40.9229C12.3232 40.9089 12.361 40.4585 12.4209 39.9221C12.8614 35.9931 12.8718 35.8347 12.69 35.8347C12.613 35.8347 12.4011 35.7879 12.2184 35.7312C12.0357 35.6741 11.6838 35.5674 11.4363 35.4936C11.1888 35.4203 10.8004 35.3015 10.5736 35.2299C10.3468 35.1588 9.95845 35.0414 9.71095 34.9689C9.46345 34.8969 9.13405 34.7921 8.97835 34.7363C8.82265 34.6805 8.635 34.6346 8.5612 34.6346C8.2885 34.6346 8.1643 34.4685 8.28085 34.2597C8.33845 34.1567 8.47525 33.9033 8.58505 33.6972C8.6944 33.4911 8.8609 33.1874 8.95495 33.0222C9.04855 32.8571 9.27805 32.4354 9.4648 32.0849C10.1029 30.8861 10.1983 30.7128 10.2676 30.6296C10.5102 30.3375 10.4476 30.1598 9.96115 29.7597C9.6997 29.5451 9.4018 29.2971 9.29875 29.2089C9.1957 29.1203 8.87485 28.8647 8.58595 28.6406C8.2975 28.416 8.01715 28.1888 7.96315 28.1348C7.90915 28.0812 7.65625 27.8783 7.40065 27.6843C6.6658 27.1259 6.54115 26.9877 6.67885 26.8838C7.12075 26.5499 7.7746 26.0391 7.84255 25.9748C7.8871 25.932 8.0698 25.779 8.24845 25.6346C8.4271 25.4901 8.6098 25.338 8.6548 25.2962C8.69935 25.2543 8.8879 25.1027 9.07375 24.9591C9.25915 24.816 9.47875 24.636 9.5611 24.56C9.64345 24.4835 9.85405 24.3179 10.0287 24.191C10.449 23.8868 10.471 23.7738 10.2051 23.2982C10.0818 23.0777 9.89545 22.7285 9.7906 22.5224C9.6862 22.3158 9.4306 21.8433 9.2227 21.4721C9.01525 21.1008 8.7934 20.6958 8.7304 20.5721C8.66695 20.4483 8.518 20.1635 8.3992 19.9385C8.1535 19.4736 8.1589 19.4394 8.49325 19.3733C8.6269 19.3467 8.8879 19.277 9.07375 19.218C9.25915 19.1591 9.7654 19.0088 10.1988 18.8841C10.6317 18.7599 11.1888 18.5939 11.4363 18.5156C11.6838 18.4373 12.0978 18.3108 12.3565 18.2352L12.8272 18.0971L12.7854 17.5724C12.7345 16.9406 12.5559 15.209 12.4137 13.9728C12.3565 13.4783 12.3156 13.0683 12.3232 13.062C12.3426 13.0445 13.5958 13.1705 15.0363 13.3338C15.7374 13.4139 16.555 13.4972 16.8534 13.5197L17.3956 13.5606L17.4415 13.3541C17.4672 13.2402 17.5311 13.0121 17.5837 12.8474C17.6364 12.6822 17.7331 12.3614 17.7988 12.1346C18.0211 11.3655 18.3802 10.1487 18.4851 9.80988C18.5422 9.62403 18.6106 9.36303 18.6372 9.22938C18.7047 8.88828 18.7623 8.87793 19.2127 9.12723C19.4319 9.24873 19.8643 9.47553 20.1735 9.63168C20.4831 9.78783 20.7828 9.95073 20.8399 9.99393C20.9691 10.0916 22.1022 10.709 22.6314 10.9704C23.0944 11.199 23.125 11.1882 23.5588 10.6347C23.7366 10.4079 23.9251 10.1951 23.9778 10.1622C24.0304 10.1294 24.0736 10.0533 24.0736 9.99348C24.0736 9.93363 24.1006 9.88458 24.133 9.88458C24.1659 9.88458 24.3153 9.72438 24.4647 9.52863C24.6141 9.33243 24.8238 9.07098 24.9309 8.94723C25.038 8.82348 25.3701 8.41218 25.6684 8.03328C26.3241 7.20078 26.2242 7.21158 26.7822 7.91583ZM124.534 12.4536C124.39 12.6174 124.385 12.7677 124.366 17.517L124.345 22.4121L123.953 22.1187C123.538 21.8087 122.589 21.3317 122.211 21.2444C122.087 21.2156 121.834 21.1485 121.648 21.095C120.846 20.8641 119.582 20.7404 118.412 20.7782C117.136 20.8196 116.478 20.9339 115.386 21.3038C114.281 21.6782 112.733 22.7424 112.186 23.5038C112.055 23.6861 111.92 23.8346 111.886 23.8346C111.852 23.8346 111.824 23.8854 111.824 23.9471C111.824 24.0092 111.798 24.06 111.767 24.06C111.715 24.0605 111.572 24.2742 111.316 24.7346C111.16 25.0145 110.649 26.2448 110.599 26.4599C110.575 26.5629 110.487 26.9004 110.402 27.2096C109.818 29.361 109.88 33.7976 110.519 35.6498C110.577 35.8163 110.625 36.0017 110.626 36.0624C110.628 36.1227 110.694 36.3072 110.774 36.4724C110.853 36.6371 110.92 36.7968 110.921 36.827C110.929 37.007 111.677 38.3835 111.767 38.3844C111.798 38.3844 111.824 38.4236 111.824 38.4708C111.824 39.0383 114.659 41.2347 115.391 41.2347C115.456 41.2347 115.569 41.2667 115.641 41.3058C116.36 41.6906 119.223 41.817 120.786 41.5335C122.305 41.2577 123.001 40.989 123.834 40.3563L124.332 39.9779L124.362 40.4378C124.414 41.2478 124.381 41.2347 126.39 41.2347C127.998 41.2347 128.107 41.2257 128.249 41.0849C128.398 40.9359 128.398 40.8347 128.398 26.6097V12.2849H126.54C124.707 12.2849 124.68 12.2871 124.534 12.4536ZM152.247 12.5117C152.002 12.7565 152.055 37.3031 152.302 38.1306C153.031 40.5773 154.507 41.4597 157.868 41.4597C159.619 41.4597 159.48 41.6145 159.506 39.6332C159.532 37.6442 159.596 37.7594 158.434 37.7067C157.397 37.6595 156.986 37.5497 156.643 37.2275C156.112 36.728 156.149 37.6869 156.149 24.3584V12.3596H154.273C152.49 12.3596 152.391 12.3672 152.247 12.5117ZM74.7224 13.3955C74.3863 13.5323 73.8737 13.9445 73.8737 14.0781C73.8737 14.1231 73.844 14.1596 73.8076 14.1596C73.7243 14.1596 73.3531 14.9291 73.0116 15.8097C72.9396 15.9951 72.8527 16.2147 72.8185 16.2971C72.7848 16.3799 72.6839 16.6328 72.5948 16.8596C72.5057 17.0864 72.4045 17.3397 72.3699 17.4221C72.3352 17.5049 72.2335 17.7578 72.1444 17.9846C72.0553 18.2114 71.8641 18.6839 71.7187 19.0349C71.5738 19.3854 71.4276 19.7396 71.3933 19.8224C71.3596 19.9047 71.2588 20.1581 71.1697 20.3849C71.0811 20.6117 70.9798 20.8646 70.9447 20.9474C70.91 21.0297 70.8097 21.2831 70.7219 21.5099C70.6342 21.7367 70.519 22.0233 70.4659 22.1471C70.3795 22.3487 70.1329 22.9427 69.9678 23.3472C69.934 23.4296 69.8332 23.6829 69.7436 23.9097C69.6541 24.1365 69.534 24.4286 69.4772 24.5586C69.4201 24.6887 69.3737 24.8291 69.3737 24.8714C69.3737 24.9132 69.3238 25.0433 69.2631 25.1598C69.1533 25.3704 69.0925 25.5144 68.7784 26.3096C68.6888 26.5364 68.5854 26.7897 68.5489 26.8721C68.4589 27.0746 67.9679 28.2819 67.7866 28.7472C67.7065 28.9533 67.6124 29.1896 67.5787 29.2724C67.5445 29.3547 67.459 29.5739 67.3884 29.7597C67.3177 29.9451 67.216 30.1985 67.1629 30.3222C66.9798 30.7461 66.5374 31.8221 66.3767 32.2347C66.2881 32.4615 66.1878 32.7149 66.1535 32.7972C66.1193 32.8796 66.0325 33.0992 65.9605 33.2846C65.8885 33.4704 65.7859 33.7233 65.7328 33.8471C65.5785 34.2048 65.1275 35.3091 64.9516 35.7596C64.8629 35.9864 64.7626 36.2397 64.7284 36.3221C64.6946 36.4049 64.6078 36.624 64.5358 36.8099C64.4638 36.9953 64.3616 37.2486 64.3085 37.3724C64.2559 37.4961 64.1546 37.749 64.084 37.9349C64.0134 38.1203 63.8959 38.4074 63.823 38.5721C63.7501 38.7372 63.5818 39.1422 63.4491 39.4721C63.3168 39.8024 63.1565 40.1975 63.0935 40.35C63.0305 40.503 62.9748 40.7564 62.9698 40.9125L62.9613 41.1974L64.7986 41.2185C65.8093 41.2298 66.7061 41.2221 66.7921 41.2014C66.9743 41.1569 67.1089 40.8977 67.6889 39.4721C67.8401 39.1008 67.9922 38.7296 68.0274 38.6472C68.062 38.5649 68.1633 38.3115 68.2523 38.0847C68.3415 37.8579 68.4427 37.6046 68.4778 37.5222C68.5133 37.4399 68.6294 37.1528 68.7361 36.8846C68.8428 36.6164 68.9606 36.3297 68.9971 36.2474C69.2923 35.5863 69.5988 34.8159 69.5988 34.7336C69.5988 34.6512 70.6095 34.6373 75.3785 34.653L81.1579 34.6724L81.2591 34.8596C81.3145 34.9631 81.4842 35.351 81.6363 35.7222C81.7884 36.0935 81.9562 36.4985 82.0089 36.6222C82.0615 36.746 82.1636 36.9989 82.2356 37.1847C82.4476 37.731 82.4777 37.8057 82.6316 38.1599C82.7126 38.3453 82.854 38.6828 82.9462 38.9096C83.0389 39.1364 83.1572 39.4235 83.2094 39.5472C83.2616 39.671 83.416 40.0422 83.5524 40.3721C83.9425 41.318 83.7193 41.2401 85.9801 41.2172C88.335 41.1933 88.2477 41.2995 87.412 39.4721C87.3553 39.3483 87.1888 38.9397 87.0416 38.564C86.8945 38.1878 86.7046 37.7153 86.6191 37.5137C86.4207 37.0448 86.3702 36.921 86.2105 36.5097C86.1385 36.3239 86.0363 36.071 85.9837 35.9472C85.9306 35.8235 85.8298 35.5701 85.7591 35.3847C85.6885 35.1989 85.6026 34.9797 85.5679 34.8974C85.5337 34.8146 85.4162 34.5279 85.3074 34.2597C85.1984 33.9915 85.0666 33.6711 85.014 33.5474C84.9618 33.4236 84.8596 33.1703 84.7867 32.9849C84.7142 32.799 84.6116 32.5461 84.5585 32.4224C84.5059 32.2986 84.4046 32.0453 84.334 31.8599C84.2634 31.674 84.1778 31.4549 84.1436 31.3721C84.1099 31.2897 83.9591 30.9185 83.8088 30.5472C83.4655 29.6999 83.2549 29.186 83.1329 28.8971C83.0803 28.7733 82.9795 28.5204 82.9084 28.3346C82.8378 28.1492 82.7334 27.8877 82.6767 27.7536C82.6199 27.6195 82.5272 27.3999 82.4706 27.2658C82.4138 27.1317 82.309 26.8703 82.2374 26.6849C82.0863 26.2911 81.8594 25.7372 81.6547 25.2597C81.4927 24.8813 81.4468 24.767 81.2632 24.2846C81.1926 24.0992 81.0913 23.8458 81.0387 23.7221C80.9855 23.5983 80.8915 23.3621 80.8294 23.1974C80.7124 22.8878 80.2363 21.72 80.0644 21.3222C80.0113 21.1985 79.9096 20.9456 79.8385 20.7597C79.7678 20.5739 79.6666 20.321 79.6135 20.1972C79.5608 20.0735 79.4578 19.8201 79.3853 19.6347C79.3129 19.4489 79.2112 19.196 79.1599 19.0722C79.1086 18.9485 78.975 18.6132 78.8624 18.3275C78.75 18.0417 78.6311 17.7546 78.5988 17.6898C78.5659 17.625 78.4809 17.4203 78.4093 17.2349C78.3382 17.049 78.2365 16.7961 78.1834 16.6724C78.1308 16.5486 78.0295 16.2953 77.9588 16.1099C77.8882 15.924 77.8022 15.7049 77.7681 15.6221C77.7334 15.5397 77.616 15.2535 77.5061 14.9862C76.9248 13.5669 75.8344 12.9437 74.7224 13.3955ZM75.6247 20.8911C75.7007 21.0869 75.8083 21.3483 75.8636 21.4721C75.9194 21.5958 76.121 22.0854 76.3123 22.5597C76.504 23.034 76.7951 23.7428 76.9598 24.1347C77.3392 25.0383 77.3316 25.019 77.6578 25.8222C78.0452 26.7762 78.5015 27.8796 78.7198 28.3908C78.966 28.9682 79.037 29.141 79.1594 29.4596C79.2305 29.6454 79.3232 29.8623 79.3655 29.942C79.4074 30.0216 79.4681 30.1737 79.5001 30.2795C79.5321 30.3857 79.582 30.5315 79.6113 30.6035C79.6617 30.7277 79.4344 30.7349 75.4564 30.7349C70.9375 30.7349 71.1143 30.7502 71.3209 30.3776C71.3605 30.306 71.5162 29.9433 71.6669 29.5721C71.8177 29.2008 72.1025 28.5092 72.3001 28.0349C72.4977 27.5601 72.7825 26.8685 72.9333 26.4972C73.084 26.126 73.2347 25.7547 73.269 25.6724C73.3027 25.5896 73.39 25.3704 73.462 25.1846C73.5344 24.9992 73.6622 24.6954 73.7464 24.5096C73.8306 24.3242 73.9255 24.1046 73.9575 24.0222C74.0497 23.7828 74.5546 22.5458 74.6689 22.2785C74.8948 21.7515 74.9848 21.5342 75.1108 21.2097C75.4204 20.411 75.4343 20.4024 75.6247 20.8911ZM168.486 20.7296C167.52 20.8038 165.846 21.2156 164.961 21.5972C164.312 21.8766 163.562 22.2515 163.498 22.3275C163.478 22.3523 163.372 22.4184 163.264 22.4742C162.954 22.6335 162.543 23.0295 162.486 23.2235C162.435 23.3963 162.633 24.0587 162.736 24.0605C162.764 24.0609 162.853 24.2045 162.935 24.3795C163.017 24.5541 163.105 24.7143 163.13 24.7346C163.156 24.7553 163.318 25.0316 163.492 25.3484C163.943 26.1741 164.128 26.1998 165.096 25.572C165.605 25.2426 165.782 25.149 166.423 24.8718C167.41 24.4448 168.303 24.2895 169.761 24.2904C170.421 24.2909 171.096 24.3201 171.261 24.3552C171.426 24.3908 171.738 24.4556 171.953 24.4997C173.608 24.839 174.668 26.2326 174.585 27.9597L174.561 28.4471L171.036 28.4912C166.727 28.5452 166.144 28.6347 164.336 29.5262C160.618 31.3577 160.057 37.313 163.339 40.1219C163.571 40.3208 163.785 40.4837 163.813 40.4841C163.842 40.4846 164.016 40.5858 164.2 40.7096C164.383 40.8333 164.558 40.9346 164.589 40.9346C164.619 40.9346 164.783 40.998 164.953 41.075C166.738 41.8881 170.186 41.9138 172.086 41.1281C172.811 40.8284 173.848 40.2227 173.848 40.0994C173.848 40.0638 173.885 40.0346 173.929 40.0346C173.974 40.0346 174.131 39.8996 174.279 39.7349C174.572 39.4082 174.674 39.3641 174.674 39.5639C174.674 41.0318 175.513 41.4633 178.367 41.4611L179.999 41.4597V39.9315C179.999 38.1779 180.026 38.2481 179.325 38.1653C178.514 38.0699 178.58 38.5743 178.549 32.1974C178.519 26.2164 178.487 25.8042 177.953 24.4349C176.848 21.5994 173.618 20.3354 168.486 20.7296ZM139.274 20.7953C139.212 20.8106 138.891 20.861 138.561 20.9078C137.317 21.0842 135.684 21.6557 135.218 22.0778C135.152 22.1367 135.074 22.1849 135.043 22.1849C134.963 22.1849 134.093 22.8612 133.887 23.084C133.791 23.1875 133.57 23.4242 133.395 23.6096C132.943 24.0893 132.582 24.6653 132.032 25.7849C130.801 28.2887 130.683 33.5114 131.795 36.2474C132.176 37.1852 132.841 38.3849 132.98 38.3849C133.018 38.3849 133.049 38.4227 133.049 38.4695C133.049 38.5797 134.279 39.8096 134.389 39.8096C134.436 39.8096 134.473 39.8393 134.473 39.8753C134.473 40.0913 136.388 41.0237 137.474 41.3369C139.165 41.8242 141.833 41.8215 143.624 41.331C144.622 41.057 145.872 40.562 146.085 40.3559C146.14 40.3028 146.215 40.2596 146.252 40.2596C146.448 40.2596 147.583 39.3839 148.255 38.7138C149.296 37.6752 149.301 37.5978 148.368 36.7604C148.008 36.4368 147.625 36.0881 147.517 35.9846C146.68 35.1827 146.546 35.184 145.723 36.0021C143.833 37.8804 140.789 38.4717 138.189 37.4664C137.86 37.3391 137.556 37.2077 137.514 37.1735C137.471 37.1397 137.33 37.0272 137.2 36.9233C137.07 36.8198 136.944 36.7347 136.919 36.7347C136.727 36.7347 135.885 35.6237 135.636 35.0432C135.43 34.5599 135.143 33.5573 135.183 33.4547C135.211 33.3791 136.602 33.3597 142.022 33.3597C147.084 33.3597 148.888 33.3368 149.071 33.2706C149.407 33.1496 149.422 33.0407 149.364 31.1232C149.302 29.0379 149.165 28.0538 148.743 26.6471C148.557 26.0252 148.144 25.1207 147.847 24.6833C147.752 24.5429 147.674 24.3957 147.674 24.3566C147.674 24.317 147.642 24.2846 147.604 24.2846C147.565 24.2846 147.513 24.2189 147.487 24.1383C147.244 23.372 144.976 21.7524 143.449 21.2538C142.409 20.9145 139.913 20.6405 139.274 20.7953ZM98.5859 20.9285C97.0042 21.1427 95.4008 21.9594 94.4671 23.0268L94.1237 23.4197V22.4666V21.5135L93.8942 21.3951C93.5261 21.2048 90.5292 21.2633 90.3064 21.4649L90.1484 21.608V31.2974C90.1484 40.589 90.1543 40.9917 90.2857 41.1105C90.4868 41.2923 93.8245 41.2982 94.0058 41.1168C94.1107 41.012 94.1237 40.3721 94.1237 35.2052C94.1237 28.3778 94.1246 28.3661 94.7857 26.9846C96.2338 23.9583 101.375 23.7923 102.82 26.7254C103.471 28.0479 103.493 28.331 103.496 35.162C103.498 40.2326 103.512 40.9206 103.615 41.0682C103.73 41.2325 103.756 41.2347 105.509 41.2325L107.286 41.2302L107.42 41.0457C107.595 40.805 107.58 28.0308 107.403 27.0971C107.16 25.8096 106.737 24.7062 106.149 23.8242C105.815 23.3234 104.98 22.4099 104.856 22.4099C104.82 22.4099 104.77 22.359 104.746 22.2974C104.723 22.2353 104.651 22.1849 104.588 22.1849C104.525 22.1849 104.474 22.1534 104.474 22.1147C104.474 22.0764 104.406 22.0233 104.324 21.9972C104.242 21.9711 104.131 21.9099 104.079 21.8609C103.906 21.7002 103.311 21.437 102.449 21.1409C101.673 20.874 99.7627 20.7692 98.5859 20.9285ZM120.824 24.4556C121.092 24.5532 121.412 24.6869 121.536 24.7526C121.66 24.8187 121.868 24.9285 121.999 24.9969C122.778 25.4042 123.795 26.7366 124.217 27.9039C124.474 28.6136 124.479 33.7143 124.224 34.4892C122.801 38.8128 117.24 39.5877 114.842 35.7956C114.79 35.7141 114.714 35.5629 114.672 35.4599C114.63 35.3568 114.565 35.2047 114.529 35.1224C114.137 34.2386 113.999 33.2261 114.002 31.2596C114.005 28.4232 114.423 27.0404 115.686 25.6832C116.882 24.3989 119.168 23.8526 120.824 24.4556ZM141.336 24.4704C143.744 24.8552 145.167 26.432 145.421 28.9983C145.539 30.1926 146.181 30.0639 140.22 30.0414L135.111 30.0221L135.135 29.4222C135.172 28.5312 135.633 27.035 136.025 26.5355C137.371 24.8228 139.168 24.1239 141.336 24.4704ZM174.48 31.755C174.66 31.8243 174.655 34.73 174.474 35.2722C174.19 36.1232 173.588 36.948 172.986 37.313C172.5 37.6077 171.843 37.8651 171.136 38.0375C170.056 38.3016 167.35 38.1329 166.99 37.7796C166.951 37.7409 166.873 37.7099 166.818 37.7099C166.607 37.7099 165.717 36.9755 165.592 36.6974C165.554 36.6146 165.494 36.4967 165.458 36.4346C165.216 36.0233 165.149 35.7146 165.149 35.0229C165.149 32.9336 166.404 31.9404 169.236 31.7879C170.498 31.7199 174.326 31.6961 174.48 31.755Z" fill="white"/>
</svg>
